<?xml version="1.0" encoding="UTF-8" standalone="no"?>
<!DOCTYPE svg PUBLIC "-//W3C//DTD SVG 1.1//EN"
 "http://www.w3.org/Graphics/SVG/1.1/DTD/svg11.dtd">
<!-- Generated by graphviz version 9.0.0 (20230911.1827)
 -->
<!-- Title: Tree Pages: 1 -->
<svg width="707pt" height="286pt"
 viewBox="0.00 0.00 706.50 285.50" xmlns="http://www.w3.org/2000/svg" xmlns:xlink="http://www.w3.org/1999/xlink">
<g id="graph0" class="graph" transform="scale(1 1) rotate(0) translate(4 281.5)">
<title>Tree</title>
<polygon fill="white" stroke="none" points="-4,4 -4,-281.5 702.5,-281.5 702.5,4 -4,4"/>
<!-- 0 -->
<g id="node1" class="node">
<title>0</title>
<path fill="#f9e3d3" stroke="black" d="M409.5,-277.5C409.5,-277.5 266.75,-277.5 266.75,-277.5 260.75,-277.5 254.75,-271.5 254.75,-265.5 254.75,-265.5 254.75,-215.5 254.75,-215.5 254.75,-209.5 260.75,-203.5 266.75,-203.5 266.75,-203.5 409.5,-203.5 409.5,-203.5 415.5,-203.5 421.5,-209.5 421.5,-215.5 421.5,-215.5 421.5,-265.5 421.5,-265.5 421.5,-271.5 415.5,-277.5 409.5,-277.5"/>
<text text-anchor="start" x="301.38" y="-260.2" font-family="Helvetica,sans-Serif" font-size="14.00">RM ≤ 6.585</text>
<text text-anchor="start" x="262.75" y="-243.7" font-family="Helvetica,sans-Serif" font-size="14.00">squared_error = 34.709</text>
<text text-anchor="start" x="290.88" y="-227.2" font-family="Helvetica,sans-Serif" font-size="14.00">samples = 101</text>
<text text-anchor="start" x="295.38" y="-210.7" font-family="Helvetica,sans-Serif" font-size="14.00">value = 22.36</text>
</g>
<!-- 1 -->
<g id="node2" class="node">
<title>1</title>
<path fill="#fdf4ed" stroke="black" d="M317.5,-167.5C317.5,-167.5 174.75,-167.5 174.75,-167.5 168.75,-167.5 162.75,-161.5 162.75,-155.5 162.75,-155.5 162.75,-105.5 162.75,-105.5 162.75,-99.5 168.75,-93.5 174.75,-93.5 174.75,-93.5 317.5,-93.5 317.5,-93.5 323.5,-93.5 329.5,-99.5 329.5,-105.5 329.5,-105.5 329.5,-155.5 329.5,-155.5 329.5,-161.5 323.5,-167.5 317.5,-167.5"/>
<text text-anchor="start" x="209.38" y="-150.2" font-family="Helvetica,sans-Serif" font-size="14.00">RM ≤ 6.144</text>
<text text-anchor="start" x="170.75" y="-133.7" font-family="Helvetica,sans-Serif" font-size="14.00">squared_error = 12.881</text>
<text text-anchor="start" x="203" y="-117.2" font-family="Helvetica,sans-Serif" font-size="14.00">samples = 80</text>
<text text-anchor="start" x="199.25" y="-100.7" font-family="Helvetica,sans-Serif" font-size="14.00">value = 20.168</text>
</g>
<!-- 0&#45;&gt;1 -->
<g id="edge1" class="edge">
<title>0&#45;&gt;1</title>
<path fill="none" stroke="black" d="M307.23,-203.24C299.95,-194.69 292.1,-185.47 284.53,-176.59"/>
<polygon fill="black" stroke="black" points="287.22,-174.35 278.07,-169 281.89,-178.89 287.22,-174.35"/>
<text text-anchor="middle" x="275.1" y="-187.72" font-family="Helvetica,sans-Serif" font-size="14.00">True</text>
</g>
<!-- 4 -->
<g id="node5" class="node">
<title>4</title>
<path fill="#eca470" stroke="black" d="M502.5,-167.5C502.5,-167.5 359.75,-167.5 359.75,-167.5 353.75,-167.5 347.75,-161.5 347.75,-155.5 347.75,-155.5 347.75,-105.5 347.75,-105.5 347.75,-99.5 353.75,-93.5 359.75,-93.5 359.75,-93.5 502.5,-93.5 502.5,-93.5 508.5,-93.5 514.5,-99.5 514.5,-105.5 514.5,-105.5 514.5,-155.5 514.5,-155.5 514.5,-161.5 508.5,-167.5 502.5,-167.5"/>
<text text-anchor="start" x="394.38" y="-150.2" font-family="Helvetica,sans-Serif" font-size="14.00">RM ≤ 7.016</text>
<text text-anchor="start" x="355.75" y="-133.7" font-family="Helvetica,sans-Serif" font-size="14.00">squared_error = 29.757</text>
<text text-anchor="start" x="388" y="-117.2" font-family="Helvetica,sans-Serif" font-size="14.00">samples = 21</text>
<text text-anchor="start" x="384.25" y="-100.7" font-family="Helvetica,sans-Serif" font-size="14.00">value = 30.714</text>
</g>
<!-- 0&#45;&gt;4 -->
<g id="edge4" class="edge">
<title>0&#45;&gt;4</title>
<path fill="none" stroke="black" d="M369.35,-203.24C376.79,-194.6 384.81,-185.28 392.54,-176.31"/>
<polygon fill="black" stroke="black" points="394.96,-178.86 398.84,-169 389.66,-174.29 394.96,-178.86"/>
<text text-anchor="middle" x="401.68" y="-187.73" font-family="Helvetica,sans-Serif" font-size="14.00">False</text>
</g>
<!-- 2 -->
<g id="node3" class="node">
<title>2</title>
<path fill="#ffffff" stroke="black" d="M138.25,-57.5C138.25,-57.5 12,-57.5 12,-57.5 6,-57.5 0,-51.5 0,-45.5 0,-45.5 0,-12 0,-12 0,-6 6,0 12,0 12,0 138.25,0 138.25,0 144.25,0 150.25,-6 150.25,-12 150.25,-12 150.25,-45.5 150.25,-45.5 150.25,-51.5 144.25,-57.5 138.25,-57.5"/>
<text text-anchor="start" x="8" y="-40.2" font-family="Helvetica,sans-Serif" font-size="14.00">squared_error = 9.56</text>
<text text-anchor="start" x="32" y="-23.7" font-family="Helvetica,sans-Serif" font-size="14.00">samples = 52</text>
<text text-anchor="start" x="28.25" y="-7.2" font-family="Helvetica,sans-Serif" font-size="14.00">value = 18.644</text>
</g>
<!-- 1&#45;&gt;2 -->
<g id="edge2" class="edge">
<title>1&#45;&gt;2</title>
<path fill="none" stroke="black" d="M183.91,-93.21C167.38,-83.56 149.59,-73.19 133.29,-63.68"/>
<polygon fill="black" stroke="black" points="135.07,-60.66 124.66,-58.65 131.54,-66.71 135.07,-60.66"/>
</g>
<!-- 3 -->
<g id="node4" class="node">
<title>3</title>
<path fill="#f8decc" stroke="black" d="M314.38,-57.5C314.38,-57.5 179.88,-57.5 179.88,-57.5 173.88,-57.5 167.88,-51.5 167.88,-45.5 167.88,-45.5 167.88,-12 167.88,-12 167.88,-6 173.88,0 179.88,0 179.88,0 314.38,0 314.38,0 320.38,0 326.38,-6 326.38,-12 326.38,-12 326.38,-45.5 326.38,-45.5 326.38,-51.5 320.38,-57.5 314.38,-57.5"/>
<text text-anchor="start" x="175.88" y="-40.2" font-family="Helvetica,sans-Serif" font-size="14.00">squared_error = 6.737</text>
<text text-anchor="start" x="204" y="-23.7" font-family="Helvetica,sans-Serif" font-size="14.00">samples = 28</text>
<text text-anchor="start" x="200.25" y="-7.2" font-family="Helvetica,sans-Serif" font-size="14.00">value = 22.996</text>
</g>
<!-- 1&#45;&gt;3 -->
<g id="edge3" class="edge">
<title>1&#45;&gt;3</title>
<path fill="none" stroke="black" d="M246.49,-93.21C246.57,-85.35 246.65,-77 246.73,-69.03"/>
<polygon fill="black" stroke="black" points="250.23,-69.28 246.83,-59.24 243.23,-69.21 250.23,-69.28"/>
</g>
<!-- 5 -->
<g id="node6" class="node">
<title>5</title>
<path fill="#f2bf9a" stroke="black" d="M501.5,-57.5C501.5,-57.5 358.75,-57.5 358.75,-57.5 352.75,-57.5 346.75,-51.5 346.75,-45.5 346.75,-45.5 346.75,-12 346.75,-12 346.75,-6 352.75,0 358.75,0 358.75,0 501.5,0 501.5,0 507.5,0 513.5,-6 513.5,-12 513.5,-12 513.5,-45.5 513.5,-45.5 513.5,-51.5 507.5,-57.5 501.5,-57.5"/>
<text text-anchor="start" x="354.75" y="-40.2" font-family="Helvetica,sans-Serif" font-size="14.00">squared_error = 11.732</text>
<text text-anchor="start" x="387" y="-23.7" font-family="Helvetica,sans-Serif" font-size="14.00">samples = 12</text>
<text text-anchor="start" x="391.5" y="-7.2" font-family="Helvetica,sans-Serif" font-size="14.00">value = 27.2</text>
</g>
<!-- 4&#45;&gt;5 -->
<g id="edge5" class="edge">
<title>4&#45;&gt;5</title>
<path fill="none" stroke="black" d="M430.76,-93.21C430.68,-85.35 430.6,-77 430.52,-69.03"/>
<polygon fill="black" stroke="black" points="434.02,-69.21 430.42,-59.24 427.02,-69.28 434.02,-69.21"/>
</g>
<!-- 6 -->
<g id="node7" class="node">
<title>6</title>
<path fill="#e58139" stroke="black" d="M686.5,-57.5C686.5,-57.5 543.75,-57.5 543.75,-57.5 537.75,-57.5 531.75,-51.5 531.75,-45.5 531.75,-45.5 531.75,-12 531.75,-12 531.75,-6 537.75,0 543.75,0 543.75,0 686.5,0 686.5,0 692.5,0 698.5,-6 698.5,-12 698.5,-12 698.5,-45.5 698.5,-45.5 698.5,-51.5 692.5,-57.5 686.5,-57.5"/>
<text text-anchor="start" x="539.75" y="-40.2" font-family="Helvetica,sans-Serif" font-size="14.00">squared_error = 15.369</text>
<text text-anchor="start" x="576.12" y="-23.7" font-family="Helvetica,sans-Serif" font-size="14.00">samples = 9</text>
<text text-anchor="start" x="576.5" y="-7.2" font-family="Helvetica,sans-Serif" font-size="14.00">value = 35.4</text>
</g>
<!-- 4&#45;&gt;6 -->
<g id="edge6" class="edge">
<title>4&#45;&gt;6</title>
<path fill="none" stroke="black" d="M498.33,-93.06C516.35,-83.3 535.74,-72.79 553.44,-63.19"/>
<polygon fill="black" stroke="black" points="554.63,-66.53 561.75,-58.68 551.29,-60.37 554.63,-66.53"/>
</g>
</g>
</svg>
