<?xml version="1.0" encoding="UTF-8" standalone="no"?>
<!DOCTYPE svg PUBLIC "-//W3C//DTD SVG 1.1//EN"
 "http://www.w3.org/Graphics/SVG/1.1/DTD/svg11.dtd">
<!-- Generated by graphviz version 9.0.0 (20230911.1827)
 -->
<!-- Title: Tree Pages: 1 -->
<svg width="730pt" height="286pt"
 viewBox="0.00 0.00 729.75 285.50" xmlns="http://www.w3.org/2000/svg" xmlns:xlink="http://www.w3.org/1999/xlink">
<g id="graph0" class="graph" transform="scale(1 1) rotate(0) translate(4 281.5)">
<title>Tree</title>
<polygon fill="white" stroke="none" points="-4,4 -4,-281.5 725.75,-281.5 725.75,4 -4,4"/>
<!-- 0 -->
<g id="node1" class="node">
<title>0</title>
<path fill="#f8ddca" stroke="black" d="M431.75,-277.5C431.75,-277.5 289,-277.5 289,-277.5 283,-277.5 277,-271.5 277,-265.5 277,-265.5 277,-215.5 277,-215.5 277,-209.5 283,-203.5 289,-203.5 289,-203.5 431.75,-203.5 431.75,-203.5 437.75,-203.5 443.75,-209.5 443.75,-215.5 443.75,-215.5 443.75,-265.5 443.75,-265.5 443.75,-271.5 437.75,-277.5 431.75,-277.5"/>
<text text-anchor="middle" x="360.38" y="-260.2" font-family="Helvetica,sans-Serif" font-size="14.00">LSTAT &lt;= 8.13</text>
<text text-anchor="middle" x="360.38" y="-243.7" font-family="Helvetica,sans-Serif" font-size="14.00">squared_error = 85.144</text>
<text text-anchor="middle" x="360.38" y="-227.2" font-family="Helvetica,sans-Serif" font-size="14.00">samples = 404</text>
<text text-anchor="middle" x="360.38" y="-210.7" font-family="Helvetica,sans-Serif" font-size="14.00">value = 22.612</text>
</g>
<!-- 1 -->
<g id="node2" class="node">
<title>1</title>
<path fill="#f1b991" stroke="black" d="M339.75,-167.5C339.75,-167.5 197,-167.5 197,-167.5 191,-167.5 185,-161.5 185,-155.5 185,-155.5 185,-105.5 185,-105.5 185,-99.5 191,-93.5 197,-93.5 197,-93.5 339.75,-93.5 339.75,-93.5 345.75,-93.5 351.75,-99.5 351.75,-105.5 351.75,-105.5 351.75,-155.5 351.75,-155.5 351.75,-161.5 345.75,-167.5 339.75,-167.5"/>
<text text-anchor="middle" x="268.38" y="-150.2" font-family="Helvetica,sans-Serif" font-size="14.00">RM &lt;= 7.437</text>
<text text-anchor="middle" x="268.38" y="-133.7" font-family="Helvetica,sans-Serif" font-size="14.00">squared_error = 76.701</text>
<text text-anchor="middle" x="268.38" y="-117.2" font-family="Helvetica,sans-Serif" font-size="14.00">samples = 139</text>
<text text-anchor="middle" x="268.38" y="-100.7" font-family="Helvetica,sans-Serif" font-size="14.00">value = 31.378</text>
</g>
<!-- 0&#45;&gt;1 -->
<g id="edge1" class="edge">
<title>0&#45;&gt;1</title>
<path fill="none" stroke="black" d="M329.48,-203.24C322.2,-194.69 314.35,-185.47 306.78,-176.59"/>
<polygon fill="black" stroke="black" points="309.47,-174.35 300.32,-169 304.14,-178.89 309.47,-174.35"/>
<text text-anchor="middle" x="297.35" y="-187.72" font-family="Helvetica,sans-Serif" font-size="14.00">True</text>
</g>
<!-- 4 -->
<g id="node5" class="node">
<title>4</title>
<path fill="#fcf0e8" stroke="black" d="M524.75,-167.5C524.75,-167.5 382,-167.5 382,-167.5 376,-167.5 370,-161.5 370,-155.5 370,-155.5 370,-105.5 370,-105.5 370,-99.5 376,-93.5 382,-93.5 382,-93.5 524.75,-93.5 524.75,-93.5 530.75,-93.5 536.75,-99.5 536.75,-105.5 536.75,-105.5 536.75,-155.5 536.75,-155.5 536.75,-161.5 530.75,-167.5 524.75,-167.5"/>
<text text-anchor="middle" x="453.38" y="-150.2" font-family="Helvetica,sans-Serif" font-size="14.00">LSTAT &lt;= 15.0</text>
<text text-anchor="middle" x="453.38" y="-133.7" font-family="Helvetica,sans-Serif" font-size="14.00">squared_error = 28.117</text>
<text text-anchor="middle" x="453.38" y="-117.2" font-family="Helvetica,sans-Serif" font-size="14.00">samples = 265</text>
<text text-anchor="middle" x="453.38" y="-100.7" font-family="Helvetica,sans-Serif" font-size="14.00">value = 18.014</text>
</g>
<!-- 0&#45;&gt;4 -->
<g id="edge4" class="edge">
<title>0&#45;&gt;4</title>
<path fill="none" stroke="black" d="M391.6,-203.24C399.04,-194.6 407.06,-185.28 414.79,-176.31"/>
<polygon fill="black" stroke="black" points="417.21,-178.86 421.09,-169 411.91,-174.29 417.21,-178.86"/>
<text text-anchor="middle" x="423.93" y="-187.73" font-family="Helvetica,sans-Serif" font-size="14.00">False</text>
</g>
<!-- 2 -->
<g id="node3" class="node">
<title>2</title>
<path fill="#f3c5a3" stroke="black" d="M154.75,-57.5C154.75,-57.5 12,-57.5 12,-57.5 6,-57.5 0,-51.5 0,-45.5 0,-45.5 0,-12 0,-12 0,-6 6,0 12,0 12,0 154.75,0 154.75,0 160.75,0 166.75,-6 166.75,-12 166.75,-12 166.75,-45.5 166.75,-45.5 166.75,-51.5 160.75,-57.5 154.75,-57.5"/>
<text text-anchor="middle" x="83.38" y="-40.2" font-family="Helvetica,sans-Serif" font-size="14.00">squared_error = 37.749</text>
<text text-anchor="middle" x="83.38" y="-23.7" font-family="Helvetica,sans-Serif" font-size="14.00">samples = 115</text>
<text text-anchor="middle" x="83.38" y="-7.2" font-family="Helvetica,sans-Serif" font-size="14.00">value = 28.55</text>
</g>
<!-- 1&#45;&gt;2 -->
<g id="edge2" class="edge">
<title>1&#45;&gt;2</title>
<path fill="none" stroke="black" d="M200.8,-93.06C182.69,-83.3 163.19,-72.79 145.39,-63.19"/>
<polygon fill="black" stroke="black" points="147.5,-60.35 137.03,-58.68 144.17,-66.51 147.5,-60.35"/>
</g>
<!-- 3 -->
<g id="node4" class="node">
<title>3</title>
<path fill="#e58139" stroke="black" d="M339.75,-57.5C339.75,-57.5 197,-57.5 197,-57.5 191,-57.5 185,-51.5 185,-45.5 185,-45.5 185,-12 185,-12 185,-6 191,0 197,0 197,0 339.75,0 339.75,0 345.75,0 351.75,-6 351.75,-12 351.75,-12 351.75,-45.5 351.75,-45.5 351.75,-51.5 345.75,-57.5 339.75,-57.5"/>
<text text-anchor="middle" x="268.38" y="-40.2" font-family="Helvetica,sans-Serif" font-size="14.00">squared_error = 41.398</text>
<text text-anchor="middle" x="268.38" y="-23.7" font-family="Helvetica,sans-Serif" font-size="14.00">samples = 24</text>
<text text-anchor="middle" x="268.38" y="-7.2" font-family="Helvetica,sans-Serif" font-size="14.00">value = 44.929</text>
</g>
<!-- 1&#45;&gt;3 -->
<g id="edge3" class="edge">
<title>1&#45;&gt;3</title>
<path fill="none" stroke="black" d="M268.38,-93.21C268.38,-85.35 268.38,-77 268.38,-69.03"/>
<polygon fill="black" stroke="black" points="271.88,-69.24 268.38,-59.24 264.88,-69.24 271.88,-69.24"/>
</g>
<!-- 5 -->
<g id="node6" class="node">
<title>5</title>
<path fill="#f9e1d1" stroke="black" d="M524.75,-57.5C524.75,-57.5 382,-57.5 382,-57.5 376,-57.5 370,-51.5 370,-45.5 370,-45.5 370,-12 370,-12 370,-6 376,0 382,0 382,0 524.75,0 524.75,0 530.75,0 536.75,-6 536.75,-12 536.75,-12 536.75,-45.5 536.75,-45.5 536.75,-51.5 530.75,-57.5 524.75,-57.5"/>
<text text-anchor="middle" x="453.38" y="-40.2" font-family="Helvetica,sans-Serif" font-size="14.00">squared_error = 13.419</text>
<text text-anchor="middle" x="453.38" y="-23.7" font-family="Helvetica,sans-Serif" font-size="14.00">samples = 132</text>
<text text-anchor="middle" x="453.38" y="-7.2" font-family="Helvetica,sans-Serif" font-size="14.00">value = 21.601</text>
</g>
<!-- 4&#45;&gt;5 -->
<g id="edge5" class="edge">
<title>4&#45;&gt;5</title>
<path fill="none" stroke="black" d="M453.38,-93.21C453.38,-85.35 453.38,-77 453.38,-69.03"/>
<polygon fill="black" stroke="black" points="456.88,-69.24 453.38,-59.24 449.88,-69.24 456.88,-69.24"/>
</g>
<!-- 6 -->
<g id="node7" class="node">
<title>6</title>
<path fill="#ffffff" stroke="black" d="M709.75,-57.5C709.75,-57.5 567,-57.5 567,-57.5 561,-57.5 555,-51.5 555,-45.5 555,-45.5 555,-12 555,-12 555,-6 561,0 567,0 567,0 709.75,0 709.75,0 715.75,0 721.75,-6 721.75,-12 721.75,-12 721.75,-45.5 721.75,-45.5 721.75,-51.5 715.75,-57.5 709.75,-57.5"/>
<text text-anchor="middle" x="638.38" y="-40.2" font-family="Helvetica,sans-Serif" font-size="14.00">squared_error = 17.259</text>
<text text-anchor="middle" x="638.38" y="-23.7" font-family="Helvetica,sans-Serif" font-size="14.00">samples = 133</text>
<text text-anchor="middle" x="638.38" y="-7.2" font-family="Helvetica,sans-Serif" font-size="14.00">value = 14.453</text>
</g>
<!-- 4&#45;&gt;6 -->
<g id="edge6" class="edge">
<title>4&#45;&gt;6</title>
<path fill="none" stroke="black" d="M520.95,-93.06C539.06,-83.3 558.56,-72.79 576.36,-63.19"/>
<polygon fill="black" stroke="black" points="577.58,-66.51 584.72,-58.68 574.25,-60.35 577.58,-66.51"/>
</g>
</g>
</svg>
