<?xml version="1.0" encoding="UTF-8" standalone="no"?>
<!DOCTYPE svg PUBLIC "-//W3C//DTD SVG 1.1//EN"
 "http://www.w3.org/Graphics/SVG/1.1/DTD/svg11.dtd">
<!-- Generated by graphviz version 9.0.0 (20230911.1827)
 -->
<!-- Title: Tree Pages: 1 -->
<svg width="360pt" height="176pt"
 viewBox="0.00 0.00 359.75 175.50" xmlns="http://www.w3.org/2000/svg" xmlns:xlink="http://www.w3.org/1999/xlink">
<g id="graph0" class="graph" transform="scale(1 1) rotate(0) translate(4 171.5)">
<title>Tree</title>
<polygon fill="white" stroke="none" points="-4,4 -4,-171.5 355.75,-171.5 355.75,4 -4,4"/>
<!-- 0 -->
<g id="node1" class="node">
<title>0</title>
<path fill="#fae5d6" stroke="black" d="M246.75,-167.5C246.75,-167.5 104,-167.5 104,-167.5 98,-167.5 92,-161.5 92,-155.5 92,-155.5 92,-105.5 92,-105.5 92,-99.5 98,-93.5 104,-93.5 104,-93.5 246.75,-93.5 246.75,-93.5 252.75,-93.5 258.75,-99.5 258.75,-105.5 258.75,-105.5 258.75,-155.5 258.75,-155.5 258.75,-161.5 252.75,-167.5 246.75,-167.5"/>
<text text-anchor="start" x="138.62" y="-150.2" font-family="Helvetica,sans-Serif" font-size="14.00">RM ≤ 6.585</text>
<text text-anchor="start" x="100" y="-133.7" font-family="Helvetica,sans-Serif" font-size="14.00">squared_error = 34.709</text>
<text text-anchor="start" x="128.12" y="-117.2" font-family="Helvetica,sans-Serif" font-size="14.00">samples = 101</text>
<text text-anchor="start" x="132.62" y="-100.7" font-family="Helvetica,sans-Serif" font-size="14.00">value = 22.36</text>
</g>
<!-- 1 -->
<g id="node2" class="node">
<title>1</title>
<path fill="#ffffff" stroke="black" d="M154.75,-57.5C154.75,-57.5 12,-57.5 12,-57.5 6,-57.5 0,-51.5 0,-45.5 0,-45.5 0,-12 0,-12 0,-6 6,0 12,0 12,0 154.75,0 154.75,0 160.75,0 166.75,-6 166.75,-12 166.75,-12 166.75,-45.5 166.75,-45.5 166.75,-51.5 160.75,-57.5 154.75,-57.5"/>
<text text-anchor="start" x="8" y="-40.2" font-family="Helvetica,sans-Serif" font-size="14.00">squared_error = 12.881</text>
<text text-anchor="start" x="40.25" y="-23.7" font-family="Helvetica,sans-Serif" font-size="14.00">samples = 80</text>
<text text-anchor="start" x="36.5" y="-7.2" font-family="Helvetica,sans-Serif" font-size="14.00">value = 20.168</text>
</g>
<!-- 0&#45;&gt;1 -->
<g id="edge1" class="edge">
<title>0&#45;&gt;1</title>
<path fill="none" stroke="black" d="M141.9,-93.21C133.72,-84.34 124.98,-74.86 116.8,-65.99"/>
<polygon fill="black" stroke="black" points="119.56,-63.82 110.21,-58.84 114.41,-68.56 119.56,-63.82"/>
<text text-anchor="middle" x="108.17" y="-77.66" font-family="Helvetica,sans-Serif" font-size="14.00">True</text>
</g>
<!-- 2 -->
<g id="node3" class="node">
<title>2</title>
<path fill="#e58139" stroke="black" d="M339.75,-57.5C339.75,-57.5 197,-57.5 197,-57.5 191,-57.5 185,-51.5 185,-45.5 185,-45.5 185,-12 185,-12 185,-6 191,0 197,0 197,0 339.75,0 339.75,0 345.75,0 351.75,-6 351.75,-12 351.75,-12 351.75,-45.5 351.75,-45.5 351.75,-51.5 345.75,-57.5 339.75,-57.5"/>
<text text-anchor="start" x="193" y="-40.2" font-family="Helvetica,sans-Serif" font-size="14.00">squared_error = 29.757</text>
<text text-anchor="start" x="225.25" y="-23.7" font-family="Helvetica,sans-Serif" font-size="14.00">samples = 21</text>
<text text-anchor="start" x="221.5" y="-7.2" font-family="Helvetica,sans-Serif" font-size="14.00">value = 30.714</text>
</g>
<!-- 0&#45;&gt;2 -->
<g id="edge2" class="edge">
<title>0&#45;&gt;2</title>
<path fill="none" stroke="black" d="M209.21,-93.21C217.48,-84.34 226.32,-74.86 234.58,-65.99"/>
<polygon fill="black" stroke="black" points="237,-68.54 241.26,-58.83 231.88,-63.76 237,-68.54"/>
<text text-anchor="middle" x="243.17" y="-77.66" font-family="Helvetica,sans-Serif" font-size="14.00">False</text>
</g>
</g>
</svg>
