<?xml version="1.0" encoding="utf-8" standalone="no"?>
<!DOCTYPE svg PUBLIC "-//W3C//DTD SVG 1.1//EN"
  "http://www.w3.org/Graphics/SVG/1.1/DTD/svg11.dtd">
<!-- Created with matplotlib (https://matplotlib.org/) -->
<svg height="248.518125pt" version="1.1" viewBox="0 0 374.966028 248.518125" width="374.966028pt" xmlns="http://www.w3.org/2000/svg" xmlns:xlink="http://www.w3.org/1999/xlink">
 <metadata>
  <rdf:RDF xmlns:cc="http://creativecommons.org/ns#" xmlns:dc="http://purl.org/dc/elements/1.1/" xmlns:rdf="http://www.w3.org/1999/02/22-rdf-syntax-ns#">
   <cc:Work>
    <dc:type rdf:resource="http://purl.org/dc/dcmitype/StillImage"/>
    <dc:date>2021-01-18T09:04:46.648417</dc:date>
    <dc:format>image/svg+xml</dc:format>
    <dc:creator>
     <cc:Agent>
      <dc:title>Matplotlib v3.3.2, https://matplotlib.org/</dc:title>
     </cc:Agent>
    </dc:creator>
   </cc:Work>
  </rdf:RDF>
 </metadata>
 <defs>
  <style type="text/css">*{stroke-linecap:butt;stroke-linejoin:round;}</style>
 </defs>
 <g id="figure_1">
  <g id="patch_1">
   <path d="M 0 248.518125 
L 374.966028 248.518125 
L 374.966028 0 
L 0 0 
z
" style="fill:none;"/>
  </g>
  <g id="axes_1">
   <g id="patch_2">
    <path d="M 28.942188 106.036364 
L 181.124006 106.036364 
L 181.124006 7.2 
L 28.942188 7.2 
z
" style="fill:#ffffff;"/>
   </g>
   <g id="matplotlib.axis_1">
    <g id="xtick_1">
     <g id="line2d_1">
      <defs>
       <path d="M 0 0 
L 0 3.5 
" id="m11ffbf16b1" style="stroke:#000000;stroke-width:0.8;"/>
      </defs>
      <g>
       <use style="stroke:#000000;stroke-width:0.8;" x="35.859543" xlink:href="#m11ffbf16b1" y="106.036364"/>
      </g>
     </g>
     <g id="text_1">
      <!-- 0 -->
      <g transform="translate(32.678293 120.634801)scale(0.1 -0.1)">
       <defs>
        <path d="M 31.78125 66.40625 
Q 24.171875 66.40625 20.328125 58.90625 
Q 16.5 51.421875 16.5 36.375 
Q 16.5 21.390625 20.328125 13.890625 
Q 24.171875 6.390625 31.78125 6.390625 
Q 39.453125 6.390625 43.28125 13.890625 
Q 47.125 21.390625 47.125 36.375 
Q 47.125 51.421875 43.28125 58.90625 
Q 39.453125 66.40625 31.78125 66.40625 
z
M 31.78125 74.21875 
Q 44.046875 74.21875 50.515625 64.515625 
Q 56.984375 54.828125 56.984375 36.375 
Q 56.984375 17.96875 50.515625 8.265625 
Q 44.046875 -1.421875 31.78125 -1.421875 
Q 19.53125 -1.421875 13.0625 8.265625 
Q 6.59375 17.96875 6.59375 36.375 
Q 6.59375 54.828125 13.0625 64.515625 
Q 19.53125 74.21875 31.78125 74.21875 
z
" id="DejaVuSans-48"/>
       </defs>
       <use xlink:href="#DejaVuSans-48"/>
      </g>
     </g>
    </g>
    <g id="xtick_2">
     <g id="line2d_2">
      <g>
       <use style="stroke:#000000;stroke-width:0.8;" x="70.795681" xlink:href="#m11ffbf16b1" y="106.036364"/>
      </g>
     </g>
     <g id="text_2">
      <!-- 25 -->
      <g transform="translate(64.433181 120.634801)scale(0.1 -0.1)">
       <defs>
        <path d="M 19.1875 8.296875 
L 53.609375 8.296875 
L 53.609375 0 
L 7.328125 0 
L 7.328125 8.296875 
Q 12.9375 14.109375 22.625 23.890625 
Q 32.328125 33.6875 34.8125 36.53125 
Q 39.546875 41.84375 41.421875 45.53125 
Q 43.3125 49.21875 43.3125 52.78125 
Q 43.3125 58.59375 39.234375 62.25 
Q 35.15625 65.921875 28.609375 65.921875 
Q 23.96875 65.921875 18.8125 64.3125 
Q 13.671875 62.703125 7.8125 59.421875 
L 7.8125 69.390625 
Q 13.765625 71.78125 18.9375 73 
Q 24.125 74.21875 28.421875 74.21875 
Q 39.75 74.21875 46.484375 68.546875 
Q 53.21875 62.890625 53.21875 53.421875 
Q 53.21875 48.921875 51.53125 44.890625 
Q 49.859375 40.875 45.40625 35.40625 
Q 44.1875 33.984375 37.640625 27.21875 
Q 31.109375 20.453125 19.1875 8.296875 
z
" id="DejaVuSans-50"/>
        <path d="M 10.796875 72.90625 
L 49.515625 72.90625 
L 49.515625 64.59375 
L 19.828125 64.59375 
L 19.828125 46.734375 
Q 21.96875 47.46875 24.109375 47.828125 
Q 26.265625 48.1875 28.421875 48.1875 
Q 40.625 48.1875 47.75 41.5 
Q 54.890625 34.8125 54.890625 23.390625 
Q 54.890625 11.625 47.5625 5.09375 
Q 40.234375 -1.421875 26.90625 -1.421875 
Q 22.3125 -1.421875 17.546875 -0.640625 
Q 12.796875 0.140625 7.71875 1.703125 
L 7.71875 11.625 
Q 12.109375 9.234375 16.796875 8.0625 
Q 21.484375 6.890625 26.703125 6.890625 
Q 35.15625 6.890625 40.078125 11.328125 
Q 45.015625 15.765625 45.015625 23.390625 
Q 45.015625 31 40.078125 35.4375 
Q 35.15625 39.890625 26.703125 39.890625 
Q 22.75 39.890625 18.8125 39.015625 
Q 14.890625 38.140625 10.796875 36.28125 
z
" id="DejaVuSans-53"/>
       </defs>
       <use xlink:href="#DejaVuSans-50"/>
       <use x="63.623047" xlink:href="#DejaVuSans-53"/>
      </g>
     </g>
    </g>
    <g id="xtick_3">
     <g id="line2d_3">
      <g>
       <use style="stroke:#000000;stroke-width:0.8;" x="105.731819" xlink:href="#m11ffbf16b1" y="106.036364"/>
      </g>
     </g>
     <g id="text_3">
      <!-- 50 -->
      <g transform="translate(99.369319 120.634801)scale(0.1 -0.1)">
       <use xlink:href="#DejaVuSans-53"/>
       <use x="63.623047" xlink:href="#DejaVuSans-48"/>
      </g>
     </g>
    </g>
    <g id="xtick_4">
     <g id="line2d_4">
      <g>
       <use style="stroke:#000000;stroke-width:0.8;" x="140.667958" xlink:href="#m11ffbf16b1" y="106.036364"/>
      </g>
     </g>
     <g id="text_4">
      <!-- 75 -->
      <g transform="translate(134.305458 120.634801)scale(0.1 -0.1)">
       <defs>
        <path d="M 8.203125 72.90625 
L 55.078125 72.90625 
L 55.078125 68.703125 
L 28.609375 0 
L 18.3125 0 
L 43.21875 64.59375 
L 8.203125 64.59375 
z
" id="DejaVuSans-55"/>
       </defs>
       <use xlink:href="#DejaVuSans-55"/>
       <use x="63.623047" xlink:href="#DejaVuSans-53"/>
      </g>
     </g>
    </g>
    <g id="xtick_5">
     <g id="line2d_5">
      <g>
       <use style="stroke:#000000;stroke-width:0.8;" x="175.604096" xlink:href="#m11ffbf16b1" y="106.036364"/>
      </g>
     </g>
     <g id="text_5">
      <!-- 100 -->
      <g transform="translate(166.060346 120.634801)scale(0.1 -0.1)">
       <defs>
        <path d="M 12.40625 8.296875 
L 28.515625 8.296875 
L 28.515625 63.921875 
L 10.984375 60.40625 
L 10.984375 69.390625 
L 28.421875 72.90625 
L 38.28125 72.90625 
L 38.28125 8.296875 
L 54.390625 8.296875 
L 54.390625 0 
L 12.40625 0 
z
" id="DejaVuSans-49"/>
       </defs>
       <use xlink:href="#DejaVuSans-49"/>
       <use x="63.623047" xlink:href="#DejaVuSans-48"/>
       <use x="127.246094" xlink:href="#DejaVuSans-48"/>
      </g>
     </g>
    </g>
   </g>
   <g id="matplotlib.axis_2">
    <g id="ytick_1">
     <g id="line2d_6">
      <defs>
       <path d="M 0 0 
L -3.5 0 
" id="m1e53056219" style="stroke:#000000;stroke-width:0.8;"/>
      </defs>
      <g>
       <use style="stroke:#000000;stroke-width:0.8;" x="28.942188" xlink:href="#m1e53056219" y="101.544242"/>
      </g>
     </g>
     <g id="text_6">
      <!-- −1 -->
      <g transform="translate(7.2 105.34346)scale(0.1 -0.1)">
       <defs>
        <path d="M 10.59375 35.5 
L 73.1875 35.5 
L 73.1875 27.203125 
L 10.59375 27.203125 
z
" id="DejaVuSans-8722"/>
       </defs>
       <use xlink:href="#DejaVuSans-8722"/>
       <use x="83.789062" xlink:href="#DejaVuSans-49"/>
      </g>
     </g>
    </g>
    <g id="ytick_2">
     <g id="line2d_7">
      <g>
       <use style="stroke:#000000;stroke-width:0.8;" x="28.942188" xlink:href="#m1e53056219" y="56.616422"/>
      </g>
     </g>
     <g id="text_7">
      <!-- 0 -->
      <g transform="translate(15.579688 60.415641)scale(0.1 -0.1)">
       <use xlink:href="#DejaVuSans-48"/>
      </g>
     </g>
    </g>
    <g id="ytick_3">
     <g id="line2d_8">
      <g>
       <use style="stroke:#000000;stroke-width:0.8;" x="28.942188" xlink:href="#m1e53056219" y="11.688602"/>
      </g>
     </g>
     <g id="text_8">
      <!-- 1 -->
      <g transform="translate(15.579688 15.487821)scale(0.1 -0.1)">
       <use xlink:href="#DejaVuSans-49"/>
      </g>
     </g>
    </g>
   </g>
   <g id="line2d_9">
    <path clip-path="url(#pfe0ed90ec9)" d="M 35.859543 56.616422 
L 37.256988 18.810965 
L 38.654434 15.763671 
L 40.051879 50.276208 
L 41.449325 90.617908 
L 42.846771 99.698799 
L 44.244216 69.169951 
L 45.641662 27.099446 
L 47.039107 12.166713 
L 48.436553 38.100837 
L 49.833998 81.058104 
L 51.231444 101.543802 
L 52.628889 80.723473 
L 54.026335 37.739233 
L 55.42378 12.110593 
L 56.821226 27.400407 
L 58.218671 69.55129 
L 59.616117 99.809915 
L 61.013562 90.356642 
L 62.411008 49.882766 
L 63.808453 15.599782 
L 65.205899 19.027308 
L 66.603345 57.014092 
L 68.00079 94.63526 
L 69.398236 97.302083 
L 70.795681 62.562697 
L 72.193127 22.356333 
L 73.590572 13.648536 
L 74.988018 44.445215 
L 76.385463 86.432045 
L 77.782909 101.006529 
L 79.180354 74.768952 
L 80.5778 31.842023 
L 81.975245 11.692562 
L 83.372691 32.84589 
L 84.770136 75.853736 
L 86.167582 101.174883 
L 87.565027 85.529187 
L 88.962473 43.301228 
L 90.359919 13.315196 
L 91.757364 23.140112 
L 93.15481 63.742993 
L 94.552255 97.793737 
L 95.949701 93.986248 
L 97.347146 55.821113 
L 98.744592 18.387182 
L 100.142037 16.101037 
L 101.539483 51.064551 
L 102.936928 91.132429 
L 104.334374 99.466449 
L 105.731819 68.404352 
L 107.129265 26.504486 
L 108.52671 12.289395 
L 109.924156 38.828368 
L 111.321601 81.721596 
L 112.719047 101.533242 
L 114.116493 80.048571 
L 115.513938 37.02049 
L 116.911384 12.008818 
L 118.308829 28.009171 
L 119.706275 70.310899 
L 121.10372 100.021987 
L 122.501166 89.826199 
L 123.898611 49.097495 
L 125.296057 15.281658 
L 126.693502 19.468812 
L 128.090948 57.809307 
L 129.488393 95.053069 
L 130.885839 96.958355 
L 132.283284 61.773453 
L 133.68073 21.847201 
L 135.078175 13.88761 
L 136.475621 45.212692 
L 137.873067 87.02231 
L 139.270512 100.876896 
L 140.667958 74.038605 
L 142.065403 31.18244 
L 143.462849 11.71016 
L 144.860294 33.52449 
L 146.25774 76.569436 
L 147.655185 101.269672 
L 149.052631 84.915916 
L 150.450076 42.543736 
L 151.847522 13.109918 
L 153.244967 23.675779 
L 154.642413 64.527116 
L 156.039858 98.105397 
L 157.437304 93.538906 
L 158.834749 55.026053 
L 160.232195 17.975379 
L 161.629641 16.451101 
L 163.027086 51.854634 
L 164.424532 91.636133 
L 165.821977 99.220671 
L 167.219423 67.635059 
L 168.616868 25.918963 
L 170.014314 12.425969 
L 171.411759 39.561474 
L 172.809205 82.377219 
L 174.20665 101.508606 
" style="fill:none;stroke:#1f77b4;stroke-linecap:square;stroke-width:1.5;"/>
   </g>
   <g id="patch_3">
    <path d="M 28.942188 106.036364 
L 28.942188 7.2 
" style="fill:none;stroke:#000000;stroke-linecap:square;stroke-linejoin:miter;stroke-width:0.8;"/>
   </g>
   <g id="patch_4">
    <path d="M 181.124006 106.036364 
L 181.124006 7.2 
" style="fill:none;stroke:#000000;stroke-linecap:square;stroke-linejoin:miter;stroke-width:0.8;"/>
   </g>
   <g id="patch_5">
    <path d="M 28.942188 106.036364 
L 181.124006 106.036364 
" style="fill:none;stroke:#000000;stroke-linecap:square;stroke-linejoin:miter;stroke-width:0.8;"/>
   </g>
   <g id="patch_6">
    <path d="M 28.942188 7.2 
L 181.124006 7.2 
" style="fill:none;stroke:#000000;stroke-linecap:square;stroke-linejoin:miter;stroke-width:0.8;"/>
   </g>
  </g>
  <g id="axes_2">
   <g id="patch_7">
    <path d="M 211.560369 106.036364 
L 363.742187 106.036364 
L 363.742187 7.2 
L 211.560369 7.2 
z
" style="fill:#ffffff;"/>
   </g>
   <g id="matplotlib.axis_3">
    <g id="xtick_6">
     <g id="line2d_10">
      <g>
       <use style="stroke:#000000;stroke-width:0.8;" x="218.477725" xlink:href="#m11ffbf16b1" y="106.036364"/>
      </g>
     </g>
     <g id="text_9">
      <!-- 0 -->
      <g transform="translate(215.296475 120.634801)scale(0.1 -0.1)">
       <use xlink:href="#DejaVuSans-48"/>
      </g>
     </g>
    </g>
    <g id="xtick_7">
     <g id="line2d_11">
      <g>
       <use style="stroke:#000000;stroke-width:0.8;" x="253.413863" xlink:href="#m11ffbf16b1" y="106.036364"/>
      </g>
     </g>
     <g id="text_10">
      <!-- 25 -->
      <g transform="translate(247.051363 120.634801)scale(0.1 -0.1)">
       <use xlink:href="#DejaVuSans-50"/>
       <use x="63.623047" xlink:href="#DejaVuSans-53"/>
      </g>
     </g>
    </g>
    <g id="xtick_8">
     <g id="line2d_12">
      <g>
       <use style="stroke:#000000;stroke-width:0.8;" x="288.350001" xlink:href="#m11ffbf16b1" y="106.036364"/>
      </g>
     </g>
     <g id="text_11">
      <!-- 50 -->
      <g transform="translate(281.987501 120.634801)scale(0.1 -0.1)">
       <use xlink:href="#DejaVuSans-53"/>
       <use x="63.623047" xlink:href="#DejaVuSans-48"/>
      </g>
     </g>
    </g>
    <g id="xtick_9">
     <g id="line2d_13">
      <g>
       <use style="stroke:#000000;stroke-width:0.8;" x="323.286139" xlink:href="#m11ffbf16b1" y="106.036364"/>
      </g>
     </g>
     <g id="text_12">
      <!-- 75 -->
      <g transform="translate(316.923639 120.634801)scale(0.1 -0.1)">
       <use xlink:href="#DejaVuSans-55"/>
       <use x="63.623047" xlink:href="#DejaVuSans-53"/>
      </g>
     </g>
    </g>
    <g id="xtick_10">
     <g id="line2d_14">
      <g>
       <use style="stroke:#000000;stroke-width:0.8;" x="358.222278" xlink:href="#m11ffbf16b1" y="106.036364"/>
      </g>
     </g>
     <g id="text_13">
      <!-- 100 -->
      <g transform="translate(348.678528 120.634801)scale(0.1 -0.1)">
       <use xlink:href="#DejaVuSans-49"/>
       <use x="63.623047" xlink:href="#DejaVuSans-48"/>
       <use x="127.246094" xlink:href="#DejaVuSans-48"/>
      </g>
     </g>
    </g>
   </g>
   <g id="matplotlib.axis_4">
    <g id="ytick_4">
     <g id="line2d_15">
      <g>
       <use style="stroke:#000000;stroke-width:0.8;" x="211.560369" xlink:href="#m1e53056219" y="101.544242"/>
      </g>
     </g>
     <g id="text_14">
      <!-- −1 -->
      <g transform="translate(189.818182 105.34346)scale(0.1 -0.1)">
       <use xlink:href="#DejaVuSans-8722"/>
       <use x="83.789062" xlink:href="#DejaVuSans-49"/>
      </g>
     </g>
    </g>
    <g id="ytick_5">
     <g id="line2d_16">
      <g>
       <use style="stroke:#000000;stroke-width:0.8;" x="211.560369" xlink:href="#m1e53056219" y="56.616422"/>
      </g>
     </g>
     <g id="text_15">
      <!-- 0 -->
      <g transform="translate(198.197869 60.415641)scale(0.1 -0.1)">
       <use xlink:href="#DejaVuSans-48"/>
      </g>
     </g>
    </g>
    <g id="ytick_6">
     <g id="line2d_17">
      <g>
       <use style="stroke:#000000;stroke-width:0.8;" x="211.560369" xlink:href="#m1e53056219" y="11.688602"/>
      </g>
     </g>
     <g id="text_16">
      <!-- 1 -->
      <g transform="translate(198.197869 15.487821)scale(0.1 -0.1)">
       <use xlink:href="#DejaVuSans-49"/>
      </g>
     </g>
    </g>
   </g>
   <g id="line2d_18">
    <path clip-path="url(#pe763c32b3d)" d="M 218.477725 56.616422 
L 219.87517 35.076878 
L 221.272616 18.810965 
L 222.670061 11.801147 
L 224.067507 15.763671 
L 225.464952 29.728373 
L 226.862398 50.276208 
L 228.259843 72.376347 
L 229.657289 90.617908 
L 231.054734 100.534719 
L 232.45218 99.698799 
L 233.849626 88.31481 
L 235.247071 69.169951 
L 236.644517 46.95155 
L 238.041962 27.099446 
L 239.439408 14.474128 
L 240.836853 12.166713 
L 242.234299 20.742137 
L 243.631744 38.100837 
L 245.02919 59.992798 
L 246.426635 81.058104 
L 247.824081 96.139234 
L 249.221526 101.543802 
L 250.618972 95.948579 
L 252.016417 80.723473 
L 253.413863 59.59612 
L 254.811308 37.739233 
L 256.208754 20.50414 
L 257.6062 12.110593 
L 259.003645 14.613625 
L 260.401091 27.400407 
L 261.798536 47.340288 
L 263.195982 69.55129 
L 264.593427 88.595385 
L 265.990873 99.809915 
L 267.388318 100.449171 
L 268.785764 90.356642 
L 270.183209 72.003329 
L 271.580655 49.882766 
L 272.9781 29.410836 
L 274.375546 15.599782 
L 275.772991 11.831032 
L 277.170437 19.027308 
L 278.567882 35.42671 
L 279.965328 57.014092 
L 281.362774 78.504111 
L 282.760219 94.63526 
L 284.157665 101.458071 
L 285.55511 97.302083 
L 286.952556 83.184826 
L 288.350001 62.562697 
L 289.747447 40.484713 
L 291.144892 22.356333 
L 292.542338 12.616018 
L 293.939783 13.648536 
L 295.337229 25.201092 
L 296.734674 44.445215 
L 298.13212 66.669275 
L 299.529565 86.432045 
L 300.927011 98.894911 
L 302.324456 101.006529 
L 303.721902 92.2499 
L 305.119348 74.768952 
L 306.516793 52.843633 
L 307.914239 31.842023 
L 309.311684 16.906051 
L 310.70913 11.692562 
L 312.106575 17.478001 
L 313.504021 32.84589 
L 314.901466 54.033635 
L 316.298912 75.853736 
L 317.696357 92.963871 
L 319.093803 101.174883 
L 320.491248 98.47643 
L 321.888694 85.529187 
L 323.286139 65.503091 
L 324.683585 43.301228 
L 326.08103 24.359389 
L 327.478476 13.315196 
L 328.875922 12.872654 
L 330.273367 23.140112 
L 331.670813 41.603738 
L 333.068258 63.742993 
L 334.465704 84.137414 
L 335.863149 97.793737 
L 337.260595 101.368417 
L 338.65804 93.986248 
L 340.055486 77.454642 
L 341.452931 55.821113 
L 342.850377 34.382303 
L 344.247822 18.387182 
L 345.645268 11.751911 
L 347.042713 16.101037 
L 348.440159 30.369743 
L 349.837604 51.064551 
L 351.23505 73.11865 
L 352.632496 91.132429 
L 354.029941 100.695485 
L 355.427387 99.466449 
L 356.824832 87.746232 
" style="fill:none;stroke:#1f77b4;stroke-linecap:square;stroke-width:1.5;"/>
   </g>
   <g id="patch_8">
    <path d="M 211.560369 106.036364 
L 211.560369 7.2 
" style="fill:none;stroke:#000000;stroke-linecap:square;stroke-linejoin:miter;stroke-width:0.8;"/>
   </g>
   <g id="patch_9">
    <path d="M 363.742187 106.036364 
L 363.742187 7.2 
" style="fill:none;stroke:#000000;stroke-linecap:square;stroke-linejoin:miter;stroke-width:0.8;"/>
   </g>
   <g id="patch_10">
    <path d="M 211.560369 106.036364 
L 363.742187 106.036364 
" style="fill:none;stroke:#000000;stroke-linecap:square;stroke-linejoin:miter;stroke-width:0.8;"/>
   </g>
   <g id="patch_11">
    <path d="M 211.560369 7.2 
L 363.742187 7.2 
" style="fill:none;stroke:#000000;stroke-linecap:square;stroke-linejoin:miter;stroke-width:0.8;"/>
   </g>
  </g>
  <g id="axes_3">
   <g id="patch_12">
    <path d="M 28.942188 224.64 
L 181.124006 224.64 
L 181.124006 125.803636 
L 28.942188 125.803636 
z
" style="fill:#ffffff;"/>
   </g>
   <g id="matplotlib.axis_5">
    <g id="xtick_11">
     <g id="line2d_19">
      <g>
       <use style="stroke:#000000;stroke-width:0.8;" x="35.859543" xlink:href="#m11ffbf16b1" y="224.64"/>
      </g>
     </g>
     <g id="text_17">
      <!-- 0 -->
      <g transform="translate(32.678293 239.238437)scale(0.1 -0.1)">
       <use xlink:href="#DejaVuSans-48"/>
      </g>
     </g>
    </g>
    <g id="xtick_12">
     <g id="line2d_20">
      <g>
       <use style="stroke:#000000;stroke-width:0.8;" x="70.795681" xlink:href="#m11ffbf16b1" y="224.64"/>
      </g>
     </g>
     <g id="text_18">
      <!-- 25 -->
      <g transform="translate(64.433181 239.238437)scale(0.1 -0.1)">
       <use xlink:href="#DejaVuSans-50"/>
       <use x="63.623047" xlink:href="#DejaVuSans-53"/>
      </g>
     </g>
    </g>
    <g id="xtick_13">
     <g id="line2d_21">
      <g>
       <use style="stroke:#000000;stroke-width:0.8;" x="105.731819" xlink:href="#m11ffbf16b1" y="224.64"/>
      </g>
     </g>
     <g id="text_19">
      <!-- 50 -->
      <g transform="translate(99.369319 239.238437)scale(0.1 -0.1)">
       <use xlink:href="#DejaVuSans-53"/>
       <use x="63.623047" xlink:href="#DejaVuSans-48"/>
      </g>
     </g>
    </g>
    <g id="xtick_14">
     <g id="line2d_22">
      <g>
       <use style="stroke:#000000;stroke-width:0.8;" x="140.667958" xlink:href="#m11ffbf16b1" y="224.64"/>
      </g>
     </g>
     <g id="text_20">
      <!-- 75 -->
      <g transform="translate(134.305458 239.238437)scale(0.1 -0.1)">
       <use xlink:href="#DejaVuSans-55"/>
       <use x="63.623047" xlink:href="#DejaVuSans-53"/>
      </g>
     </g>
    </g>
    <g id="xtick_15">
     <g id="line2d_23">
      <g>
       <use style="stroke:#000000;stroke-width:0.8;" x="175.604096" xlink:href="#m11ffbf16b1" y="224.64"/>
      </g>
     </g>
     <g id="text_21">
      <!-- 100 -->
      <g transform="translate(166.060346 239.238437)scale(0.1 -0.1)">
       <use xlink:href="#DejaVuSans-49"/>
       <use x="63.623047" xlink:href="#DejaVuSans-48"/>
       <use x="127.246094" xlink:href="#DejaVuSans-48"/>
      </g>
     </g>
    </g>
   </g>
   <g id="matplotlib.axis_6">
    <g id="ytick_7">
     <g id="line2d_24">
      <g>
       <use style="stroke:#000000;stroke-width:0.8;" x="28.942188" xlink:href="#m1e53056219" y="220.147878"/>
      </g>
     </g>
     <g id="text_22">
      <!-- −1 -->
      <g transform="translate(7.2 223.947097)scale(0.1 -0.1)">
       <use xlink:href="#DejaVuSans-8722"/>
       <use x="83.789062" xlink:href="#DejaVuSans-49"/>
      </g>
     </g>
    </g>
    <g id="ytick_8">
     <g id="line2d_25">
      <g>
       <use style="stroke:#000000;stroke-width:0.8;" x="28.942188" xlink:href="#m1e53056219" y="175.220058"/>
      </g>
     </g>
     <g id="text_23">
      <!-- 0 -->
      <g transform="translate(15.579688 179.019277)scale(0.1 -0.1)">
       <use xlink:href="#DejaVuSans-48"/>
      </g>
     </g>
    </g>
    <g id="ytick_9">
     <g id="line2d_26">
      <g>
       <use style="stroke:#000000;stroke-width:0.8;" x="28.942188" xlink:href="#m1e53056219" y="130.292238"/>
      </g>
     </g>
     <g id="text_24">
      <!-- 1 -->
      <g transform="translate(15.579688 134.091457)scale(0.1 -0.1)">
       <use xlink:href="#DejaVuSans-49"/>
      </g>
     </g>
    </g>
   </g>
   <g id="line2d_27">
    <path clip-path="url(#pef78c5cefc)" d="M 35.859543 175.220058 
L 37.256988 160.519914 
L 38.654434 147.438051 
L 40.051879 137.414601 
L 41.449325 131.553007 
L 42.846771 130.498549 
L 44.244216 134.367307 
L 45.641662 142.733386 
L 47.039107 154.675796 
L 48.436553 168.879844 
L 49.833998 183.781861 
L 51.231444 197.741343 
L 52.628889 209.221544 
L 54.026335 216.958654 
L 55.42378 220.100925 
L 56.821226 218.302435 
L 58.218671 211.761175 
L 59.616117 201.197245 
L 61.013562 187.773587 
L 62.411008 172.967961 
L 63.808453 158.410259 
L 65.205899 145.703083 
L 66.603345 136.245315 
L 68.00079 131.078125 
L 69.398236 130.770349 
L 70.795681 135.355868 
L 72.193127 144.329881 
L 73.590572 156.704473 
L 74.988018 171.117374 
L 76.385463 185.981923 
L 77.782909 199.661741 
L 79.180354 210.650868 
L 80.5778 217.739556 
L 81.975245 220.147438 
L 83.372691 217.609439 
L 84.770136 210.404959 
L 86.167582 199.32711 
L 87.565027 185.595409 
L 88.962473 170.721526 
L 90.359919 156.342869 
L 91.757364 144.042329 
L 93.15481 135.174023 
L 94.552255 130.714229 
L 95.949701 131.153909 
L 97.347146 136.44466 
L 98.744592 146.004043 
L 100.142037 158.779704 
L 101.539483 173.365219 
L 102.936928 188.154927 
L 104.334374 201.520685 
L 105.731819 211.991109 
L 107.129265 218.413551 
L 108.52671 220.080991 
L 109.924156 216.809864 
L 111.321601 208.960278 
L 112.719047 197.396362 
L 114.116493 183.391144 
L 115.513938 168.486402 
L 116.911384 154.322942 
L 118.308829 142.459965 
L 119.706275 134.203419 
L 121.10372 130.462234 
L 122.501166 131.648265 
L 123.898611 137.630944 
L 125.296057 147.751663 
L 126.693502 160.896271 
L 128.090948 175.617728 
L 129.488393 190.295408 
L 130.885839 203.313501 
L 132.283284 213.238896 
L 133.68073 218.978945 
L 135.078175 219.901749 
L 136.475621 215.90572 
L 137.873067 207.430764 
L 139.270512 195.409857 
L 140.667958 181.166334 
L 142.065403 166.268208 
L 143.462849 152.355557 
L 144.860294 140.95997 
L 146.25774 133.335942 
L 147.655185 130.322774 
L 149.052631 132.252173 
L 150.450076 138.911739 
L 151.847522 149.568347 
L 153.244967 163.048852 
L 154.642413 177.869237 
L 156.039858 192.397985 
L 157.437304 205.035682 
L 158.834749 214.391092 
L 160.232195 219.434317 
L 161.629641 219.610165 
L 163.027086 214.899279 
L 164.424532 205.820263 
L 165.821977 193.372589 
L 167.219423 178.926573 
L 168.616868 164.072522 
L 170.014314 150.44566 
L 171.411759 139.546114 
L 172.809205 132.573775 
L 174.20665 130.296198 
" style="fill:none;stroke:#1f77b4;stroke-linecap:square;stroke-width:1.5;"/>
   </g>
   <g id="patch_13">
    <path d="M 28.942188 224.64 
L 28.942188 125.803636 
" style="fill:none;stroke:#000000;stroke-linecap:square;stroke-linejoin:miter;stroke-width:0.8;"/>
   </g>
   <g id="patch_14">
    <path d="M 181.124006 224.64 
L 181.124006 125.803636 
" style="fill:none;stroke:#000000;stroke-linecap:square;stroke-linejoin:miter;stroke-width:0.8;"/>
   </g>
   <g id="patch_15">
    <path d="M 28.942188 224.64 
L 181.124006 224.64 
" style="fill:none;stroke:#000000;stroke-linecap:square;stroke-linejoin:miter;stroke-width:0.8;"/>
   </g>
   <g id="patch_16">
    <path d="M 28.942188 125.803636 
L 181.124006 125.803636 
" style="fill:none;stroke:#000000;stroke-linecap:square;stroke-linejoin:miter;stroke-width:0.8;"/>
   </g>
  </g>
  <g id="axes_4">
   <g id="patch_17">
    <path d="M 211.560369 224.64 
L 363.742187 224.64 
L 363.742187 125.803636 
L 211.560369 125.803636 
z
" style="fill:#ffffff;"/>
   </g>
   <g id="matplotlib.axis_7">
    <g id="xtick_16">
     <g id="line2d_28">
      <g>
       <use style="stroke:#000000;stroke-width:0.8;" x="218.477725" xlink:href="#m11ffbf16b1" y="224.64"/>
      </g>
     </g>
     <g id="text_25">
      <!-- 0 -->
      <g transform="translate(215.296475 239.238437)scale(0.1 -0.1)">
       <use xlink:href="#DejaVuSans-48"/>
      </g>
     </g>
    </g>
    <g id="xtick_17">
     <g id="line2d_29">
      <g>
       <use style="stroke:#000000;stroke-width:0.8;" x="253.413863" xlink:href="#m11ffbf16b1" y="224.64"/>
      </g>
     </g>
     <g id="text_26">
      <!-- 25 -->
      <g transform="translate(247.051363 239.238437)scale(0.1 -0.1)">
       <use xlink:href="#DejaVuSans-50"/>
       <use x="63.623047" xlink:href="#DejaVuSans-53"/>
      </g>
     </g>
    </g>
    <g id="xtick_18">
     <g id="line2d_30">
      <g>
       <use style="stroke:#000000;stroke-width:0.8;" x="288.350001" xlink:href="#m11ffbf16b1" y="224.64"/>
      </g>
     </g>
     <g id="text_27">
      <!-- 50 -->
      <g transform="translate(281.987501 239.238437)scale(0.1 -0.1)">
       <use xlink:href="#DejaVuSans-53"/>
       <use x="63.623047" xlink:href="#DejaVuSans-48"/>
      </g>
     </g>
    </g>
    <g id="xtick_19">
     <g id="line2d_31">
      <g>
       <use style="stroke:#000000;stroke-width:0.8;" x="323.286139" xlink:href="#m11ffbf16b1" y="224.64"/>
      </g>
     </g>
     <g id="text_28">
      <!-- 75 -->
      <g transform="translate(316.923639 239.238437)scale(0.1 -0.1)">
       <use xlink:href="#DejaVuSans-55"/>
       <use x="63.623047" xlink:href="#DejaVuSans-53"/>
      </g>
     </g>
    </g>
    <g id="xtick_20">
     <g id="line2d_32">
      <g>
       <use style="stroke:#000000;stroke-width:0.8;" x="358.222278" xlink:href="#m11ffbf16b1" y="224.64"/>
      </g>
     </g>
     <g id="text_29">
      <!-- 100 -->
      <g transform="translate(348.678528 239.238437)scale(0.1 -0.1)">
       <use xlink:href="#DejaVuSans-49"/>
       <use x="63.623047" xlink:href="#DejaVuSans-48"/>
       <use x="127.246094" xlink:href="#DejaVuSans-48"/>
      </g>
     </g>
    </g>
   </g>
   <g id="matplotlib.axis_8">
    <g id="ytick_10">
     <g id="line2d_33">
      <g>
       <use style="stroke:#000000;stroke-width:0.8;" x="211.560369" xlink:href="#m1e53056219" y="220.147879"/>
      </g>
     </g>
     <g id="text_30">
      <!-- −1 -->
      <g transform="translate(189.818182 223.947097)scale(0.1 -0.1)">
       <use xlink:href="#DejaVuSans-8722"/>
       <use x="83.789062" xlink:href="#DejaVuSans-49"/>
      </g>
     </g>
    </g>
    <g id="ytick_11">
     <g id="line2d_34">
      <g>
       <use style="stroke:#000000;stroke-width:0.8;" x="211.560369" xlink:href="#m1e53056219" y="175.165698"/>
      </g>
     </g>
     <g id="text_31">
      <!-- 0 -->
      <g transform="translate(198.197869 178.964917)scale(0.1 -0.1)">
       <use xlink:href="#DejaVuSans-48"/>
      </g>
     </g>
    </g>
    <g id="ytick_12">
     <g id="line2d_35">
      <g>
       <use style="stroke:#000000;stroke-width:0.8;" x="211.560369" xlink:href="#m1e53056219" y="130.183517"/>
      </g>
     </g>
     <g id="text_32">
      <!-- 1 -->
      <g transform="translate(198.197869 133.982736)scale(0.1 -0.1)">
       <use xlink:href="#DejaVuSans-49"/>
      </g>
     </g>
    </g>
   </g>
   <g id="line2d_36">
    <path clip-path="url(#p58575e5ced)" d="M 218.477725 175.165698 
L 219.87517 164.036928 
L 221.272616 153.600092 
L 222.670061 144.5041 
L 224.067507 137.314498 
L 225.464952 132.4783 
L 226.862398 130.296198 
L 228.259843 130.903864 
L 229.657289 134.263517 
L 231.054734 140.166269 
L 232.45218 148.245116 
L 233.849626 157.997754 
L 235.247071 168.817812 
L 236.644517 180.032551 
L 238.041962 190.944692 
L 239.439408 200.875772 
L 240.836853 209.208324 
L 242.234299 215.424271 
L 243.631744 219.137134 
L 245.02919 220.116067 
L 246.426635 218.300203 
L 247.824081 213.802444 
L 249.221526 206.90244 
L 250.618972 198.029199 
L 252.016417 187.734416 
L 253.413863 176.658171 
L 254.811308 165.489132 
L 256.208754 154.921734 
L 257.6062 145.613008 
L 259.003645 138.141725 
L 260.401091 132.972414 
L 261.798536 130.426476 
L 263.195982 130.662207 
L 264.593427 133.664949 
L 265.990873 139.248006 
L 267.388318 147.064252 
L 268.785764 156.62771 
L 270.183209 167.34377 
L 271.580655 178.546159 
L 272.9781 189.538368 
L 274.375546 199.636954 
L 275.772991 208.214035 
L 277.170437 214.736331 
L 278.567882 218.798317 
L 279.965328 220.147438 
L 281.362774 218.699812 
L 282.760219 214.545446 
L 284.157665 207.942637 
L 285.55511 199.301918 
L 286.952556 189.160525 
L 288.350001 178.149002 
L 289.747447 166.951991 
L 291.144892 156.265668 
L 292.542338 146.754458 
L 293.939783 139.009722 
L 295.337229 133.512989 
L 296.734674 130.606019 
L 298.13212 130.469555 
L 299.529565 133.11208 
L 300.927011 138.369295 
L 302.324456 145.914333 
L 303.721902 155.278079 
L 305.119348 165.87834 
L 306.516793 177.056045 
L 307.914239 188.116217 
L 309.311684 198.371188 
L 310.70913 207.183355 
L 312.106575 214.004818 
L 313.504021 218.411454 
L 314.901466 220.129277 
L 316.298912 219.051483 
L 317.696357 215.245084 
L 319.093803 208.946742 
L 320.491248 200.548059 
L 321.888694 190.571223 
L 323.286139 179.636546 
L 324.683585 168.423894 
L 326.08103 157.630415 
L 327.478476 147.927194 
L 328.875922 139.917532 
L 330.273367 134.09943 
L 331.670813 130.834629 
L 333.068258 130.32612 
L 334.465704 132.605519 
L 335.863149 137.531103 
L 337.260595 144.796624 
L 338.65804 153.950347 
L 340.055486 164.423138 
L 341.452931 175.563849 
L 342.850377 186.679805 
L 344.247822 197.07987 
L 345.645268 206.117417 
L 347.042713 213.230537 
L 348.440159 217.976969 
L 349.837604 220.061604 
L 351.23505 219.354829 
L 352.632496 215.900587 
L 354.029941 209.913648 
L 355.427387 201.766249 
L 356.824832 191.964957 
" style="fill:none;stroke:#1f77b4;stroke-linecap:square;stroke-width:1.5;"/>
   </g>
   <g id="patch_18">
    <path d="M 211.560369 224.64 
L 211.560369 125.803636 
" style="fill:none;stroke:#000000;stroke-linecap:square;stroke-linejoin:miter;stroke-width:0.8;"/>
   </g>
   <g id="patch_19">
    <path d="M 363.742187 224.64 
L 363.742187 125.803636 
" style="fill:none;stroke:#000000;stroke-linecap:square;stroke-linejoin:miter;stroke-width:0.8;"/>
   </g>
   <g id="patch_20">
    <path d="M 211.560369 224.64 
L 363.742187 224.64 
" style="fill:none;stroke:#000000;stroke-linecap:square;stroke-linejoin:miter;stroke-width:0.8;"/>
   </g>
   <g id="patch_21">
    <path d="M 211.560369 125.803636 
L 363.742187 125.803636 
" style="fill:none;stroke:#000000;stroke-linecap:square;stroke-linejoin:miter;stroke-width:0.8;"/>
   </g>
  </g>
 </g>
 <defs>
  <clipPath id="pfe0ed90ec9">
   <rect height="98.836364" width="152.181818" x="28.942188" y="7.2"/>
  </clipPath>
  <clipPath id="pe763c32b3d">
   <rect height="98.836364" width="152.181818" x="211.560369" y="7.2"/>
  </clipPath>
  <clipPath id="pef78c5cefc">
   <rect height="98.836364" width="152.181818" x="28.942188" y="125.803636"/>
  </clipPath>
  <clipPath id="p58575e5ced">
   <rect height="98.836364" width="152.181818" x="211.560369" y="125.803636"/>
  </clipPath>
 </defs>
</svg>
