<?xml version="1.0" encoding="utf-8" standalone="no"?>
<!DOCTYPE svg PUBLIC "-//W3C//DTD SVG 1.1//EN"
  "http://www.w3.org/Graphics/SVG/1.1/DTD/svg11.dtd">
<!-- Created with matplotlib (https://matplotlib.org/) -->
<svg height="269.518125pt" version="1.1" viewBox="0 0 277.565 269.518125" width="277.565pt" xmlns="http://www.w3.org/2000/svg" xmlns:xlink="http://www.w3.org/1999/xlink">
 <metadata>
  <rdf:RDF xmlns:cc="http://creativecommons.org/ns#" xmlns:dc="http://purl.org/dc/elements/1.1/" xmlns:rdf="http://www.w3.org/1999/02/22-rdf-syntax-ns#">
   <cc:Work>
    <dc:type rdf:resource="http://purl.org/dc/dcmitype/StillImage"/>
    <dc:date>2021-01-18T09:05:52.542900</dc:date>
    <dc:format>image/svg+xml</dc:format>
    <dc:creator>
     <cc:Agent>
      <dc:title>Matplotlib v3.3.2, https://matplotlib.org/</dc:title>
     </cc:Agent>
    </dc:creator>
   </cc:Work>
  </rdf:RDF>
 </metadata>
 <defs>
  <style type="text/css">*{stroke-linecap:butt;stroke-linejoin:round;}</style>
 </defs>
 <g id="figure_1">
  <g id="patch_1">
   <path d="M 0 269.518125 
L 277.565 269.518125 
L 277.565 0 
L 0 0 
z
" style="fill:none;"/>
  </g>
  <g id="axes_1">
   <g id="patch_2">
    <path d="M 250.68375 134.759062 
C 250.68375 120.482083 247.871496 106.343929 242.407933 93.15372 
C 236.944369 79.963511 228.935748 67.977762 218.840399 57.882413 
C 208.74505 47.787064 196.759302 39.778443 183.569093 34.31488 
C 170.378884 28.851316 156.24073 26.039062 141.96375 26.039062 
C 127.68677 26.039062 113.548616 28.851316 100.358407 34.31488 
C 87.168198 39.778443 75.18245 47.787064 65.087101 57.882413 
C 54.991752 67.977762 46.983131 79.963511 41.519567 93.15372 
C 36.056004 106.343929 33.24375 120.482083 33.24375 134.759062 
C 33.24375 149.036042 36.056004 163.174196 41.519567 176.364405 
C 46.983131 189.554614 54.991752 201.540363 65.087101 211.635712 
C 75.18245 221.731061 87.168198 229.739682 100.358407 235.203245 
C 113.548616 240.666809 127.68677 243.479062 141.96375 243.479062 
C 156.24073 243.479062 170.378884 240.666809 183.569093 235.203245 
C 196.759302 229.739682 208.74505 221.731061 218.840399 211.635712 
C 228.935748 201.540363 236.944369 189.554614 242.407933 176.364405 
C 247.871496 163.174196 250.68375 149.036042 250.68375 134.759063 
M 141.96375 134.759062 
C 141.96375 134.759062 141.96375 134.759062 141.96375 134.759062 
C 141.96375 134.759062 141.96375 134.759062 141.96375 134.759062 
C 141.96375 134.759062 141.96375 134.759062 141.96375 134.759062 
C 141.96375 134.759062 141.96375 134.759062 141.96375 134.759062 
C 141.96375 134.759062 141.96375 134.759062 141.96375 134.759062 
C 141.96375 134.759062 141.96375 134.759062 141.96375 134.759062 
C 141.96375 134.759062 141.96375 134.759062 141.96375 134.759062 
C 141.96375 134.759062 141.96375 134.759062 141.96375 134.759062 
C 141.96375 134.759062 141.96375 134.759062 141.96375 134.759062 
C 141.96375 134.759062 141.96375 134.759062 141.96375 134.759062 
C 141.96375 134.759062 141.96375 134.759062 141.96375 134.759062 
C 141.96375 134.759062 141.96375 134.759062 141.96375 134.759062 
C 141.96375 134.759062 141.96375 134.759062 141.96375 134.759062 
C 141.96375 134.759062 141.96375 134.759062 141.96375 134.759062 
C 141.96375 134.759062 141.96375 134.759062 141.96375 134.759062 
C 141.96375 134.759062 141.96375 134.759062 141.96375 134.759062 
M 250.68375 134.759062 
z
" style="fill:#ffffff;"/>
   </g>
   <g id="matplotlib.axis_1">
    <g id="xtick_1">
     <g id="line2d_1">
      <path clip-path="url(#p3c58869d67)" d="M 141.96375 134.759062 
L 250.68375 134.759062 
" style="fill:none;stroke:#b0b0b0;stroke-linecap:square;stroke-width:0.8;"/>
     </g>
     <g id="text_1">
      <!-- 0° -->
      <g transform="translate(259.0025 137.518438)scale(0.1 -0.1)">
       <defs>
        <path d="M 31.78125 66.40625 
Q 24.171875 66.40625 20.328125 58.90625 
Q 16.5 51.421875 16.5 36.375 
Q 16.5 21.390625 20.328125 13.890625 
Q 24.171875 6.390625 31.78125 6.390625 
Q 39.453125 6.390625 43.28125 13.890625 
Q 47.125 21.390625 47.125 36.375 
Q 47.125 51.421875 43.28125 58.90625 
Q 39.453125 66.40625 31.78125 66.40625 
z
M 31.78125 74.21875 
Q 44.046875 74.21875 50.515625 64.515625 
Q 56.984375 54.828125 56.984375 36.375 
Q 56.984375 17.96875 50.515625 8.265625 
Q 44.046875 -1.421875 31.78125 -1.421875 
Q 19.53125 -1.421875 13.0625 8.265625 
Q 6.59375 17.96875 6.59375 36.375 
Q 6.59375 54.828125 13.0625 64.515625 
Q 19.53125 74.21875 31.78125 74.21875 
z
" id="DejaVuSans-48"/>
        <path d="M 25 67.921875 
Q 21.09375 67.921875 18.40625 65.203125 
Q 15.71875 62.5 15.71875 58.59375 
Q 15.71875 54.734375 18.40625 52.078125 
Q 21.09375 49.421875 25 49.421875 
Q 28.90625 49.421875 31.59375 52.078125 
Q 34.28125 54.734375 34.28125 58.59375 
Q 34.28125 62.453125 31.5625 65.1875 
Q 28.859375 67.921875 25 67.921875 
z
M 25 74.21875 
Q 28.125 74.21875 31 73.015625 
Q 33.890625 71.828125 35.984375 69.578125 
Q 38.234375 67.390625 39.359375 64.59375 
Q 40.484375 61.8125 40.484375 58.59375 
Q 40.484375 52.15625 35.96875 47.6875 
Q 31.453125 43.21875 24.90625 43.21875 
Q 18.3125 43.21875 13.90625 47.609375 
Q 9.515625 52 9.515625 58.59375 
Q 9.515625 65.140625 14 69.671875 
Q 18.5 74.21875 25 74.21875 
z
" id="DejaVuSans-176"/>
       </defs>
       <use xlink:href="#DejaVuSans-48"/>
       <use x="63.623047" xlink:href="#DejaVuSans-176"/>
      </g>
     </g>
    </g>
    <g id="xtick_2">
     <g id="line2d_2">
      <path clip-path="url(#p3c58869d67)" d="M 141.96375 134.759062 
L 218.840399 57.882413 
" style="fill:none;stroke:#b0b0b0;stroke-linecap:square;stroke-width:0.8;"/>
     </g>
     <g id="text_2">
      <!-- 45° -->
      <g transform="translate(219.877394 50.742293)scale(0.1 -0.1)">
       <defs>
        <path d="M 37.796875 64.3125 
L 12.890625 25.390625 
L 37.796875 25.390625 
z
M 35.203125 72.90625 
L 47.609375 72.90625 
L 47.609375 25.390625 
L 58.015625 25.390625 
L 58.015625 17.1875 
L 47.609375 17.1875 
L 47.609375 0 
L 37.796875 0 
L 37.796875 17.1875 
L 4.890625 17.1875 
L 4.890625 26.703125 
z
" id="DejaVuSans-52"/>
        <path d="M 10.796875 72.90625 
L 49.515625 72.90625 
L 49.515625 64.59375 
L 19.828125 64.59375 
L 19.828125 46.734375 
Q 21.96875 47.46875 24.109375 47.828125 
Q 26.265625 48.1875 28.421875 48.1875 
Q 40.625 48.1875 47.75 41.5 
Q 54.890625 34.8125 54.890625 23.390625 
Q 54.890625 11.625 47.5625 5.09375 
Q 40.234375 -1.421875 26.90625 -1.421875 
Q 22.3125 -1.421875 17.546875 -0.640625 
Q 12.796875 0.140625 7.71875 1.703125 
L 7.71875 11.625 
Q 12.109375 9.234375 16.796875 8.0625 
Q 21.484375 6.890625 26.703125 6.890625 
Q 35.15625 6.890625 40.078125 11.328125 
Q 45.015625 15.765625 45.015625 23.390625 
Q 45.015625 31 40.078125 35.4375 
Q 35.15625 39.890625 26.703125 39.890625 
Q 22.75 39.890625 18.8125 39.015625 
Q 14.890625 38.140625 10.796875 36.28125 
z
" id="DejaVuSans-53"/>
       </defs>
       <use xlink:href="#DejaVuSans-52"/>
       <use x="63.623047" xlink:href="#DejaVuSans-53"/>
       <use x="127.246094" xlink:href="#DejaVuSans-176"/>
      </g>
     </g>
    </g>
    <g id="xtick_3">
     <g id="line2d_3">
      <path clip-path="url(#p3c58869d67)" d="M 141.96375 134.759062 
L 141.96375 26.039062 
" style="fill:none;stroke:#b0b0b0;stroke-linecap:square;stroke-width:0.8;"/>
     </g>
     <g id="text_3">
      <!-- 90° -->
      <g transform="translate(133.10125 14.798438)scale(0.1 -0.1)">
       <defs>
        <path d="M 10.984375 1.515625 
L 10.984375 10.5 
Q 14.703125 8.734375 18.5 7.8125 
Q 22.3125 6.890625 25.984375 6.890625 
Q 35.75 6.890625 40.890625 13.453125 
Q 46.046875 20.015625 46.78125 33.40625 
Q 43.953125 29.203125 39.59375 26.953125 
Q 35.25 24.703125 29.984375 24.703125 
Q 19.046875 24.703125 12.671875 31.3125 
Q 6.296875 37.9375 6.296875 49.421875 
Q 6.296875 60.640625 12.9375 67.421875 
Q 19.578125 74.21875 30.609375 74.21875 
Q 43.265625 74.21875 49.921875 64.515625 
Q 56.59375 54.828125 56.59375 36.375 
Q 56.59375 19.140625 48.40625 8.859375 
Q 40.234375 -1.421875 26.421875 -1.421875 
Q 22.703125 -1.421875 18.890625 -0.6875 
Q 15.09375 0.046875 10.984375 1.515625 
z
M 30.609375 32.421875 
Q 37.25 32.421875 41.125 36.953125 
Q 45.015625 41.5 45.015625 49.421875 
Q 45.015625 57.28125 41.125 61.84375 
Q 37.25 66.40625 30.609375 66.40625 
Q 23.96875 66.40625 20.09375 61.84375 
Q 16.21875 57.28125 16.21875 49.421875 
Q 16.21875 41.5 20.09375 36.953125 
Q 23.96875 32.421875 30.609375 32.421875 
z
" id="DejaVuSans-57"/>
       </defs>
       <use xlink:href="#DejaVuSans-57"/>
       <use x="63.623047" xlink:href="#DejaVuSans-48"/>
       <use x="127.246094" xlink:href="#DejaVuSans-176"/>
      </g>
     </g>
    </g>
    <g id="xtick_4">
     <g id="line2d_4">
      <path clip-path="url(#p3c58869d67)" d="M 141.96375 134.759062 
L 65.087101 57.882413 
" style="fill:none;stroke:#b0b0b0;stroke-linecap:square;stroke-width:0.8;"/>
     </g>
     <g id="text_4">
      <!-- 135° -->
      <g transform="translate(43.143856 50.742293)scale(0.1 -0.1)">
       <defs>
        <path d="M 12.40625 8.296875 
L 28.515625 8.296875 
L 28.515625 63.921875 
L 10.984375 60.40625 
L 10.984375 69.390625 
L 28.421875 72.90625 
L 38.28125 72.90625 
L 38.28125 8.296875 
L 54.390625 8.296875 
L 54.390625 0 
L 12.40625 0 
z
" id="DejaVuSans-49"/>
        <path d="M 40.578125 39.3125 
Q 47.65625 37.796875 51.625 33 
Q 55.609375 28.21875 55.609375 21.1875 
Q 55.609375 10.40625 48.1875 4.484375 
Q 40.765625 -1.421875 27.09375 -1.421875 
Q 22.515625 -1.421875 17.65625 -0.515625 
Q 12.796875 0.390625 7.625 2.203125 
L 7.625 11.71875 
Q 11.71875 9.328125 16.59375 8.109375 
Q 21.484375 6.890625 26.8125 6.890625 
Q 36.078125 6.890625 40.9375 10.546875 
Q 45.796875 14.203125 45.796875 21.1875 
Q 45.796875 27.640625 41.28125 31.265625 
Q 36.765625 34.90625 28.71875 34.90625 
L 20.21875 34.90625 
L 20.21875 43.015625 
L 29.109375 43.015625 
Q 36.375 43.015625 40.234375 45.921875 
Q 44.09375 48.828125 44.09375 54.296875 
Q 44.09375 59.90625 40.109375 62.90625 
Q 36.140625 65.921875 28.71875 65.921875 
Q 24.65625 65.921875 20.015625 65.03125 
Q 15.375 64.15625 9.8125 62.3125 
L 9.8125 71.09375 
Q 15.4375 72.65625 20.34375 73.4375 
Q 25.25 74.21875 29.59375 74.21875 
Q 40.828125 74.21875 47.359375 69.109375 
Q 53.90625 64.015625 53.90625 55.328125 
Q 53.90625 49.265625 50.4375 45.09375 
Q 46.96875 40.921875 40.578125 39.3125 
z
" id="DejaVuSans-51"/>
       </defs>
       <use xlink:href="#DejaVuSans-49"/>
       <use x="63.623047" xlink:href="#DejaVuSans-51"/>
       <use x="127.246094" xlink:href="#DejaVuSans-53"/>
       <use x="190.869141" xlink:href="#DejaVuSans-176"/>
      </g>
     </g>
    </g>
    <g id="xtick_5">
     <g id="line2d_5">
      <path clip-path="url(#p3c58869d67)" d="M 141.96375 134.759062 
L 33.24375 134.759062 
" style="fill:none;stroke:#b0b0b0;stroke-linecap:square;stroke-width:0.8;"/>
     </g>
     <g id="text_5">
      <!-- 180° -->
      <g transform="translate(7.2 137.518438)scale(0.1 -0.1)">
       <defs>
        <path d="M 31.78125 34.625 
Q 24.75 34.625 20.71875 30.859375 
Q 16.703125 27.09375 16.703125 20.515625 
Q 16.703125 13.921875 20.71875 10.15625 
Q 24.75 6.390625 31.78125 6.390625 
Q 38.8125 6.390625 42.859375 10.171875 
Q 46.921875 13.96875 46.921875 20.515625 
Q 46.921875 27.09375 42.890625 30.859375 
Q 38.875 34.625 31.78125 34.625 
z
M 21.921875 38.8125 
Q 15.578125 40.375 12.03125 44.71875 
Q 8.5 49.078125 8.5 55.328125 
Q 8.5 64.0625 14.71875 69.140625 
Q 20.953125 74.21875 31.78125 74.21875 
Q 42.671875 74.21875 48.875 69.140625 
Q 55.078125 64.0625 55.078125 55.328125 
Q 55.078125 49.078125 51.53125 44.71875 
Q 48 40.375 41.703125 38.8125 
Q 48.828125 37.15625 52.796875 32.3125 
Q 56.78125 27.484375 56.78125 20.515625 
Q 56.78125 9.90625 50.3125 4.234375 
Q 43.84375 -1.421875 31.78125 -1.421875 
Q 19.734375 -1.421875 13.25 4.234375 
Q 6.78125 9.90625 6.78125 20.515625 
Q 6.78125 27.484375 10.78125 32.3125 
Q 14.796875 37.15625 21.921875 38.8125 
z
M 18.3125 54.390625 
Q 18.3125 48.734375 21.84375 45.5625 
Q 25.390625 42.390625 31.78125 42.390625 
Q 38.140625 42.390625 41.71875 45.5625 
Q 45.3125 48.734375 45.3125 54.390625 
Q 45.3125 60.0625 41.71875 63.234375 
Q 38.140625 66.40625 31.78125 66.40625 
Q 25.390625 66.40625 21.84375 63.234375 
Q 18.3125 60.0625 18.3125 54.390625 
z
" id="DejaVuSans-56"/>
       </defs>
       <use xlink:href="#DejaVuSans-49"/>
       <use x="63.623047" xlink:href="#DejaVuSans-56"/>
       <use x="127.246094" xlink:href="#DejaVuSans-48"/>
       <use x="190.869141" xlink:href="#DejaVuSans-176"/>
      </g>
     </g>
    </g>
    <g id="xtick_6">
     <g id="line2d_6">
      <path clip-path="url(#p3c58869d67)" d="M 141.96375 134.759062 
L 65.087101 211.635712 
" style="fill:none;stroke:#b0b0b0;stroke-linecap:square;stroke-width:0.8;"/>
     </g>
     <g id="text_6">
      <!-- 225° -->
      <g transform="translate(43.143856 224.294582)scale(0.1 -0.1)">
       <defs>
        <path d="M 19.1875 8.296875 
L 53.609375 8.296875 
L 53.609375 0 
L 7.328125 0 
L 7.328125 8.296875 
Q 12.9375 14.109375 22.625 23.890625 
Q 32.328125 33.6875 34.8125 36.53125 
Q 39.546875 41.84375 41.421875 45.53125 
Q 43.3125 49.21875 43.3125 52.78125 
Q 43.3125 58.59375 39.234375 62.25 
Q 35.15625 65.921875 28.609375 65.921875 
Q 23.96875 65.921875 18.8125 64.3125 
Q 13.671875 62.703125 7.8125 59.421875 
L 7.8125 69.390625 
Q 13.765625 71.78125 18.9375 73 
Q 24.125 74.21875 28.421875 74.21875 
Q 39.75 74.21875 46.484375 68.546875 
Q 53.21875 62.890625 53.21875 53.421875 
Q 53.21875 48.921875 51.53125 44.890625 
Q 49.859375 40.875 45.40625 35.40625 
Q 44.1875 33.984375 37.640625 27.21875 
Q 31.109375 20.453125 19.1875 8.296875 
z
" id="DejaVuSans-50"/>
       </defs>
       <use xlink:href="#DejaVuSans-50"/>
       <use x="63.623047" xlink:href="#DejaVuSans-50"/>
       <use x="127.246094" xlink:href="#DejaVuSans-53"/>
       <use x="190.869141" xlink:href="#DejaVuSans-176"/>
      </g>
     </g>
    </g>
    <g id="xtick_7">
     <g id="line2d_7">
      <path clip-path="url(#p3c58869d67)" d="M 141.96375 134.759062 
L 141.96375 243.479062 
" style="fill:none;stroke:#b0b0b0;stroke-linecap:square;stroke-width:0.8;"/>
     </g>
     <g id="text_7">
      <!-- 270° -->
      <g transform="translate(129.92 260.238437)scale(0.1 -0.1)">
       <defs>
        <path d="M 8.203125 72.90625 
L 55.078125 72.90625 
L 55.078125 68.703125 
L 28.609375 0 
L 18.3125 0 
L 43.21875 64.59375 
L 8.203125 64.59375 
z
" id="DejaVuSans-55"/>
       </defs>
       <use xlink:href="#DejaVuSans-50"/>
       <use x="63.623047" xlink:href="#DejaVuSans-55"/>
       <use x="127.246094" xlink:href="#DejaVuSans-48"/>
       <use x="190.869141" xlink:href="#DejaVuSans-176"/>
      </g>
     </g>
    </g>
    <g id="xtick_8">
     <g id="line2d_8">
      <path clip-path="url(#p3c58869d67)" d="M 141.96375 134.759062 
L 218.840399 211.635712 
" style="fill:none;stroke:#b0b0b0;stroke-linecap:square;stroke-width:0.8;"/>
     </g>
     <g id="text_8">
      <!-- 315° -->
      <g transform="translate(216.696144 224.294582)scale(0.1 -0.1)">
       <use xlink:href="#DejaVuSans-51"/>
       <use x="63.623047" xlink:href="#DejaVuSans-49"/>
       <use x="127.246094" xlink:href="#DejaVuSans-53"/>
       <use x="190.869141" xlink:href="#DejaVuSans-176"/>
      </g>
     </g>
    </g>
   </g>
   <g id="matplotlib.axis_2">
    <g id="ytick_1">
     <g id="line2d_9">
      <path clip-path="url(#p3c58869d67)" d="M 162.528446 134.759062 
C 162.528446 132.058531 161.9965 129.384259 160.963052 126.889294 
C 159.929603 124.394329 158.41475 122.12719 156.505186 120.217626 
C 154.595622 118.308063 152.328484 116.793209 149.833518 115.759761 
C 147.338553 114.726312 144.664281 114.194366 141.96375 114.194366 
C 139.263219 114.194366 136.588947 114.726312 134.093982 115.759761 
C 131.599016 116.793209 129.331878 118.308063 127.422314 120.217626 
C 125.51275 122.12719 123.997897 124.394329 122.964448 126.889294 
C 121.931 129.384259 121.399054 132.058531 121.399054 134.759062 
C 121.399054 137.459594 121.931 140.133866 122.964448 142.628831 
C 123.997897 145.123796 125.51275 147.390935 127.422314 149.300499 
C 129.331878 151.210062 131.599016 152.724916 134.093982 153.758364 
C 136.588947 154.791813 139.263219 155.323759 141.96375 155.323759 
C 144.664281 155.323759 147.338553 154.791813 149.833518 153.758364 
C 152.328484 152.724916 154.595622 151.210062 156.505186 149.300499 
C 158.41475 147.390935 159.929603 145.123796 160.963052 142.628831 
C 161.9965 140.133866 162.528446 137.459594 162.528446 134.759062 
" style="fill:none;stroke:#b0b0b0;stroke-linecap:square;stroke-width:0.8;"/>
     </g>
     <g id="text_9">
      <!-- 100 -->
      <g transform="translate(160.963052 124.809607)scale(0.1 -0.1)">
       <use xlink:href="#DejaVuSans-49"/>
       <use x="63.623047" xlink:href="#DejaVuSans-48"/>
       <use x="127.246094" xlink:href="#DejaVuSans-48"/>
      </g>
     </g>
    </g>
    <g id="ytick_2">
     <g id="line2d_10">
      <path clip-path="url(#p3c58869d67)" d="M 183.093142 134.759062 
C 183.093142 129.358 182.029251 124.009456 179.962353 119.019526 
C 177.895456 114.029595 174.86575 109.495318 171.046622 105.67619 
C 167.227494 101.857063 162.693218 98.827356 157.703287 96.760459 
C 152.713356 94.693562 147.364812 93.62967 141.96375 93.62967 
C 136.562688 93.62967 131.214144 94.693562 126.224213 96.760459 
C 121.234282 98.827356 116.700006 101.857063 112.880878 105.67619 
C 109.06175 109.495318 106.032044 114.029595 103.965147 119.019526 
C 101.898249 124.009456 100.834358 129.358 100.834358 134.759062 
C 100.834358 140.160125 101.898249 145.508669 103.965147 150.498599 
C 106.032044 155.48853 109.06175 160.022807 112.880878 163.841935 
C 116.700006 167.661062 121.234282 170.690769 126.224213 172.757666 
C 131.214144 174.824563 136.562688 175.888455 141.96375 175.888455 
C 147.364812 175.888455 152.713356 174.824563 157.703287 172.757666 
C 162.693218 170.690769 167.227494 167.661062 171.046622 163.841935 
C 174.86575 160.022807 177.895456 155.48853 179.962353 150.498599 
C 182.029251 145.508669 183.093142 140.160125 183.093142 134.759062 
" style="fill:none;stroke:#b0b0b0;stroke-linecap:square;stroke-width:0.8;"/>
     </g>
     <g id="text_10">
      <!-- 200 -->
      <g transform="translate(179.962353 116.939838)scale(0.1 -0.1)">
       <use xlink:href="#DejaVuSans-50"/>
       <use x="63.623047" xlink:href="#DejaVuSans-48"/>
       <use x="127.246094" xlink:href="#DejaVuSans-48"/>
      </g>
     </g>
    </g>
    <g id="ytick_3">
     <g id="line2d_11">
      <path clip-path="url(#p3c58869d67)" d="M 203.657838 134.759062 
C 203.657838 126.657469 202.062001 118.634653 198.961655 111.149757 
C 195.86131 103.664861 191.31675 96.863446 185.588058 91.134754 
C 179.859366 85.406063 173.057952 80.861503 165.573055 77.761157 
C 158.088159 74.660812 150.065343 73.064974 141.96375 73.064974 
C 133.862157 73.064974 125.839341 74.660812 118.354445 77.761157 
C 110.869548 80.861503 104.068134 85.406063 98.339442 91.134754 
C 92.61075 96.863446 88.06619 103.664861 84.965845 111.149757 
C 81.865499 118.634653 80.269662 126.657469 80.269662 134.759062 
C 80.269662 142.860656 81.865499 150.883472 84.965845 158.368368 
C 88.06619 165.853264 92.61075 172.654679 98.339442 178.383371 
C 104.068134 184.112062 110.869548 188.656622 118.354445 191.756968 
C 125.839341 194.857313 133.862157 196.453151 141.96375 196.453151 
C 150.065343 196.453151 158.088159 194.857313 165.573055 191.756968 
C 173.057952 188.656622 179.859366 184.112062 185.588058 178.383371 
C 191.31675 172.654679 195.86131 165.853264 198.961655 158.368368 
C 202.062001 150.883472 203.657838 142.860656 203.657838 134.759063 
" style="fill:none;stroke:#b0b0b0;stroke-linecap:square;stroke-width:0.8;"/>
     </g>
     <g id="text_11">
      <!-- 300 -->
      <g transform="translate(198.961655 109.07007)scale(0.1 -0.1)">
       <use xlink:href="#DejaVuSans-51"/>
       <use x="63.623047" xlink:href="#DejaVuSans-48"/>
       <use x="127.246094" xlink:href="#DejaVuSans-48"/>
      </g>
     </g>
    </g>
    <g id="ytick_4">
     <g id="line2d_12">
      <path clip-path="url(#p3c58869d67)" d="M 224.222534 134.759062 
C 224.222534 123.956938 222.094751 113.25985 217.960957 103.279989 
C 213.827163 93.300127 207.76775 84.231574 200.129494 76.593318 
C 192.491238 68.955063 183.422686 62.89565 173.442824 58.761856 
C 163.462962 54.628061 152.765875 52.500278 141.96375 52.500278 
C 131.161625 52.500278 120.464538 54.628061 110.484676 58.761856 
C 100.504814 62.89565 91.436262 68.955063 83.798006 76.593318 
C 76.15975 84.231574 70.100337 93.300127 65.966543 103.279989 
C 61.832749 113.25985 59.704966 123.956938 59.704966 134.759062 
C 59.704966 145.561187 61.832749 156.258275 65.966543 166.238136 
C 70.100337 176.217998 76.15975 185.286551 83.798006 192.924807 
C 91.436262 200.563062 100.504814 206.622475 110.484676 210.756269 
C 120.464538 214.890064 131.161625 217.017847 141.96375 217.017847 
C 152.765875 217.017847 163.462962 214.890064 173.442824 210.756269 
C 183.422686 206.622475 192.491238 200.563062 200.129494 192.924807 
C 207.76775 185.286551 213.827163 176.217998 217.960957 166.238136 
C 222.094751 156.258275 224.222534 145.561187 224.222534 134.759063 
" style="fill:none;stroke:#b0b0b0;stroke-linecap:square;stroke-width:0.8;"/>
     </g>
     <g id="text_12">
      <!-- 400 -->
      <g transform="translate(217.960957 101.200301)scale(0.1 -0.1)">
       <use xlink:href="#DejaVuSans-52"/>
       <use x="63.623047" xlink:href="#DejaVuSans-48"/>
       <use x="127.246094" xlink:href="#DejaVuSans-48"/>
      </g>
     </g>
    </g>
    <g id="ytick_5">
     <g id="line2d_13">
      <path clip-path="url(#p3c58869d67)" d="M 244.78723 134.759062 
C 244.78723 121.256407 242.127501 107.885047 236.960259 95.41022 
C 231.793016 82.935393 224.218749 71.599702 214.67093 62.051882 
C 205.123111 52.504063 193.78742 44.929796 181.312592 39.762554 
C 168.837765 34.595311 155.466406 31.935582 141.96375 31.935582 
C 128.461094 31.935582 115.089735 34.595311 102.614908 39.762554 
C 90.14008 44.929796 78.804389 52.504063 69.25657 62.051882 
C 59.708751 71.599702 52.134484 82.935393 46.967241 95.41022 
C 41.799999 107.885047 39.14027 121.256407 39.14027 134.759062 
C 39.14027 148.261718 41.799999 161.633078 46.967241 174.107905 
C 52.134484 186.582732 59.708751 197.918423 69.25657 207.466243 
C 78.804389 217.014062 90.14008 224.588329 102.614908 229.755571 
C 115.089735 234.922814 128.461094 237.582543 141.96375 237.582543 
C 155.466406 237.582543 168.837765 234.922814 181.312592 229.755571 
C 193.78742 224.588329 205.123111 217.014062 214.67093 207.466243 
C 224.218749 197.918423 231.793016 186.582732 236.960259 174.107905 
C 242.127501 161.633078 244.78723 148.261718 244.78723 134.759063 
" style="fill:none;stroke:#b0b0b0;stroke-linecap:square;stroke-width:0.8;"/>
     </g>
     <g id="text_13">
      <!-- 500 -->
      <g transform="translate(236.960259 93.330533)scale(0.1 -0.1)">
       <use xlink:href="#DejaVuSans-53"/>
       <use x="63.623047" xlink:href="#DejaVuSans-48"/>
       <use x="127.246094" xlink:href="#DejaVuSans-48"/>
      </g>
     </g>
    </g>
   </g>
   <g id="line2d_14">
    <path clip-path="url(#p3c58869d67)" d="M 142.169397 134.759062 
L 142.077398 134.561215 
L 141.849418 134.534786 
L 141.690775 134.715911 
L 141.74104 134.963155 
L 141.974239 135.087858 
L 142.233073 134.993248 
L 142.34858 134.732177 
L 142.246173 134.454066 
L 141.971821 134.312349 
L 141.660411 134.388308 
L 141.462295 134.654055 
L 141.470893 134.995375 
L 141.690324 135.272874 
L 142.041967 135.372728 
L 142.398346 135.250852 
L 142.633734 134.943727 
L 142.667552 134.5488 
L 142.483027 134.183221 
L 142.130827 133.959324 
L 141.702025 133.940095 
L 141.307985 134.137322 
L 141.049179 134.507293 
L 140.990851 134.965348 
L 141.153634 135.414471 
L 141.507329 135.749412 
L 141.980042 135.898665 
L 142.486016 135.828842 
L 142.922093 135.548946 
L 143.212198 135.102322 
L 143.298753 134.570756 
L 143.16545 134.034977 
L 142.826449 133.582344 
L 142.328675 133.287156 
L 141.75344 133.199019 
L 141.174044 133.329686 
L 140.670583 133.666328 
L 140.312017 134.168438 
L 140.14746 134.774471 
L 140.200766 135.410791 
L 140.468826 136.001494 
L 140.923394 136.477698 
L 141.515819 136.785197 
L 142.197293 136.889597 
L 142.885343 136.770377 
L 143.509158 136.438548 
L 144.006822 135.926253 
L 144.330984 135.282013 
L 144.452708 134.548988 
L 144.35265 133.806173 
L 144.040525 133.118463 
L 143.53094 132.531698 
L 142.872313 132.109728 
L 142.118781 131.884705 
L 141.310616 131.873626 
L 140.526156 132.081982 
L 139.806783 132.503295 
L 139.222297 133.101321 
L 138.803245 133.850438 
L 138.591091 134.683814 
L 138.598466 135.565961 
L 138.827813 136.41839 
L 139.272906 137.20636 
L 139.89754 137.860453 
L 140.680992 138.355315 
L 141.558513 138.64754 
L 142.502307 138.725747 
L 143.435279 138.581933 
L 144.330384 138.218754 
L 145.115894 137.664139 
L 145.771518 136.931236 
L 146.256802 136.050444 
L 146.533571 135.089871 
L 146.595442 134.070087 
L 146.437708 133.06831 
L 146.063318 132.102537 
L 145.480468 131.21962 
L 144.732694 130.484538 
L 143.831279 129.907429 
L 142.809593 129.520404 
L 141.74186 129.350388 
L 140.63996 129.397995 
L 139.548249 129.670089 
L 138.543527 130.14577 
L 137.632481 130.819813 
L 136.854271 131.673773 
L 136.261147 132.646886 
L 135.85335 133.734016 
L 135.652797 134.899868 
L 135.674682 136.104935 
L 135.914544 137.267231 
L 136.369201 138.386835 
L 137.031063 139.424054 
L 137.88521 140.340543 
L 138.871759 141.077408 
L 139.991396 141.639928 
L 141.213314 142.00407 
L 142.502372 142.151247 
L 143.772951 142.076062 
L 145.033593 141.782528 
L 146.246784 141.271842 
L 147.375124 140.551642 
L 148.347692 139.673188 
L 149.177747 138.631523 
L 149.837911 137.449754 
L 150.304555 136.155575 
L 150.558558 134.780666 
L 150.589238 133.414996 
L 150.403007 132.040122 
L 149.997714 130.690481 
L 149.376674 129.400965 
L 148.548759 128.206045 
L 147.572625 127.17873 
L 146.436384 126.296656 
L 145.161622 125.584751 
L 143.773801 125.06474 
L 142.301786 124.75454 
L 140.777278 124.66773 
L 139.29837 124.802345 
L 137.833453 125.153547 
L 136.414225 125.720122 
L 135.072328 126.496223 
L 133.838669 127.471355 
L 132.742744 128.630469 
L 131.848649 129.893478 
L 131.127325 131.286589 
L 130.597658 132.786198 
L 130.275314 134.365968 
L 130.172344 135.997266 
L 130.296848 137.649655 
L 130.652709 139.291444 
L 131.207775 140.818986 
L 131.968887 142.279169 
L 132.927958 143.644232 
L 134.07317 144.887374 
L 135.389078 145.98325 
L 136.856791 146.908466 
L 138.454219 147.642043 
L 140.073344 148.145902 
L 141.763763 148.446556 
L 143.500009 148.534034 
L 145.255233 148.401552 
L 147.001607 148.045704 
L 148.710741 147.466601 
L 150.354131 146.667955 
L 151.903617 145.657114 
L 153.263719 144.510208 
L 154.491967 143.193997 
L 155.567337 141.723579 
L 156.470527 140.116656 
L 157.184276 138.393342 
L 157.69367 136.575921 
L 157.986406 134.688584 
L 158.053042 132.757114 
L 157.8872 130.808557 
L 157.512744 128.972105 
L 156.926881 127.169577 
L 156.132466 125.425264 
L 155.135143 123.76325 
L 153.943331 122.207089 
L 152.568179 120.77949 
L 151.02348 119.501994 
L 149.325553 118.394675 
L 147.493085 117.475839 
L 145.546945 116.761748 
L 143.625095 116.287936 
L 141.642824 116.018906 
L 139.621903 115.962165 
L 137.58502 116.122913 
L 135.555533 116.503931 
L 133.557212 117.105493 
L 131.613976 117.925317 
L 129.74961 118.958531 
L 127.987494 120.197676 
L 126.350315 121.632737 
L 124.859795 123.251206 
L 123.609282 124.928692 
L 122.522692 126.741177 
L 121.614515 128.672706 
L 120.897694 130.705777 
L 120.383462 132.821488 
L 120.08119 134.999708 
L 119.998254 137.219254 
L 120.13992 139.458094 
L 120.509246 141.693555 
L 121.107005 143.902539 
L 121.931634 146.061759 
L 122.979201 148.147973 
L 124.158192 150.01707 
L 125.52052 151.783315 
L 127.057312 153.428786 
L 128.75795 154.93632 
L 130.610131 156.289674 
L 132.59995 157.473697 
L 134.711996 158.474485 
L 136.929458 159.279528 
L 139.234257 159.877854 
L 141.607184 160.260153 
L 144.028048 160.418895 
L 146.475846 160.348432 
L 148.928937 160.045082 
L 151.365221 159.507203 
L 153.762335 158.735242 
L 155.944515 157.805792 
L 158.054899 156.678433 
L 160.075597 155.358567 
L 161.989115 153.85321 
L 163.778492 152.170962 
L 165.42745 150.321968 
L 166.920528 148.317864 
L 168.243223 146.171715 
L 169.382122 143.897932 
L 170.325019 141.512186 
L 171.061042 139.031305 
L 171.580757 136.473164 
L 171.876267 133.856558 
L 171.941303 131.201076 
L 171.771303 128.526955 
L 171.363475 125.854937 
L 170.77095 123.394088 
L 169.973171 120.970269 
L 168.972209 118.600538 
L 167.771544 116.301868 
L 166.376072 114.091025 
L 164.792091 111.984452 
L 163.02728 109.998153 
L 161.090672 108.147574 
L 158.992615 106.447496 
L 156.744721 104.911914 
L 154.359807 103.553938 
L 151.851832 102.385684 
L 149.235817 101.41818 
L 146.527761 100.661267 
L 143.744551 100.123521 
L 140.903856 99.812165 
L 138.024028 99.733008 
L 135.12398 99.890372 
L 132.223072 100.287048 
L 129.561567 100.86669 
L 126.931728 101.651022 
L 124.349239 102.638588 
L 121.829744 103.826737 
L 119.388758 105.211617 
L 117.041577 106.788178 
L 114.803183 108.550191 
L 112.688157 110.490256 
L 110.710584 112.599836 
L 108.883966 114.869282 
L 107.221136 117.287878 
L 105.734173 119.843884 
L 104.434321 122.524587 
L 103.331911 125.316363 
L 102.436288 128.204743 
L 101.755741 131.174477 
L 101.297442 134.209619 
L 101.067384 137.293604 
L 101.070332 140.409334 
L 101.309774 143.539271 
L 101.787884 146.665532 
L 102.505488 149.769985 
L 103.462041 152.834351 
L 104.547162 155.592491 
L 105.828931 158.287481 
L 107.303835 160.905364 
L 108.967373 163.432366 
L 110.814067 165.854963 
L 112.837475 168.159953 
L 115.030207 170.33452 
L 117.383948 172.366309 
L 119.889488 174.243485 
L 122.536754 175.954801 
L 125.314843 177.489661 
L 128.212069 178.838181 
L 131.216004 179.991244 
L 134.313534 180.940555 
L 137.490906 181.678698 
L 140.733792 182.199178 
L 144.027348 182.496466 
L 147.356279 182.566043 
L 150.704907 182.404432 
L 154.057244 182.009232 
L 157.397062 181.379143 
L 160.707971 180.513985 
L 163.973494 179.414722 
L 167.177148 178.083462 
L 170.302526 176.523475 
L 173.33337 174.739181 
L 175.993164 172.927118 
L 178.549775 170.939274 
L 180.991657 168.781421 
L 183.307578 166.460086 
L 185.486674 163.982532 
L 187.518489 161.356739 
L 189.393031 158.591384 
L 191.100811 155.695811 
L 192.632891 152.680002 
L 193.980926 149.554549 
L 195.137204 146.330614 
L 196.094687 143.019895 
L 196.847044 139.634584 
L 197.388689 136.187326 
L 197.714812 132.691172 
L 197.821405 129.159532 
L 197.705292 125.606127 
L 197.364149 122.044936 
L 196.796527 118.490146 
L 196.001867 114.956096 
L 194.980513 111.457219 
L 193.733723 108.00799 
L 192.263674 104.622866 
L 190.573467 101.316226 
L 188.667125 98.102315 
L 186.549587 94.995187 
L 184.226702 92.00864 
L 181.705215 89.156164 
L 178.992753 86.450877 
L 176.097804 83.905475 
L 173.029694 81.532169 
L 169.798561 79.342633 
L 166.760165 77.538347 
L 163.607032 75.899536 
L 160.348109 74.433387 
L 156.992785 73.146603 
L 153.550871 72.045384 
L 150.032566 71.135395 
L 146.448435 70.421745 
L 142.809373 69.908963 
L 139.126578 69.600975 
L 135.411516 69.501089 
L 131.675886 69.611973 
L 127.931587 69.93564 
L 124.190678 70.473436 
L 120.465345 71.226028 
L 116.767859 72.193389 
L 113.110539 73.374799 
L 109.505715 74.768832 
L 105.965681 76.373357 
L 102.502662 78.185533 
L 99.12877 80.201817 
L 95.855965 82.417959 
L 92.696011 84.829015 
L 89.66044 87.429351 
L 86.76051 90.212656 
L 84.007165 93.171954 
L 81.410995 96.299617 
L 78.982201 99.587387 
L 76.730555 103.02639 
L 74.665362 106.607164 
L 72.795429 110.319679 
L 71.129027 114.153364 
L 69.673858 118.097135 
L 68.437027 122.139428 
L 67.42501 126.268225 
L 66.643623 130.471095 
L 66.098003 134.735226 
L 65.792576 139.047462 
L 65.731039 143.394342 
L 65.91634 147.762142 
L 66.350655 152.136916 
L 66.946909 156.020041 
L 67.741479 159.887503 
L 68.734313 163.729229 
L 69.924848 167.535111 
L 71.31201 171.29503 
L 72.89421 174.998887 
L 74.669342 178.636624 
L 76.634784 182.198251 
L 78.787402 185.673874 
L 81.123547 189.053722 
L 83.639068 192.328169 
L 86.329308 195.487766 
L 89.189117 198.52326 
L 92.212859 201.425628 
L 95.394422 204.186096 
L 98.727225 206.796165 
L 102.204238 209.247638 
L 105.817987 211.532643 
L 109.560575 213.643655 
L 113.423693 215.57352 
L 117.398644 217.315478 
L 121.476353 218.863181 
L 125.647392 220.210719 
L 129.902002 221.352632 
L 134.230108 222.283935 
L 138.621348 223.000134 
L 143.065095 223.49724 
L 147.550479 223.771785 
L 152.066416 223.82084 
L 156.601633 223.642022 
L 161.144693 223.233509 
L 165.684026 222.594052 
L 170.207957 221.722979 
L 174.704729 220.620206 
L 179.162543 219.286242 
L 183.569577 217.722195 
L 187.914024 215.929774 
L 192.184117 213.911288 
L 196.368165 211.669652 
L 200.454576 209.208381 
L 204.431898 206.531589 
L 208.288839 203.643981 
L 212.014307 200.550855 
L 215.597432 197.258083 
L 219.027603 193.772112 
L 222.294495 190.099947 
L 225.388098 186.24914 
L 228.298744 182.227779 
L 231.017141 178.044468 
L 233.534394 173.708313 
L 235.842037 169.228903 
L 237.682967 165.199797 
L 239.3522 161.075714 
L 240.844961 156.863915 
L 242.156776 152.571896 
L 243.283488 148.207375 
L 244.221266 143.778283 
L 244.966619 139.292743 
L 245.5164 134.759063 
L 245.5164 134.759063 
" style="fill:none;stroke:#1f77b4;stroke-linecap:square;stroke-width:1.5;"/>
   </g>
   <g id="patch_3">
    <path d="M 250.68375 134.759062 
C 250.68375 120.482083 247.871496 106.343929 242.407933 93.15372 
C 236.944369 79.963511 228.935748 67.977762 218.840399 57.882413 
C 208.74505 47.787064 196.759302 39.778443 183.569093 34.31488 
C 170.378884 28.851316 156.24073 26.039062 141.96375 26.039062 
C 127.68677 26.039062 113.548616 28.851316 100.358407 34.31488 
C 87.168198 39.778443 75.18245 47.787064 65.087101 57.882413 
C 54.991752 67.977762 46.983131 79.963511 41.519567 93.15372 
C 36.056004 106.343929 33.24375 120.482083 33.24375 134.759062 
C 33.24375 149.036042 36.056004 163.174196 41.519567 176.364405 
C 46.983131 189.554614 54.991752 201.540363 65.087101 211.635712 
C 75.18245 221.731061 87.168198 229.739682 100.358407 235.203245 
C 113.548616 240.666809 127.68677 243.479062 141.96375 243.479062 
C 156.24073 243.479062 170.378884 240.666809 183.569093 235.203245 
C 196.759302 229.739682 208.74505 221.731061 218.840399 211.635712 
C 228.935748 201.540363 236.944369 189.554614 242.407933 176.364405 
C 247.871496 163.174196 250.68375 149.036042 250.68375 134.759063 
" style="fill:none;stroke:#000000;stroke-linecap:square;stroke-linejoin:miter;stroke-width:0.8;"/>
   </g>
  </g>
 </g>
 <defs>
  <clipPath id="p3c58869d67">
   <path d="M 250.68375 134.759062 
C 250.68375 120.482083 247.871496 106.343929 242.407933 93.15372 
C 236.944369 79.963511 228.935748 67.977762 218.840399 57.882413 
C 208.74505 47.787064 196.759302 39.778443 183.569093 34.31488 
C 170.378884 28.851316 156.24073 26.039062 141.96375 26.039062 
C 127.68677 26.039062 113.548616 28.851316 100.358407 34.31488 
C 87.168198 39.778443 75.18245 47.787064 65.087101 57.882413 
C 54.991752 67.977762 46.983131 79.963511 41.519567 93.15372 
C 36.056004 106.343929 33.24375 120.482083 33.24375 134.759062 
C 33.24375 149.036042 36.056004 163.174196 41.519567 176.364405 
C 46.983131 189.554614 54.991752 201.540363 65.087101 211.635712 
C 75.18245 221.731061 87.168198 229.739682 100.358407 235.203245 
C 113.548616 240.666809 127.68677 243.479062 141.96375 243.479062 
C 156.24073 243.479062 170.378884 240.666809 183.569093 235.203245 
C 196.759302 229.739682 208.74505 221.731061 218.840399 211.635712 
C 228.935748 201.540363 236.944369 189.554614 242.407933 176.364405 
C 247.871496 163.174196 250.68375 149.036042 250.68375 134.759063 
M 141.96375 134.759062 
C 141.96375 134.759062 141.96375 134.759062 141.96375 134.759062 
C 141.96375 134.759062 141.96375 134.759062 141.96375 134.759062 
C 141.96375 134.759062 141.96375 134.759062 141.96375 134.759062 
C 141.96375 134.759062 141.96375 134.759062 141.96375 134.759062 
C 141.96375 134.759062 141.96375 134.759062 141.96375 134.759062 
C 141.96375 134.759062 141.96375 134.759062 141.96375 134.759062 
C 141.96375 134.759062 141.96375 134.759062 141.96375 134.759062 
C 141.96375 134.759062 141.96375 134.759062 141.96375 134.759062 
C 141.96375 134.759062 141.96375 134.759062 141.96375 134.759062 
C 141.96375 134.759062 141.96375 134.759062 141.96375 134.759062 
C 141.96375 134.759062 141.96375 134.759062 141.96375 134.759062 
C 141.96375 134.759062 141.96375 134.759062 141.96375 134.759062 
C 141.96375 134.759062 141.96375 134.759062 141.96375 134.759062 
C 141.96375 134.759062 141.96375 134.759062 141.96375 134.759062 
C 141.96375 134.759062 141.96375 134.759062 141.96375 134.759062 
C 141.96375 134.759062 141.96375 134.759062 141.96375 134.759062 
M 250.68375 134.759062 
z
"/>
  </clipPath>
 </defs>
</svg>
