<?xml version="1.0" encoding="utf-8" standalone="no"?>
<!DOCTYPE svg PUBLIC "-//W3C//DTD SVG 1.1//EN"
  "http://www.w3.org/Graphics/SVG/1.1/DTD/svg11.dtd">
<!-- Created with matplotlib (https://matplotlib.org/) -->
<svg height="465.958125pt" version="1.1" viewBox="0 0 604.85 465.958125" width="604.85pt" xmlns="http://www.w3.org/2000/svg" xmlns:xlink="http://www.w3.org/1999/xlink">
 <metadata>
  <rdf:RDF xmlns:cc="http://creativecommons.org/ns#" xmlns:dc="http://purl.org/dc/elements/1.1/" xmlns:rdf="http://www.w3.org/1999/02/22-rdf-syntax-ns#">
   <cc:Work>
    <dc:type rdf:resource="http://purl.org/dc/dcmitype/StillImage"/>
    <dc:date>2021-01-13T19:14:06.640715</dc:date>
    <dc:format>image/svg+xml</dc:format>
    <dc:creator>
     <cc:Agent>
      <dc:title>Matplotlib v3.3.2, https://matplotlib.org/</dc:title>
     </cc:Agent>
    </dc:creator>
   </cc:Work>
  </rdf:RDF>
 </metadata>
 <defs>
  <style type="text/css">*{stroke-linecap:butt;stroke-linejoin:round;}</style>
 </defs>
 <g id="figure_1">
  <g id="patch_1">
   <path d="M 0 465.958125 
L 604.85 465.958125 
L 604.85 0 
L 0 0 
z
" style="fill:none;"/>
  </g>
  <g id="axes_1">
   <g id="patch_2">
    <path d="M 39.65 204.872727 
L 597.65 204.872727 
L 597.65 7.2 
L 39.65 7.2 
z
" style="fill:#ffffff;"/>
   </g>
   <g id="patch_3">
    <path clip-path="url(#p25a9f78085)" d="M 65.013636 204.872727 
L 70.086364 204.872727 
L 70.086364 26.043768 
L 65.013636 26.043768 
z
" style="fill:#1f77b4;"/>
   </g>
   <g id="patch_4">
    <path clip-path="url(#p25a9f78085)" d="M 70.086364 204.872727 
L 75.159091 204.872727 
L 75.159091 37.60982 
L 70.086364 37.60982 
z
" style="fill:#1f77b4;"/>
   </g>
   <g id="patch_5">
    <path clip-path="url(#p25a9f78085)" d="M 75.159091 204.872727 
L 80.231818 204.872727 
L 80.231818 22.662922 
L 75.159091 22.662922 
z
" style="fill:#1f77b4;"/>
   </g>
   <g id="patch_6">
    <path clip-path="url(#p25a9f78085)" d="M 80.231818 204.872727 
L 85.304545 204.872727 
L 85.304545 20.349712 
L 80.231818 20.349712 
z
" style="fill:#1f77b4;"/>
   </g>
   <g id="patch_7">
    <path clip-path="url(#p25a9f78085)" d="M 85.304545 204.872727 
L 90.377273 204.872727 
L 90.377273 23.0188 
L 85.304545 23.0188 
z
" style="fill:#1f77b4;"/>
   </g>
   <g id="patch_8">
    <path clip-path="url(#p25a9f78085)" d="M 90.377273 204.872727 
L 95.45 204.872727 
L 95.45 32.627521 
L 90.377273 32.627521 
z
" style="fill:#1f77b4;"/>
   </g>
   <g id="patch_9">
    <path clip-path="url(#p25a9f78085)" d="M 95.45 204.872727 
L 100.522727 204.872727 
L 100.522727 31.381946 
L 95.45 31.381946 
z
" style="fill:#1f77b4;"/>
   </g>
   <g id="patch_10">
    <path clip-path="url(#p25a9f78085)" d="M 100.522727 204.872727 
L 105.595455 204.872727 
L 105.595455 21.595286 
L 100.522727 21.595286 
z
" style="fill:#1f77b4;"/>
   </g>
   <g id="patch_11">
    <path clip-path="url(#p25a9f78085)" d="M 105.595455 204.872727 
L 110.668182 204.872727 
L 110.668182 27.467282 
L 105.595455 27.467282 
z
" style="fill:#1f77b4;"/>
   </g>
   <g id="patch_12">
    <path clip-path="url(#p25a9f78085)" d="M 110.668182 204.872727 
L 115.740909 204.872727 
L 115.740909 25.865829 
L 110.668182 25.865829 
z
" style="fill:#1f77b4;"/>
   </g>
   <g id="patch_13">
    <path clip-path="url(#p25a9f78085)" d="M 115.740909 204.872727 
L 120.813636 204.872727 
L 120.813636 27.823161 
L 115.740909 27.823161 
z
" style="fill:#1f77b4;"/>
   </g>
   <g id="patch_14">
    <path clip-path="url(#p25a9f78085)" d="M 120.813636 204.872727 
L 125.886364 204.872727 
L 125.886364 23.730558 
L 120.813636 23.730558 
z
" style="fill:#1f77b4;"/>
   </g>
   <g id="patch_15">
    <path clip-path="url(#p25a9f78085)" d="M 125.886364 204.872727 
L 130.959091 204.872727 
L 130.959091 25.50995 
L 125.886364 25.50995 
z
" style="fill:#1f77b4;"/>
   </g>
   <g id="patch_16">
    <path clip-path="url(#p25a9f78085)" d="M 130.959091 204.872727 
L 136.031818 204.872727 
L 136.031818 25.332011 
L 130.959091 25.332011 
z
" style="fill:#1f77b4;"/>
   </g>
   <g id="patch_17">
    <path clip-path="url(#p25a9f78085)" d="M 136.031818 204.872727 
L 141.104545 204.872727 
L 141.104545 22.662922 
L 136.031818 22.662922 
z
" style="fill:#1f77b4;"/>
   </g>
   <g id="patch_18">
    <path clip-path="url(#p25a9f78085)" d="M 141.104545 204.872727 
L 146.177273 204.872727 
L 146.177273 27.823161 
L 141.104545 27.823161 
z
" style="fill:#1f77b4;"/>
   </g>
   <g id="patch_19">
    <path clip-path="url(#p25a9f78085)" d="M 146.177273 204.872727 
L 151.25 204.872727 
L 151.25 29.424614 
L 146.177273 29.424614 
z
" style="fill:#1f77b4;"/>
   </g>
   <g id="patch_20">
    <path clip-path="url(#p25a9f78085)" d="M 151.25 204.872727 
L 156.322727 204.872727 
L 156.322727 23.552618 
L 151.25 23.552618 
z
" style="fill:#1f77b4;"/>
   </g>
   <g id="patch_21">
    <path clip-path="url(#p25a9f78085)" d="M 156.322727 204.872727 
L 161.395455 204.872727 
L 161.395455 32.80546 
L 156.322727 32.80546 
z
" style="fill:#1f77b4;"/>
   </g>
   <g id="patch_22">
    <path clip-path="url(#p25a9f78085)" d="M 161.395455 204.872727 
L 166.468182 204.872727 
L 166.468182 21.061469 
L 161.395455 21.061469 
z
" style="fill:#1f77b4;"/>
   </g>
   <g id="patch_23">
    <path clip-path="url(#p25a9f78085)" d="M 166.468182 204.872727 
L 171.540909 204.872727 
L 171.540909 27.645221 
L 166.468182 27.645221 
z
" style="fill:#1f77b4;"/>
   </g>
   <g id="patch_24">
    <path clip-path="url(#p25a9f78085)" d="M 171.540909 204.872727 
L 176.613636 204.872727 
L 176.613636 25.332011 
L 171.540909 25.332011 
z
" style="fill:#1f77b4;"/>
   </g>
   <g id="patch_25">
    <path clip-path="url(#p25a9f78085)" d="M 176.613636 204.872727 
L 181.686364 204.872727 
L 181.686364 17.146805 
L 176.613636 17.146805 
z
" style="fill:#1f77b4;"/>
   </g>
   <g id="patch_26">
    <path clip-path="url(#p25a9f78085)" d="M 181.686364 204.872727 
L 186.759091 204.872727 
L 186.759091 38.677456 
L 181.686364 38.677456 
z
" style="fill:#1f77b4;"/>
   </g>
   <g id="patch_27">
    <path clip-path="url(#p25a9f78085)" d="M 186.759091 204.872727 
L 191.831818 204.872727 
L 191.831818 21.417347 
L 186.759091 21.417347 
z
" style="fill:#1f77b4;"/>
   </g>
   <g id="patch_28">
    <path clip-path="url(#p25a9f78085)" d="M 191.831818 204.872727 
L 196.904545 204.872727 
L 196.904545 33.339278 
L 191.831818 33.339278 
z
" style="fill:#1f77b4;"/>
   </g>
   <g id="patch_29">
    <path clip-path="url(#p25a9f78085)" d="M 196.904545 204.872727 
L 201.977273 204.872727 
L 201.977273 32.093703 
L 196.904545 32.093703 
z
" style="fill:#1f77b4;"/>
   </g>
   <g id="patch_30">
    <path clip-path="url(#p25a9f78085)" d="M 201.977273 204.872727 
L 207.05 204.872727 
L 207.05 33.695156 
L 201.977273 33.695156 
z
" style="fill:#1f77b4;"/>
   </g>
   <g id="patch_31">
    <path clip-path="url(#p25a9f78085)" d="M 207.05 204.872727 
L 212.122727 204.872727 
L 212.122727 37.787759 
L 207.05 37.787759 
z
" style="fill:#1f77b4;"/>
   </g>
   <g id="patch_32">
    <path clip-path="url(#p25a9f78085)" d="M 212.122727 204.872727 
L 217.195455 204.872727 
L 217.195455 38.499516 
L 212.122727 38.499516 
z
" style="fill:#1f77b4;"/>
   </g>
   <g id="patch_33">
    <path clip-path="url(#p25a9f78085)" d="M 217.195455 204.872727 
L 222.268182 204.872727 
L 222.268182 33.695156 
L 217.195455 33.695156 
z
" style="fill:#1f77b4;"/>
   </g>
   <g id="patch_34">
    <path clip-path="url(#p25a9f78085)" d="M 222.268182 204.872727 
L 227.340909 204.872727 
L 227.340909 33.695156 
L 222.268182 33.695156 
z
" style="fill:#1f77b4;"/>
   </g>
   <g id="patch_35">
    <path clip-path="url(#p25a9f78085)" d="M 227.340909 204.872727 
L 232.413636 204.872727 
L 232.413636 23.374679 
L 227.340909 23.374679 
z
" style="fill:#1f77b4;"/>
   </g>
   <g id="patch_36">
    <path clip-path="url(#p25a9f78085)" d="M 232.413636 204.872727 
L 237.486364 204.872727 
L 237.486364 17.146805 
L 232.413636 17.146805 
z
" style="fill:#1f77b4;"/>
   </g>
   <g id="patch_37">
    <path clip-path="url(#p25a9f78085)" d="M 237.486364 204.872727 
L 242.559091 204.872727 
L 242.559091 27.823161 
L 237.486364 27.823161 
z
" style="fill:#1f77b4;"/>
   </g>
   <g id="patch_38">
    <path clip-path="url(#p25a9f78085)" d="M 242.559091 204.872727 
L 247.631818 204.872727 
L 247.631818 28.534918 
L 242.559091 28.534918 
z
" style="fill:#1f77b4;"/>
   </g>
   <g id="patch_39">
    <path clip-path="url(#p25a9f78085)" d="M 247.631818 204.872727 
L 252.704545 204.872727 
L 252.704545 21.239408 
L 247.631818 21.239408 
z
" style="fill:#1f77b4;"/>
   </g>
   <g id="patch_40">
    <path clip-path="url(#p25a9f78085)" d="M 252.704545 204.872727 
L 257.777273 204.872727 
L 257.777273 16.612987 
L 252.704545 16.612987 
z
" style="fill:#1f77b4;"/>
   </g>
   <g id="patch_41">
    <path clip-path="url(#p25a9f78085)" d="M 257.777273 204.872727 
L 262.85 204.872727 
L 262.85 41.346545 
L 257.777273 41.346545 
z
" style="fill:#1f77b4;"/>
   </g>
   <g id="patch_42">
    <path clip-path="url(#p25a9f78085)" d="M 262.85 204.872727 
L 267.922727 204.872727 
L 267.922727 31.026067 
L 262.85 31.026067 
z
" style="fill:#1f77b4;"/>
   </g>
   <g id="patch_43">
    <path clip-path="url(#p25a9f78085)" d="M 267.922727 204.872727 
L 272.995455 204.872727 
L 272.995455 20.171772 
L 267.922727 20.171772 
z
" style="fill:#1f77b4;"/>
   </g>
   <g id="patch_44">
    <path clip-path="url(#p25a9f78085)" d="M 272.995455 204.872727 
L 278.068182 204.872727 
L 278.068182 18.926197 
L 272.995455 18.926197 
z
" style="fill:#1f77b4;"/>
   </g>
   <g id="patch_45">
    <path clip-path="url(#p25a9f78085)" d="M 278.068182 204.872727 
L 283.140909 204.872727 
L 283.140909 21.773226 
L 278.068182 21.773226 
z
" style="fill:#1f77b4;"/>
   </g>
   <g id="patch_46">
    <path clip-path="url(#p25a9f78085)" d="M 283.140909 204.872727 
L 288.213636 204.872727 
L 288.213636 29.068735 
L 283.140909 29.068735 
z
" style="fill:#1f77b4;"/>
   </g>
   <g id="patch_47">
    <path clip-path="url(#p25a9f78085)" d="M 288.213636 204.872727 
L 293.286364 204.872727 
L 293.286364 21.239408 
L 288.213636 21.239408 
z
" style="fill:#1f77b4;"/>
   </g>
   <g id="patch_48">
    <path clip-path="url(#p25a9f78085)" d="M 293.286364 204.872727 
L 298.359091 204.872727 
L 298.359091 27.467282 
L 293.286364 27.467282 
z
" style="fill:#1f77b4;"/>
   </g>
   <g id="patch_49">
    <path clip-path="url(#p25a9f78085)" d="M 298.359091 204.872727 
L 303.431818 204.872727 
L 303.431818 27.823161 
L 298.359091 27.823161 
z
" style="fill:#1f77b4;"/>
   </g>
   <g id="patch_50">
    <path clip-path="url(#p25a9f78085)" d="M 303.431818 204.872727 
L 308.504545 204.872727 
L 308.504545 21.773226 
L 303.431818 21.773226 
z
" style="fill:#1f77b4;"/>
   </g>
   <g id="patch_51">
    <path clip-path="url(#p25a9f78085)" d="M 308.504545 204.872727 
L 313.577273 204.872727 
L 313.577273 24.086436 
L 308.504545 24.086436 
z
" style="fill:#1f77b4;"/>
   </g>
   <g id="patch_52">
    <path clip-path="url(#p25a9f78085)" d="M 313.577273 204.872727 
L 318.65 204.872727 
L 318.65 23.552618 
L 313.577273 23.552618 
z
" style="fill:#1f77b4;"/>
   </g>
   <g id="patch_53">
    <path clip-path="url(#p25a9f78085)" d="M 318.65 204.872727 
L 323.722727 204.872727 
L 323.722727 31.915764 
L 318.65 31.915764 
z
" style="fill:#1f77b4;"/>
   </g>
   <g id="patch_54">
    <path clip-path="url(#p25a9f78085)" d="M 323.722727 204.872727 
L 328.795455 204.872727 
L 328.795455 27.645221 
L 323.722727 27.645221 
z
" style="fill:#1f77b4;"/>
   </g>
   <g id="patch_55">
    <path clip-path="url(#p25a9f78085)" d="M 328.795455 204.872727 
L 333.868182 204.872727 
L 333.868182 29.424614 
L 328.795455 29.424614 
z
" style="fill:#1f77b4;"/>
   </g>
   <g id="patch_56">
    <path clip-path="url(#p25a9f78085)" d="M 333.868182 204.872727 
L 338.940909 204.872727 
L 338.940909 26.399646 
L 333.868182 26.399646 
z
" style="fill:#1f77b4;"/>
   </g>
   <g id="patch_57">
    <path clip-path="url(#p25a9f78085)" d="M 338.940909 204.872727 
L 344.013636 204.872727 
L 344.013636 28.534918 
L 338.940909 28.534918 
z
" style="fill:#1f77b4;"/>
   </g>
   <g id="patch_58">
    <path clip-path="url(#p25a9f78085)" d="M 344.013636 204.872727 
L 349.086364 204.872727 
L 349.086364 29.602553 
L 344.013636 29.602553 
z
" style="fill:#1f77b4;"/>
   </g>
   <g id="patch_59">
    <path clip-path="url(#p25a9f78085)" d="M 349.086364 204.872727 
L 354.159091 204.872727 
L 354.159091 23.730558 
L 349.086364 23.730558 
z
" style="fill:#1f77b4;"/>
   </g>
   <g id="patch_60">
    <path clip-path="url(#p25a9f78085)" d="M 354.159091 204.872727 
L 359.231818 204.872727 
L 359.231818 19.993833 
L 354.159091 19.993833 
z
" style="fill:#1f77b4;"/>
   </g>
   <g id="patch_61">
    <path clip-path="url(#p25a9f78085)" d="M 359.231818 204.872727 
L 364.304545 204.872727 
L 364.304545 32.627521 
L 359.231818 32.627521 
z
" style="fill:#1f77b4;"/>
   </g>
   <g id="patch_62">
    <path clip-path="url(#p25a9f78085)" d="M 364.304545 204.872727 
L 369.377273 204.872727 
L 369.377273 20.527651 
L 364.304545 20.527651 
z
" style="fill:#1f77b4;"/>
   </g>
   <g id="patch_63">
    <path clip-path="url(#p25a9f78085)" d="M 369.377273 204.872727 
L 374.45 204.872727 
L 374.45 18.570319 
L 369.377273 18.570319 
z
" style="fill:#1f77b4;"/>
   </g>
   <g id="patch_64">
    <path clip-path="url(#p25a9f78085)" d="M 374.45 204.872727 
L 379.522727 204.872727 
L 379.522727 21.239408 
L 374.45 21.239408 
z
" style="fill:#1f77b4;"/>
   </g>
   <g id="patch_65">
    <path clip-path="url(#p25a9f78085)" d="M 379.522727 204.872727 
L 384.595455 204.872727 
L 384.595455 20.883529 
L 379.522727 20.883529 
z
" style="fill:#1f77b4;"/>
   </g>
   <g id="patch_66">
    <path clip-path="url(#p25a9f78085)" d="M 384.595455 204.872727 
L 389.668182 204.872727 
L 389.668182 31.204007 
L 384.595455 31.204007 
z
" style="fill:#1f77b4;"/>
   </g>
   <g id="patch_67">
    <path clip-path="url(#p25a9f78085)" d="M 389.668182 204.872727 
L 394.740909 204.872727 
L 394.740909 28.712857 
L 389.668182 28.712857 
z
" style="fill:#1f77b4;"/>
   </g>
   <g id="patch_68">
    <path clip-path="url(#p25a9f78085)" d="M 394.740909 204.872727 
L 399.813636 204.872727 
L 399.813636 19.104137 
L 394.740909 19.104137 
z
" style="fill:#1f77b4;"/>
   </g>
   <g id="patch_69">
    <path clip-path="url(#p25a9f78085)" d="M 399.813636 204.872727 
L 404.886364 204.872727 
L 404.886364 24.620254 
L 399.813636 24.620254 
z
" style="fill:#1f77b4;"/>
   </g>
   <g id="patch_70">
    <path clip-path="url(#p25a9f78085)" d="M 404.886364 204.872727 
L 409.959091 204.872727 
L 409.959091 22.307043 
L 404.886364 22.307043 
z
" style="fill:#1f77b4;"/>
   </g>
   <g id="patch_71">
    <path clip-path="url(#p25a9f78085)" d="M 409.959091 204.872727 
L 415.031818 204.872727 
L 415.031818 25.687889 
L 409.959091 25.687889 
z
" style="fill:#1f77b4;"/>
   </g>
   <g id="patch_72">
    <path clip-path="url(#p25a9f78085)" d="M 415.031818 204.872727 
L 420.104545 204.872727 
L 420.104545 29.958432 
L 415.031818 29.958432 
z
" style="fill:#1f77b4;"/>
   </g>
   <g id="patch_73">
    <path clip-path="url(#p25a9f78085)" d="M 420.104545 204.872727 
L 425.177273 204.872727 
L 425.177273 28.179039 
L 420.104545 28.179039 
z
" style="fill:#1f77b4;"/>
   </g>
   <g id="patch_74">
    <path clip-path="url(#p25a9f78085)" d="M 425.177273 204.872727 
L 430.25 204.872727 
L 430.25 25.865829 
L 425.177273 25.865829 
z
" style="fill:#1f77b4;"/>
   </g>
   <g id="patch_75">
    <path clip-path="url(#p25a9f78085)" d="M 430.25 204.872727 
L 435.322727 204.872727 
L 435.322727 23.730558 
L 430.25 23.730558 
z
" style="fill:#1f77b4;"/>
   </g>
   <g id="patch_76">
    <path clip-path="url(#p25a9f78085)" d="M 435.322727 204.872727 
L 440.395455 204.872727 
L 440.395455 27.823161 
L 435.322727 27.823161 
z
" style="fill:#1f77b4;"/>
   </g>
   <g id="patch_77">
    <path clip-path="url(#p25a9f78085)" d="M 440.395455 204.872727 
L 445.468182 204.872727 
L 445.468182 28.0011 
L 440.395455 28.0011 
z
" style="fill:#1f77b4;"/>
   </g>
   <g id="patch_78">
    <path clip-path="url(#p25a9f78085)" d="M 445.468182 204.872727 
L 450.540909 204.872727 
L 450.540909 26.043768 
L 445.468182 26.043768 
z
" style="fill:#1f77b4;"/>
   </g>
   <g id="patch_79">
    <path clip-path="url(#p25a9f78085)" d="M 450.540909 204.872727 
L 455.613636 204.872727 
L 455.613636 32.093703 
L 450.540909 32.093703 
z
" style="fill:#1f77b4;"/>
   </g>
   <g id="patch_80">
    <path clip-path="url(#p25a9f78085)" d="M 455.613636 204.872727 
L 460.686364 204.872727 
L 460.686364 33.695156 
L 455.613636 33.695156 
z
" style="fill:#1f77b4;"/>
   </g>
   <g id="patch_81">
    <path clip-path="url(#p25a9f78085)" d="M 460.686364 204.872727 
L 465.759091 204.872727 
L 465.759091 34.406913 
L 460.686364 34.406913 
z
" style="fill:#1f77b4;"/>
   </g>
   <g id="patch_82">
    <path clip-path="url(#p25a9f78085)" d="M 465.759091 204.872727 
L 470.831818 204.872727 
L 470.831818 22.662922 
L 465.759091 22.662922 
z
" style="fill:#1f77b4;"/>
   </g>
   <g id="patch_83">
    <path clip-path="url(#p25a9f78085)" d="M 470.831818 204.872727 
L 475.904545 204.872727 
L 475.904545 27.645221 
L 470.831818 27.645221 
z
" style="fill:#1f77b4;"/>
   </g>
   <g id="patch_84">
    <path clip-path="url(#p25a9f78085)" d="M 475.904545 204.872727 
L 480.977273 204.872727 
L 480.977273 28.0011 
L 475.904545 28.0011 
z
" style="fill:#1f77b4;"/>
   </g>
   <g id="patch_85">
    <path clip-path="url(#p25a9f78085)" d="M 480.977273 204.872727 
L 486.05 204.872727 
L 486.05 23.730558 
L 480.977273 23.730558 
z
" style="fill:#1f77b4;"/>
   </g>
   <g id="patch_86">
    <path clip-path="url(#p25a9f78085)" d="M 486.05 204.872727 
L 491.122727 204.872727 
L 491.122727 26.221707 
L 486.05 26.221707 
z
" style="fill:#1f77b4;"/>
   </g>
   <g id="patch_87">
    <path clip-path="url(#p25a9f78085)" d="M 491.122727 204.872727 
L 496.195455 204.872727 
L 496.195455 25.154072 
L 491.122727 25.154072 
z
" style="fill:#1f77b4;"/>
   </g>
   <g id="patch_88">
    <path clip-path="url(#p25a9f78085)" d="M 496.195455 204.872727 
L 501.268182 204.872727 
L 501.268182 35.29661 
L 496.195455 35.29661 
z
" style="fill:#1f77b4;"/>
   </g>
   <g id="patch_89">
    <path clip-path="url(#p25a9f78085)" d="M 501.268182 204.872727 
L 506.340909 204.872727 
L 506.340909 35.652488 
L 501.268182 35.652488 
z
" style="fill:#1f77b4;"/>
   </g>
   <g id="patch_90">
    <path clip-path="url(#p25a9f78085)" d="M 506.340909 204.872727 
L 511.413636 204.872727 
L 511.413636 26.577586 
L 506.340909 26.577586 
z
" style="fill:#1f77b4;"/>
   </g>
   <g id="patch_91">
    <path clip-path="url(#p25a9f78085)" d="M 511.413636 204.872727 
L 516.486364 204.872727 
L 516.486364 33.695156 
L 511.413636 33.695156 
z
" style="fill:#1f77b4;"/>
   </g>
   <g id="patch_92">
    <path clip-path="url(#p25a9f78085)" d="M 516.486364 204.872727 
L 521.559091 204.872727 
L 521.559091 19.460015 
L 516.486364 19.460015 
z
" style="fill:#1f77b4;"/>
   </g>
   <g id="patch_93">
    <path clip-path="url(#p25a9f78085)" d="M 521.559091 204.872727 
L 526.631818 204.872727 
L 526.631818 24.620254 
L 521.559091 24.620254 
z
" style="fill:#1f77b4;"/>
   </g>
   <g id="patch_94">
    <path clip-path="url(#p25a9f78085)" d="M 526.631818 204.872727 
L 531.704545 204.872727 
L 531.704545 27.111404 
L 526.631818 27.111404 
z
" style="fill:#1f77b4;"/>
   </g>
   <g id="patch_95">
    <path clip-path="url(#p25a9f78085)" d="M 531.704545 204.872727 
L 536.777273 204.872727 
L 536.777273 33.695156 
L 531.704545 33.695156 
z
" style="fill:#1f77b4;"/>
   </g>
   <g id="patch_96">
    <path clip-path="url(#p25a9f78085)" d="M 536.777273 204.872727 
L 541.85 204.872727 
L 541.85 25.154072 
L 536.777273 25.154072 
z
" style="fill:#1f77b4;"/>
   </g>
   <g id="patch_97">
    <path clip-path="url(#p25a9f78085)" d="M 541.85 204.872727 
L 546.922727 204.872727 
L 546.922727 31.737824 
L 541.85 31.737824 
z
" style="fill:#1f77b4;"/>
   </g>
   <g id="patch_98">
    <path clip-path="url(#p25a9f78085)" d="M 546.922727 204.872727 
L 551.995455 204.872727 
L 551.995455 33.339278 
L 546.922727 33.339278 
z
" style="fill:#1f77b4;"/>
   </g>
   <g id="patch_99">
    <path clip-path="url(#p25a9f78085)" d="M 551.995455 204.872727 
L 557.068182 204.872727 
L 557.068182 22.662922 
L 551.995455 22.662922 
z
" style="fill:#1f77b4;"/>
   </g>
   <g id="patch_100">
    <path clip-path="url(#p25a9f78085)" d="M 557.068182 204.872727 
L 562.140909 204.872727 
L 562.140909 24.976132 
L 557.068182 24.976132 
z
" style="fill:#1f77b4;"/>
   </g>
   <g id="patch_101">
    <path clip-path="url(#p25a9f78085)" d="M 562.140909 204.872727 
L 567.213636 204.872727 
L 567.213636 21.595286 
L 562.140909 21.595286 
z
" style="fill:#1f77b4;"/>
   </g>
   <g id="patch_102">
    <path clip-path="url(#p25a9f78085)" d="M 567.213636 204.872727 
L 572.286364 204.872727 
L 572.286364 27.467282 
L 567.213636 27.467282 
z
" style="fill:#1f77b4;"/>
   </g>
   <g id="matplotlib.axis_1">
    <g id="xtick_1">
     <g id="line2d_1">
      <defs>
       <path d="M 0 0 
L 0 3.5 
" id="m84d7b8d45f" style="stroke:#000000;stroke-width:0.8;"/>
      </defs>
      <g>
       <use style="stroke:#000000;stroke-width:0.8;" x="65.006235" xlink:href="#m84d7b8d45f" y="204.872727"/>
      </g>
     </g>
     <g id="text_1">
      <!-- 0.0 -->
      <g transform="translate(57.054673 219.471165)scale(0.1 -0.1)">
       <defs>
        <path d="M 31.78125 66.40625 
Q 24.171875 66.40625 20.328125 58.90625 
Q 16.5 51.421875 16.5 36.375 
Q 16.5 21.390625 20.328125 13.890625 
Q 24.171875 6.390625 31.78125 6.390625 
Q 39.453125 6.390625 43.28125 13.890625 
Q 47.125 21.390625 47.125 36.375 
Q 47.125 51.421875 43.28125 58.90625 
Q 39.453125 66.40625 31.78125 66.40625 
z
M 31.78125 74.21875 
Q 44.046875 74.21875 50.515625 64.515625 
Q 56.984375 54.828125 56.984375 36.375 
Q 56.984375 17.96875 50.515625 8.265625 
Q 44.046875 -1.421875 31.78125 -1.421875 
Q 19.53125 -1.421875 13.0625 8.265625 
Q 6.59375 17.96875 6.59375 36.375 
Q 6.59375 54.828125 13.0625 64.515625 
Q 19.53125 74.21875 31.78125 74.21875 
z
" id="DejaVuSans-48"/>
        <path d="M 10.6875 12.40625 
L 21 12.40625 
L 21 0 
L 10.6875 0 
z
" id="DejaVuSans-46"/>
       </defs>
       <use xlink:href="#DejaVuSans-48"/>
       <use x="63.623047" xlink:href="#DejaVuSans-46"/>
       <use x="95.410156" xlink:href="#DejaVuSans-48"/>
      </g>
     </g>
    </g>
    <g id="xtick_2">
     <g id="line2d_2">
      <g>
       <use style="stroke:#000000;stroke-width:0.8;" x="166.465054" xlink:href="#m84d7b8d45f" y="204.872727"/>
      </g>
     </g>
     <g id="text_2">
      <!-- 0.2 -->
      <g transform="translate(158.513492 219.471165)scale(0.1 -0.1)">
       <defs>
        <path d="M 19.1875 8.296875 
L 53.609375 8.296875 
L 53.609375 0 
L 7.328125 0 
L 7.328125 8.296875 
Q 12.9375 14.109375 22.625 23.890625 
Q 32.328125 33.6875 34.8125 36.53125 
Q 39.546875 41.84375 41.421875 45.53125 
Q 43.3125 49.21875 43.3125 52.78125 
Q 43.3125 58.59375 39.234375 62.25 
Q 35.15625 65.921875 28.609375 65.921875 
Q 23.96875 65.921875 18.8125 64.3125 
Q 13.671875 62.703125 7.8125 59.421875 
L 7.8125 69.390625 
Q 13.765625 71.78125 18.9375 73 
Q 24.125 74.21875 28.421875 74.21875 
Q 39.75 74.21875 46.484375 68.546875 
Q 53.21875 62.890625 53.21875 53.421875 
Q 53.21875 48.921875 51.53125 44.890625 
Q 49.859375 40.875 45.40625 35.40625 
Q 44.1875 33.984375 37.640625 27.21875 
Q 31.109375 20.453125 19.1875 8.296875 
z
" id="DejaVuSans-50"/>
       </defs>
       <use xlink:href="#DejaVuSans-48"/>
       <use x="63.623047" xlink:href="#DejaVuSans-46"/>
       <use x="95.410156" xlink:href="#DejaVuSans-50"/>
      </g>
     </g>
    </g>
    <g id="xtick_3">
     <g id="line2d_3">
      <g>
       <use style="stroke:#000000;stroke-width:0.8;" x="267.923873" xlink:href="#m84d7b8d45f" y="204.872727"/>
      </g>
     </g>
     <g id="text_3">
      <!-- 0.4 -->
      <g transform="translate(259.972311 219.471165)scale(0.1 -0.1)">
       <defs>
        <path d="M 37.796875 64.3125 
L 12.890625 25.390625 
L 37.796875 25.390625 
z
M 35.203125 72.90625 
L 47.609375 72.90625 
L 47.609375 25.390625 
L 58.015625 25.390625 
L 58.015625 17.1875 
L 47.609375 17.1875 
L 47.609375 0 
L 37.796875 0 
L 37.796875 17.1875 
L 4.890625 17.1875 
L 4.890625 26.703125 
z
" id="DejaVuSans-52"/>
       </defs>
       <use xlink:href="#DejaVuSans-48"/>
       <use x="63.623047" xlink:href="#DejaVuSans-46"/>
       <use x="95.410156" xlink:href="#DejaVuSans-52"/>
      </g>
     </g>
    </g>
    <g id="xtick_4">
     <g id="line2d_4">
      <g>
       <use style="stroke:#000000;stroke-width:0.8;" x="369.382692" xlink:href="#m84d7b8d45f" y="204.872727"/>
      </g>
     </g>
     <g id="text_4">
      <!-- 0.6 -->
      <g transform="translate(361.43113 219.471165)scale(0.1 -0.1)">
       <defs>
        <path d="M 33.015625 40.375 
Q 26.375 40.375 22.484375 35.828125 
Q 18.609375 31.296875 18.609375 23.390625 
Q 18.609375 15.53125 22.484375 10.953125 
Q 26.375 6.390625 33.015625 6.390625 
Q 39.65625 6.390625 43.53125 10.953125 
Q 47.40625 15.53125 47.40625 23.390625 
Q 47.40625 31.296875 43.53125 35.828125 
Q 39.65625 40.375 33.015625 40.375 
z
M 52.59375 71.296875 
L 52.59375 62.3125 
Q 48.875 64.0625 45.09375 64.984375 
Q 41.3125 65.921875 37.59375 65.921875 
Q 27.828125 65.921875 22.671875 59.328125 
Q 17.53125 52.734375 16.796875 39.40625 
Q 19.671875 43.65625 24.015625 45.921875 
Q 28.375 48.1875 33.59375 48.1875 
Q 44.578125 48.1875 50.953125 41.515625 
Q 57.328125 34.859375 57.328125 23.390625 
Q 57.328125 12.15625 50.6875 5.359375 
Q 44.046875 -1.421875 33.015625 -1.421875 
Q 20.359375 -1.421875 13.671875 8.265625 
Q 6.984375 17.96875 6.984375 36.375 
Q 6.984375 53.65625 15.1875 63.9375 
Q 23.390625 74.21875 37.203125 74.21875 
Q 40.921875 74.21875 44.703125 73.484375 
Q 48.484375 72.75 52.59375 71.296875 
z
" id="DejaVuSans-54"/>
       </defs>
       <use xlink:href="#DejaVuSans-48"/>
       <use x="63.623047" xlink:href="#DejaVuSans-46"/>
       <use x="95.410156" xlink:href="#DejaVuSans-54"/>
      </g>
     </g>
    </g>
    <g id="xtick_5">
     <g id="line2d_5">
      <g>
       <use style="stroke:#000000;stroke-width:0.8;" x="470.841511" xlink:href="#m84d7b8d45f" y="204.872727"/>
      </g>
     </g>
     <g id="text_5">
      <!-- 0.8 -->
      <g transform="translate(462.889948 219.471165)scale(0.1 -0.1)">
       <defs>
        <path d="M 31.78125 34.625 
Q 24.75 34.625 20.71875 30.859375 
Q 16.703125 27.09375 16.703125 20.515625 
Q 16.703125 13.921875 20.71875 10.15625 
Q 24.75 6.390625 31.78125 6.390625 
Q 38.8125 6.390625 42.859375 10.171875 
Q 46.921875 13.96875 46.921875 20.515625 
Q 46.921875 27.09375 42.890625 30.859375 
Q 38.875 34.625 31.78125 34.625 
z
M 21.921875 38.8125 
Q 15.578125 40.375 12.03125 44.71875 
Q 8.5 49.078125 8.5 55.328125 
Q 8.5 64.0625 14.71875 69.140625 
Q 20.953125 74.21875 31.78125 74.21875 
Q 42.671875 74.21875 48.875 69.140625 
Q 55.078125 64.0625 55.078125 55.328125 
Q 55.078125 49.078125 51.53125 44.71875 
Q 48 40.375 41.703125 38.8125 
Q 48.828125 37.15625 52.796875 32.3125 
Q 56.78125 27.484375 56.78125 20.515625 
Q 56.78125 9.90625 50.3125 4.234375 
Q 43.84375 -1.421875 31.78125 -1.421875 
Q 19.734375 -1.421875 13.25 4.234375 
Q 6.78125 9.90625 6.78125 20.515625 
Q 6.78125 27.484375 10.78125 32.3125 
Q 14.796875 37.15625 21.921875 38.8125 
z
M 18.3125 54.390625 
Q 18.3125 48.734375 21.84375 45.5625 
Q 25.390625 42.390625 31.78125 42.390625 
Q 38.140625 42.390625 41.71875 45.5625 
Q 45.3125 48.734375 45.3125 54.390625 
Q 45.3125 60.0625 41.71875 63.234375 
Q 38.140625 66.40625 31.78125 66.40625 
Q 25.390625 66.40625 21.84375 63.234375 
Q 18.3125 60.0625 18.3125 54.390625 
z
" id="DejaVuSans-56"/>
       </defs>
       <use xlink:href="#DejaVuSans-48"/>
       <use x="63.623047" xlink:href="#DejaVuSans-46"/>
       <use x="95.410156" xlink:href="#DejaVuSans-56"/>
      </g>
     </g>
    </g>
    <g id="xtick_6">
     <g id="line2d_6">
      <g>
       <use style="stroke:#000000;stroke-width:0.8;" x="572.30033" xlink:href="#m84d7b8d45f" y="204.872727"/>
      </g>
     </g>
     <g id="text_6">
      <!-- 1.0 -->
      <g transform="translate(564.348767 219.471165)scale(0.1 -0.1)">
       <defs>
        <path d="M 12.40625 8.296875 
L 28.515625 8.296875 
L 28.515625 63.921875 
L 10.984375 60.40625 
L 10.984375 69.390625 
L 28.421875 72.90625 
L 38.28125 72.90625 
L 38.28125 8.296875 
L 54.390625 8.296875 
L 54.390625 0 
L 12.40625 0 
z
" id="DejaVuSans-49"/>
       </defs>
       <use xlink:href="#DejaVuSans-49"/>
       <use x="63.623047" xlink:href="#DejaVuSans-46"/>
       <use x="95.410156" xlink:href="#DejaVuSans-48"/>
      </g>
     </g>
    </g>
   </g>
   <g id="matplotlib.axis_2">
    <g id="ytick_1">
     <g id="line2d_7">
      <defs>
       <path d="M 0 0 
L -3.5 0 
" id="m74ee21769d" style="stroke:#000000;stroke-width:0.8;"/>
      </defs>
      <g>
       <use style="stroke:#000000;stroke-width:0.8;" x="39.65" xlink:href="#m74ee21769d" y="204.872727"/>
      </g>
     </g>
     <g id="text_7">
      <!-- 0 -->
      <g transform="translate(26.2875 208.671946)scale(0.1 -0.1)">
       <use xlink:href="#DejaVuSans-48"/>
      </g>
     </g>
    </g>
    <g id="ytick_2">
     <g id="line2d_8">
      <g>
       <use style="stroke:#000000;stroke-width:0.8;" x="39.65" xlink:href="#m74ee21769d" y="169.284875"/>
      </g>
     </g>
     <g id="text_8">
      <!-- 200 -->
      <g transform="translate(13.5625 173.084093)scale(0.1 -0.1)">
       <use xlink:href="#DejaVuSans-50"/>
       <use x="63.623047" xlink:href="#DejaVuSans-48"/>
       <use x="127.246094" xlink:href="#DejaVuSans-48"/>
      </g>
     </g>
    </g>
    <g id="ytick_3">
     <g id="line2d_9">
      <g>
       <use style="stroke:#000000;stroke-width:0.8;" x="39.65" xlink:href="#m74ee21769d" y="133.697022"/>
      </g>
     </g>
     <g id="text_9">
      <!-- 400 -->
      <g transform="translate(13.5625 137.496241)scale(0.1 -0.1)">
       <use xlink:href="#DejaVuSans-52"/>
       <use x="63.623047" xlink:href="#DejaVuSans-48"/>
       <use x="127.246094" xlink:href="#DejaVuSans-48"/>
      </g>
     </g>
    </g>
    <g id="ytick_4">
     <g id="line2d_10">
      <g>
       <use style="stroke:#000000;stroke-width:0.8;" x="39.65" xlink:href="#m74ee21769d" y="98.109169"/>
      </g>
     </g>
     <g id="text_10">
      <!-- 600 -->
      <g transform="translate(13.5625 101.908388)scale(0.1 -0.1)">
       <use xlink:href="#DejaVuSans-54"/>
       <use x="63.623047" xlink:href="#DejaVuSans-48"/>
       <use x="127.246094" xlink:href="#DejaVuSans-48"/>
      </g>
     </g>
    </g>
    <g id="ytick_5">
     <g id="line2d_11">
      <g>
       <use style="stroke:#000000;stroke-width:0.8;" x="39.65" xlink:href="#m74ee21769d" y="62.521317"/>
      </g>
     </g>
     <g id="text_11">
      <!-- 800 -->
      <g transform="translate(13.5625 66.320536)scale(0.1 -0.1)">
       <use xlink:href="#DejaVuSans-56"/>
       <use x="63.623047" xlink:href="#DejaVuSans-48"/>
       <use x="127.246094" xlink:href="#DejaVuSans-48"/>
      </g>
     </g>
    </g>
    <g id="ytick_6">
     <g id="line2d_12">
      <g>
       <use style="stroke:#000000;stroke-width:0.8;" x="39.65" xlink:href="#m74ee21769d" y="26.933464"/>
      </g>
     </g>
     <g id="text_12">
      <!-- 1000 -->
      <g transform="translate(7.2 30.732683)scale(0.1 -0.1)">
       <use xlink:href="#DejaVuSans-49"/>
       <use x="63.623047" xlink:href="#DejaVuSans-48"/>
       <use x="127.246094" xlink:href="#DejaVuSans-48"/>
       <use x="190.869141" xlink:href="#DejaVuSans-48"/>
      </g>
     </g>
    </g>
   </g>
   <g id="patch_103">
    <path d="M 39.65 204.872727 
L 39.65 7.2 
" style="fill:none;stroke:#000000;stroke-linecap:square;stroke-linejoin:miter;stroke-width:0.8;"/>
   </g>
   <g id="patch_104">
    <path d="M 597.65 204.872727 
L 597.65 7.2 
" style="fill:none;stroke:#000000;stroke-linecap:square;stroke-linejoin:miter;stroke-width:0.8;"/>
   </g>
   <g id="patch_105">
    <path d="M 39.65 204.872727 
L 597.65 204.872727 
" style="fill:none;stroke:#000000;stroke-linecap:square;stroke-linejoin:miter;stroke-width:0.8;"/>
   </g>
   <g id="patch_106">
    <path d="M 39.65 7.2 
L 597.65 7.2 
" style="fill:none;stroke:#000000;stroke-linecap:square;stroke-linejoin:miter;stroke-width:0.8;"/>
   </g>
  </g>
  <g id="axes_2">
   <g id="patch_107">
    <path d="M 39.65 442.08 
L 597.65 442.08 
L 597.65 244.407273 
L 39.65 244.407273 
z
" style="fill:#ffffff;"/>
   </g>
   <g id="patch_108">
    <path clip-path="url(#p2a9720cb67)" d="M 65.013636 442.08 
L 70.086364 442.08 
L 70.086364 442.029677 
L 65.013636 442.029677 
z
" style="fill:#1f77b4;"/>
   </g>
   <g id="patch_109">
    <path clip-path="url(#p2a9720cb67)" d="M 70.086364 442.08 
L 75.159091 442.08 
L 75.159091 442.08 
L 70.086364 442.08 
z
" style="fill:#1f77b4;"/>
   </g>
   <g id="patch_110">
    <path clip-path="url(#p2a9720cb67)" d="M 75.159091 442.08 
L 80.231818 442.08 
L 80.231818 442.08 
L 75.159091 442.08 
z
" style="fill:#1f77b4;"/>
   </g>
   <g id="patch_111">
    <path clip-path="url(#p2a9720cb67)" d="M 80.231818 442.08 
L 85.304545 442.08 
L 85.304545 442.029677 
L 80.231818 442.029677 
z
" style="fill:#1f77b4;"/>
   </g>
   <g id="patch_112">
    <path clip-path="url(#p2a9720cb67)" d="M 85.304545 442.08 
L 90.377273 442.08 
L 90.377273 442.08 
L 85.304545 442.08 
z
" style="fill:#1f77b4;"/>
   </g>
   <g id="patch_113">
    <path clip-path="url(#p2a9720cb67)" d="M 90.377273 442.08 
L 95.45 442.08 
L 95.45 441.979353 
L 90.377273 441.979353 
z
" style="fill:#1f77b4;"/>
   </g>
   <g id="patch_114">
    <path clip-path="url(#p2a9720cb67)" d="M 95.45 442.08 
L 100.522727 442.08 
L 100.522727 441.979353 
L 95.45 441.979353 
z
" style="fill:#1f77b4;"/>
   </g>
   <g id="patch_115">
    <path clip-path="url(#p2a9720cb67)" d="M 100.522727 442.08 
L 105.595455 442.08 
L 105.595455 441.92903 
L 100.522727 441.92903 
z
" style="fill:#1f77b4;"/>
   </g>
   <g id="patch_116">
    <path clip-path="url(#p2a9720cb67)" d="M 105.595455 442.08 
L 110.668182 442.08 
L 110.668182 442.029677 
L 105.595455 442.029677 
z
" style="fill:#1f77b4;"/>
   </g>
   <g id="patch_117">
    <path clip-path="url(#p2a9720cb67)" d="M 110.668182 442.08 
L 115.740909 442.08 
L 115.740909 441.828383 
L 110.668182 441.828383 
z
" style="fill:#1f77b4;"/>
   </g>
   <g id="patch_118">
    <path clip-path="url(#p2a9720cb67)" d="M 115.740909 442.08 
L 120.813636 442.08 
L 120.813636 441.92903 
L 115.740909 441.92903 
z
" style="fill:#1f77b4;"/>
   </g>
   <g id="patch_119">
    <path clip-path="url(#p2a9720cb67)" d="M 120.813636 442.08 
L 125.886364 442.08 
L 125.886364 441.62709 
L 120.813636 441.62709 
z
" style="fill:#1f77b4;"/>
   </g>
   <g id="patch_120">
    <path clip-path="url(#p2a9720cb67)" d="M 125.886364 442.08 
L 130.959091 442.08 
L 130.959091 441.677413 
L 125.886364 441.677413 
z
" style="fill:#1f77b4;"/>
   </g>
   <g id="patch_121">
    <path clip-path="url(#p2a9720cb67)" d="M 130.959091 442.08 
L 136.031818 442.08 
L 136.031818 441.174179 
L 130.959091 441.174179 
z
" style="fill:#1f77b4;"/>
   </g>
   <g id="patch_122">
    <path clip-path="url(#p2a9720cb67)" d="M 136.031818 442.08 
L 141.104545 442.08 
L 141.104545 440.922562 
L 136.031818 440.922562 
z
" style="fill:#1f77b4;"/>
   </g>
   <g id="patch_123">
    <path clip-path="url(#p2a9720cb67)" d="M 141.104545 442.08 
L 146.177273 442.08 
L 146.177273 440.972886 
L 141.104545 440.972886 
z
" style="fill:#1f77b4;"/>
   </g>
   <g id="patch_124">
    <path clip-path="url(#p2a9720cb67)" d="M 146.177273 442.08 
L 151.25 442.08 
L 151.25 440.419329 
L 146.177273 440.419329 
z
" style="fill:#1f77b4;"/>
   </g>
   <g id="patch_125">
    <path clip-path="url(#p2a9720cb67)" d="M 151.25 442.08 
L 156.322727 442.08 
L 156.322727 440.067065 
L 151.25 440.067065 
z
" style="fill:#1f77b4;"/>
   </g>
   <g id="patch_126">
    <path clip-path="url(#p2a9720cb67)" d="M 156.322727 442.08 
L 161.395455 442.08 
L 161.395455 439.815448 
L 156.322727 439.815448 
z
" style="fill:#1f77b4;"/>
   </g>
   <g id="patch_127">
    <path clip-path="url(#p2a9720cb67)" d="M 161.395455 442.08 
L 166.468182 442.08 
L 166.468182 438.305747 
L 161.395455 438.305747 
z
" style="fill:#1f77b4;"/>
   </g>
   <g id="patch_128">
    <path clip-path="url(#p2a9720cb67)" d="M 166.468182 442.08 
L 171.540909 442.08 
L 171.540909 438.05413 
L 166.468182 438.05413 
z
" style="fill:#1f77b4;"/>
   </g>
   <g id="patch_129">
    <path clip-path="url(#p2a9720cb67)" d="M 171.540909 442.08 
L 176.613636 442.08 
L 176.613636 435.990872 
L 171.540909 435.990872 
z
" style="fill:#1f77b4;"/>
   </g>
   <g id="patch_130">
    <path clip-path="url(#p2a9720cb67)" d="M 176.613636 442.08 
L 181.686364 442.08 
L 181.686364 433.776643 
L 176.613636 433.776643 
z
" style="fill:#1f77b4;"/>
   </g>
   <g id="patch_131">
    <path clip-path="url(#p2a9720cb67)" d="M 181.686364 442.08 
L 186.759091 442.08 
L 186.759091 432.417912 
L 181.686364 432.417912 
z
" style="fill:#1f77b4;"/>
   </g>
   <g id="patch_132">
    <path clip-path="url(#p2a9720cb67)" d="M 186.759091 442.08 
L 191.831818 442.08 
L 191.831818 429.901744 
L 186.759091 429.901744 
z
" style="fill:#1f77b4;"/>
   </g>
   <g id="patch_133">
    <path clip-path="url(#p2a9720cb67)" d="M 191.831818 442.08 
L 196.904545 442.08 
L 196.904545 426.580401 
L 191.831818 426.580401 
z
" style="fill:#1f77b4;"/>
   </g>
   <g id="patch_134">
    <path clip-path="url(#p2a9720cb67)" d="M 196.904545 442.08 
L 201.977273 442.08 
L 201.977273 423.510675 
L 196.904545 423.510675 
z
" style="fill:#1f77b4;"/>
   </g>
   <g id="patch_135">
    <path clip-path="url(#p2a9720cb67)" d="M 201.977273 442.08 
L 207.05 442.08 
L 207.05 419.233188 
L 201.977273 419.233188 
z
" style="fill:#1f77b4;"/>
   </g>
   <g id="patch_136">
    <path clip-path="url(#p2a9720cb67)" d="M 207.05 442.08 
L 212.122727 442.08 
L 212.122727 414.905378 
L 207.05 414.905378 
z
" style="fill:#1f77b4;"/>
   </g>
   <g id="patch_137">
    <path clip-path="url(#p2a9720cb67)" d="M 212.122727 442.08 
L 217.195455 442.08 
L 217.195455 412.439533 
L 212.122727 412.439533 
z
" style="fill:#1f77b4;"/>
   </g>
   <g id="patch_138">
    <path clip-path="url(#p2a9720cb67)" d="M 217.195455 442.08 
L 222.268182 442.08 
L 222.268182 403.783913 
L 217.195455 403.783913 
z
" style="fill:#1f77b4;"/>
   </g>
   <g id="patch_139">
    <path clip-path="url(#p2a9720cb67)" d="M 222.268182 442.08 
L 227.340909 442.08 
L 227.340909 397.996725 
L 222.268182 397.996725 
z
" style="fill:#1f77b4;"/>
   </g>
   <g id="patch_140">
    <path clip-path="url(#p2a9720cb67)" d="M 227.340909 442.08 
L 232.413636 442.08 
L 232.413636 392.612124 
L 227.340909 392.612124 
z
" style="fill:#1f77b4;"/>
   </g>
   <g id="patch_141">
    <path clip-path="url(#p2a9720cb67)" d="M 232.413636 442.08 
L 237.486364 442.08 
L 237.486364 380.433867 
L 232.413636 380.433867 
z
" style="fill:#1f77b4;"/>
   </g>
   <g id="patch_142">
    <path clip-path="url(#p2a9720cb67)" d="M 237.486364 442.08 
L 242.559091 442.08 
L 242.559091 374.244093 
L 237.486364 374.244093 
z
" style="fill:#1f77b4;"/>
   </g>
   <g id="patch_143">
    <path clip-path="url(#p2a9720cb67)" d="M 242.559091 442.08 
L 247.631818 442.08 
L 247.631818 368.003994 
L 242.559091 368.003994 
z
" style="fill:#1f77b4;"/>
   </g>
   <g id="patch_144">
    <path clip-path="url(#p2a9720cb67)" d="M 247.631818 442.08 
L 252.704545 442.08 
L 252.704545 360.103225 
L 247.631818 360.103225 
z
" style="fill:#1f77b4;"/>
   </g>
   <g id="patch_145">
    <path clip-path="url(#p2a9720cb67)" d="M 252.704545 442.08 
L 257.777273 442.08 
L 257.777273 344.955889 
L 252.704545 344.955889 
z
" style="fill:#1f77b4;"/>
   </g>
   <g id="patch_146">
    <path clip-path="url(#p2a9720cb67)" d="M 257.777273 442.08 
L 262.85 442.08 
L 262.85 339.671935 
L 257.777273 339.671935 
z
" style="fill:#1f77b4;"/>
   </g>
   <g id="patch_147">
    <path clip-path="url(#p2a9720cb67)" d="M 262.85 442.08 
L 267.922727 442.08 
L 267.922727 325.883331 
L 262.85 325.883331 
z
" style="fill:#1f77b4;"/>
   </g>
   <g id="patch_148">
    <path clip-path="url(#p2a9720cb67)" d="M 267.922727 442.08 
L 272.995455 442.08 
L 272.995455 316.7748 
L 267.922727 316.7748 
z
" style="fill:#1f77b4;"/>
   </g>
   <g id="patch_149">
    <path clip-path="url(#p2a9720cb67)" d="M 272.995455 442.08 
L 278.068182 442.08 
L 278.068182 301.426171 
L 272.995455 301.426171 
z
" style="fill:#1f77b4;"/>
   </g>
   <g id="patch_150">
    <path clip-path="url(#p2a9720cb67)" d="M 278.068182 442.08 
L 283.140909 442.08 
L 283.140909 297.651918 
L 278.068182 297.651918 
z
" style="fill:#1f77b4;"/>
   </g>
   <g id="patch_151">
    <path clip-path="url(#p2a9720cb67)" d="M 283.140909 442.08 
L 288.213636 442.08 
L 288.213636 289.700825 
L 283.140909 289.700825 
z
" style="fill:#1f77b4;"/>
   </g>
   <g id="patch_152">
    <path clip-path="url(#p2a9720cb67)" d="M 288.213636 442.08 
L 293.286364 442.08 
L 293.286364 282.856846 
L 288.213636 282.856846 
z
" style="fill:#1f77b4;"/>
   </g>
   <g id="patch_153">
    <path clip-path="url(#p2a9720cb67)" d="M 293.286364 442.08 
L 298.359091 442.08 
L 298.359091 276.314808 
L 293.286364 276.314808 
z
" style="fill:#1f77b4;"/>
   </g>
   <g id="patch_154">
    <path clip-path="url(#p2a9720cb67)" d="M 298.359091 442.08 
L 303.431818 442.08 
L 303.431818 268.464361 
L 298.359091 268.464361 
z
" style="fill:#1f77b4;"/>
   </g>
   <g id="patch_155">
    <path clip-path="url(#p2a9720cb67)" d="M 303.431818 442.08 
L 308.504545 442.08 
L 308.504545 261.922323 
L 303.431818 261.922323 
z
" style="fill:#1f77b4;"/>
   </g>
   <g id="patch_156">
    <path clip-path="url(#p2a9720cb67)" d="M 308.504545 442.08 
L 313.577273 442.08 
L 313.577273 255.380284 
L 308.504545 255.380284 
z
" style="fill:#1f77b4;"/>
   </g>
   <g id="patch_157">
    <path clip-path="url(#p2a9720cb67)" d="M 313.577273 442.08 
L 318.65 442.08 
L 318.65 260.010035 
L 313.577273 260.010035 
z
" style="fill:#1f77b4;"/>
   </g>
   <g id="patch_158">
    <path clip-path="url(#p2a9720cb67)" d="M 318.65 442.08 
L 323.722727 442.08 
L 323.722727 253.82026 
L 318.65 253.82026 
z
" style="fill:#1f77b4;"/>
   </g>
   <g id="patch_159">
    <path clip-path="url(#p2a9720cb67)" d="M 323.722727 442.08 
L 328.795455 442.08 
L 328.795455 254.927374 
L 323.722727 254.927374 
z
" style="fill:#1f77b4;"/>
   </g>
   <g id="patch_160">
    <path clip-path="url(#p2a9720cb67)" d="M 328.795455 442.08 
L 333.868182 442.08 
L 333.868182 268.967595 
L 328.795455 268.967595 
z
" style="fill:#1f77b4;"/>
   </g>
   <g id="patch_161">
    <path clip-path="url(#p2a9720cb67)" d="M 333.868182 442.08 
L 338.940909 442.08 
L 338.940909 266.602397 
L 333.868182 266.602397 
z
" style="fill:#1f77b4;"/>
   </g>
   <g id="patch_162">
    <path clip-path="url(#p2a9720cb67)" d="M 338.940909 442.08 
L 344.013636 442.08 
L 344.013636 277.874832 
L 338.940909 277.874832 
z
" style="fill:#1f77b4;"/>
   </g>
   <g id="patch_163">
    <path clip-path="url(#p2a9720cb67)" d="M 344.013636 442.08 
L 349.086364 442.08 
L 349.086364 279.686474 
L 344.013636 279.686474 
z
" style="fill:#1f77b4;"/>
   </g>
   <g id="patch_164">
    <path clip-path="url(#p2a9720cb67)" d="M 349.086364 442.08 
L 354.159091 442.08 
L 354.159091 287.53692 
L 349.086364 287.53692 
z
" style="fill:#1f77b4;"/>
   </g>
   <g id="patch_165">
    <path clip-path="url(#p2a9720cb67)" d="M 354.159091 442.08 
L 359.231818 442.08 
L 359.231818 294.431222 
L 354.159091 294.431222 
z
" style="fill:#1f77b4;"/>
   </g>
   <g id="patch_166">
    <path clip-path="url(#p2a9720cb67)" d="M 359.231818 442.08 
L 364.304545 442.08 
L 364.304545 304.193957 
L 359.231818 304.193957 
z
" style="fill:#1f77b4;"/>
   </g>
   <g id="patch_167">
    <path clip-path="url(#p2a9720cb67)" d="M 364.304545 442.08 
L 369.377273 442.08 
L 369.377273 315.315422 
L 364.304545 315.315422 
z
" style="fill:#1f77b4;"/>
   </g>
   <g id="patch_168">
    <path clip-path="url(#p2a9720cb67)" d="M 369.377273 442.08 
L 374.45 442.08 
L 374.45 323.165868 
L 369.377273 323.165868 
z
" style="fill:#1f77b4;"/>
   </g>
   <g id="patch_169">
    <path clip-path="url(#p2a9720cb67)" d="M 374.45 442.08 
L 379.522727 442.08 
L 379.522727 335.495095 
L 374.45 335.495095 
z
" style="fill:#1f77b4;"/>
   </g>
   <g id="patch_170">
    <path clip-path="url(#p2a9720cb67)" d="M 379.522727 442.08 
L 384.595455 442.08 
L 384.595455 345.912033 
L 379.522727 345.912033 
z
" style="fill:#1f77b4;"/>
   </g>
   <g id="patch_171">
    <path clip-path="url(#p2a9720cb67)" d="M 384.595455 442.08 
L 389.668182 442.08 
L 389.668182 358.69417 
L 384.595455 358.69417 
z
" style="fill:#1f77b4;"/>
   </g>
   <g id="patch_172">
    <path clip-path="url(#p2a9720cb67)" d="M 389.668182 442.08 
L 394.740909 442.08 
L 394.740909 367.400114 
L 389.668182 367.400114 
z
" style="fill:#1f77b4;"/>
   </g>
   <g id="patch_173">
    <path clip-path="url(#p2a9720cb67)" d="M 394.740909 442.08 
L 399.813636 442.08 
L 399.813636 376.458321 
L 394.740909 376.458321 
z
" style="fill:#1f77b4;"/>
   </g>
   <g id="patch_174">
    <path clip-path="url(#p2a9720cb67)" d="M 399.813636 442.08 
L 404.886364 442.08 
L 404.886364 387.227523 
L 399.813636 387.227523 
z
" style="fill:#1f77b4;"/>
   </g>
   <g id="patch_175">
    <path clip-path="url(#p2a9720cb67)" d="M 404.886364 442.08 
L 409.959091 442.08 
L 409.959091 387.32817 
L 404.886364 387.32817 
z
" style="fill:#1f77b4;"/>
   </g>
   <g id="patch_176">
    <path clip-path="url(#p2a9720cb67)" d="M 409.959091 442.08 
L 415.031818 442.08 
L 415.031818 399.909013 
L 409.959091 399.909013 
z
" style="fill:#1f77b4;"/>
   </g>
   <g id="patch_177">
    <path clip-path="url(#p2a9720cb67)" d="M 415.031818 442.08 
L 420.104545 442.08 
L 420.104545 404.136176 
L 415.031818 404.136176 
z
" style="fill:#1f77b4;"/>
   </g>
   <g id="patch_178">
    <path clip-path="url(#p2a9720cb67)" d="M 420.104545 442.08 
L 425.177273 442.08 
L 425.177273 408.916897 
L 420.104545 408.916897 
z
" style="fill:#1f77b4;"/>
   </g>
   <g id="patch_179">
    <path clip-path="url(#p2a9720cb67)" d="M 425.177273 442.08 
L 430.25 442.08 
L 430.25 416.56605 
L 425.177273 416.56605 
z
" style="fill:#1f77b4;"/>
   </g>
   <g id="patch_180">
    <path clip-path="url(#p2a9720cb67)" d="M 430.25 442.08 
L 435.322727 442.08 
L 435.322727 419.031895 
L 430.25 419.031895 
z
" style="fill:#1f77b4;"/>
   </g>
   <g id="patch_181">
    <path clip-path="url(#p2a9720cb67)" d="M 435.322727 442.08 
L 440.395455 442.08 
L 440.395455 424.064232 
L 435.322727 424.064232 
z
" style="fill:#1f77b4;"/>
   </g>
   <g id="patch_182">
    <path clip-path="url(#p2a9720cb67)" d="M 440.395455 442.08 
L 445.468182 442.08 
L 445.468182 427.989455 
L 440.395455 427.989455 
z
" style="fill:#1f77b4;"/>
   </g>
   <g id="patch_183">
    <path clip-path="url(#p2a9720cb67)" d="M 445.468182 442.08 
L 450.540909 442.08 
L 450.540909 430.455301 
L 445.468182 430.455301 
z
" style="fill:#1f77b4;"/>
   </g>
   <g id="patch_184">
    <path clip-path="url(#p2a9720cb67)" d="M 450.540909 442.08 
L 455.613636 442.08 
L 455.613636 430.908211 
L 450.540909 430.908211 
z
" style="fill:#1f77b4;"/>
   </g>
   <g id="patch_185">
    <path clip-path="url(#p2a9720cb67)" d="M 455.613636 442.08 
L 460.686364 442.08 
L 460.686364 434.581817 
L 455.613636 434.581817 
z
" style="fill:#1f77b4;"/>
   </g>
   <g id="patch_186">
    <path clip-path="url(#p2a9720cb67)" d="M 460.686364 442.08 
L 465.759091 442.08 
L 465.759091 435.890225 
L 460.686364 435.890225 
z
" style="fill:#1f77b4;"/>
   </g>
   <g id="patch_187">
    <path clip-path="url(#p2a9720cb67)" d="M 465.759091 442.08 
L 470.831818 442.08 
L 470.831818 437.500573 
L 465.759091 437.500573 
z
" style="fill:#1f77b4;"/>
   </g>
   <g id="patch_188">
    <path clip-path="url(#p2a9720cb67)" d="M 470.831818 442.08 
L 475.904545 442.08 
L 475.904545 438.959951 
L 470.831818 438.959951 
z
" style="fill:#1f77b4;"/>
   </g>
   <g id="patch_189">
    <path clip-path="url(#p2a9720cb67)" d="M 475.904545 442.08 
L 480.977273 442.08 
L 480.977273 439.865772 
L 475.904545 439.865772 
z
" style="fill:#1f77b4;"/>
   </g>
   <g id="patch_190">
    <path clip-path="url(#p2a9720cb67)" d="M 480.977273 442.08 
L 486.05 442.08 
L 486.05 439.916095 
L 480.977273 439.916095 
z
" style="fill:#1f77b4;"/>
   </g>
   <g id="patch_191">
    <path clip-path="url(#p2a9720cb67)" d="M 486.05 442.08 
L 491.122727 442.08 
L 491.122727 440.469652 
L 486.05 440.469652 
z
" style="fill:#1f77b4;"/>
   </g>
   <g id="patch_192">
    <path clip-path="url(#p2a9720cb67)" d="M 491.122727 442.08 
L 496.195455 442.08 
L 496.195455 440.872239 
L 491.122727 440.872239 
z
" style="fill:#1f77b4;"/>
   </g>
   <g id="patch_193">
    <path clip-path="url(#p2a9720cb67)" d="M 496.195455 442.08 
L 501.268182 442.08 
L 501.268182 441.425796 
L 496.195455 441.425796 
z
" style="fill:#1f77b4;"/>
   </g>
   <g id="patch_194">
    <path clip-path="url(#p2a9720cb67)" d="M 501.268182 442.08 
L 506.340909 442.08 
L 506.340909 441.375473 
L 501.268182 441.375473 
z
" style="fill:#1f77b4;"/>
   </g>
   <g id="patch_195">
    <path clip-path="url(#p2a9720cb67)" d="M 506.340909 442.08 
L 511.413636 442.08 
L 511.413636 441.677413 
L 506.340909 441.677413 
z
" style="fill:#1f77b4;"/>
   </g>
   <g id="patch_196">
    <path clip-path="url(#p2a9720cb67)" d="M 511.413636 442.08 
L 516.486364 442.08 
L 516.486364 441.828383 
L 511.413636 441.828383 
z
" style="fill:#1f77b4;"/>
   </g>
   <g id="patch_197">
    <path clip-path="url(#p2a9720cb67)" d="M 516.486364 442.08 
L 521.559091 442.08 
L 521.559091 441.828383 
L 516.486364 441.828383 
z
" style="fill:#1f77b4;"/>
   </g>
   <g id="patch_198">
    <path clip-path="url(#p2a9720cb67)" d="M 521.559091 442.08 
L 526.631818 442.08 
L 526.631818 442.08 
L 521.559091 442.08 
z
" style="fill:#1f77b4;"/>
   </g>
   <g id="patch_199">
    <path clip-path="url(#p2a9720cb67)" d="M 526.631818 442.08 
L 531.704545 442.08 
L 531.704545 442.029677 
L 526.631818 442.029677 
z
" style="fill:#1f77b4;"/>
   </g>
   <g id="patch_200">
    <path clip-path="url(#p2a9720cb67)" d="M 531.704545 442.08 
L 536.777273 442.08 
L 536.777273 441.979353 
L 531.704545 441.979353 
z
" style="fill:#1f77b4;"/>
   </g>
   <g id="patch_201">
    <path clip-path="url(#p2a9720cb67)" d="M 536.777273 442.08 
L 541.85 442.08 
L 541.85 442.029677 
L 536.777273 442.029677 
z
" style="fill:#1f77b4;"/>
   </g>
   <g id="patch_202">
    <path clip-path="url(#p2a9720cb67)" d="M 541.85 442.08 
L 546.922727 442.08 
L 546.922727 442.08 
L 541.85 442.08 
z
" style="fill:#1f77b4;"/>
   </g>
   <g id="patch_203">
    <path clip-path="url(#p2a9720cb67)" d="M 546.922727 442.08 
L 551.995455 442.08 
L 551.995455 442.08 
L 546.922727 442.08 
z
" style="fill:#1f77b4;"/>
   </g>
   <g id="patch_204">
    <path clip-path="url(#p2a9720cb67)" d="M 551.995455 442.08 
L 557.068182 442.08 
L 557.068182 442.08 
L 551.995455 442.08 
z
" style="fill:#1f77b4;"/>
   </g>
   <g id="patch_205">
    <path clip-path="url(#p2a9720cb67)" d="M 557.068182 442.08 
L 562.140909 442.08 
L 562.140909 442.029677 
L 557.068182 442.029677 
z
" style="fill:#1f77b4;"/>
   </g>
   <g id="patch_206">
    <path clip-path="url(#p2a9720cb67)" d="M 562.140909 442.08 
L 567.213636 442.08 
L 567.213636 442.08 
L 562.140909 442.08 
z
" style="fill:#1f77b4;"/>
   </g>
   <g id="patch_207">
    <path clip-path="url(#p2a9720cb67)" d="M 567.213636 442.08 
L 572.286364 442.08 
L 572.286364 442.029677 
L 567.213636 442.029677 
z
" style="fill:#1f77b4;"/>
   </g>
   <g id="matplotlib.axis_3">
    <g id="xtick_7">
     <g id="line2d_13">
      <g>
       <use style="stroke:#000000;stroke-width:0.8;" x="97.617756" xlink:href="#m84d7b8d45f" y="442.08"/>
      </g>
     </g>
     <g id="text_13">
      <!-- 4 -->
      <g transform="translate(90.246662 456.678437)scale(0.1 -0.1)">
       <defs>
        <path d="M 10.59375 35.5 
L 73.1875 35.5 
L 73.1875 27.203125 
L 10.59375 27.203125 
z
" id="DejaVuSans-8722"/>
       </defs>
       <use xlink:href="#DejaVuSans-8722"/>
       <use x="83.789062" xlink:href="#DejaVuSans-52"/>
      </g>
     </g>
    </g>
    <g id="xtick_8">
     <g id="line2d_14">
      <g>
       <use style="stroke:#000000;stroke-width:0.8;" x="208.27255" xlink:href="#m84d7b8d45f" y="442.08"/>
      </g>
     </g>
     <g id="text_14">
      <!-- 2 -->
      <g transform="translate(200.901457 456.678437)scale(0.1 -0.1)">
       <use xlink:href="#DejaVuSans-8722"/>
       <use x="83.789062" xlink:href="#DejaVuSans-50"/>
      </g>
     </g>
    </g>
    <g id="xtick_9">
     <g id="line2d_15">
      <g>
       <use style="stroke:#000000;stroke-width:0.8;" x="318.927345" xlink:href="#m84d7b8d45f" y="442.08"/>
      </g>
     </g>
     <g id="text_15">
      <!-- 0 -->
      <g transform="translate(315.746095 456.678437)scale(0.1 -0.1)">
       <use xlink:href="#DejaVuSans-48"/>
      </g>
     </g>
    </g>
    <g id="xtick_10">
     <g id="line2d_16">
      <g>
       <use style="stroke:#000000;stroke-width:0.8;" x="429.582139" xlink:href="#m84d7b8d45f" y="442.08"/>
      </g>
     </g>
     <g id="text_16">
      <!-- 2 -->
      <g transform="translate(426.400889 456.678437)scale(0.1 -0.1)">
       <use xlink:href="#DejaVuSans-50"/>
      </g>
     </g>
    </g>
    <g id="xtick_11">
     <g id="line2d_17">
      <g>
       <use style="stroke:#000000;stroke-width:0.8;" x="540.236934" xlink:href="#m84d7b8d45f" y="442.08"/>
      </g>
     </g>
     <g id="text_17">
      <!-- 4 -->
      <g transform="translate(537.055684 456.678437)scale(0.1 -0.1)">
       <use xlink:href="#DejaVuSans-52"/>
      </g>
     </g>
    </g>
   </g>
   <g id="matplotlib.axis_4">
    <g id="ytick_7">
     <g id="line2d_18">
      <g>
       <use style="stroke:#000000;stroke-width:0.8;" x="39.65" xlink:href="#m74ee21769d" y="442.08"/>
      </g>
     </g>
     <g id="text_18">
      <!-- 0 -->
      <g transform="translate(26.2875 445.879219)scale(0.1 -0.1)">
       <use xlink:href="#DejaVuSans-48"/>
      </g>
     </g>
    </g>
    <g id="ytick_8">
     <g id="line2d_19">
      <g>
       <use style="stroke:#000000;stroke-width:0.8;" x="39.65" xlink:href="#m74ee21769d" y="416.918313"/>
      </g>
     </g>
     <g id="text_19">
      <!-- 500 -->
      <g transform="translate(13.5625 420.717532)scale(0.1 -0.1)">
       <defs>
        <path d="M 10.796875 72.90625 
L 49.515625 72.90625 
L 49.515625 64.59375 
L 19.828125 64.59375 
L 19.828125 46.734375 
Q 21.96875 47.46875 24.109375 47.828125 
Q 26.265625 48.1875 28.421875 48.1875 
Q 40.625 48.1875 47.75 41.5 
Q 54.890625 34.8125 54.890625 23.390625 
Q 54.890625 11.625 47.5625 5.09375 
Q 40.234375 -1.421875 26.90625 -1.421875 
Q 22.3125 -1.421875 17.546875 -0.640625 
Q 12.796875 0.140625 7.71875 1.703125 
L 7.71875 11.625 
Q 12.109375 9.234375 16.796875 8.0625 
Q 21.484375 6.890625 26.703125 6.890625 
Q 35.15625 6.890625 40.078125 11.328125 
Q 45.015625 15.765625 45.015625 23.390625 
Q 45.015625 31 40.078125 35.4375 
Q 35.15625 39.890625 26.703125 39.890625 
Q 22.75 39.890625 18.8125 39.015625 
Q 14.890625 38.140625 10.796875 36.28125 
z
" id="DejaVuSans-53"/>
       </defs>
       <use xlink:href="#DejaVuSans-53"/>
       <use x="63.623047" xlink:href="#DejaVuSans-48"/>
       <use x="127.246094" xlink:href="#DejaVuSans-48"/>
      </g>
     </g>
    </g>
    <g id="ytick_9">
     <g id="line2d_20">
      <g>
       <use style="stroke:#000000;stroke-width:0.8;" x="39.65" xlink:href="#m74ee21769d" y="391.756627"/>
      </g>
     </g>
     <g id="text_20">
      <!-- 1000 -->
      <g transform="translate(7.2 395.555845)scale(0.1 -0.1)">
       <use xlink:href="#DejaVuSans-49"/>
       <use x="63.623047" xlink:href="#DejaVuSans-48"/>
       <use x="127.246094" xlink:href="#DejaVuSans-48"/>
       <use x="190.869141" xlink:href="#DejaVuSans-48"/>
      </g>
     </g>
    </g>
    <g id="ytick_10">
     <g id="line2d_21">
      <g>
       <use style="stroke:#000000;stroke-width:0.8;" x="39.65" xlink:href="#m74ee21769d" y="366.59494"/>
      </g>
     </g>
     <g id="text_21">
      <!-- 1500 -->
      <g transform="translate(7.2 370.394159)scale(0.1 -0.1)">
       <use xlink:href="#DejaVuSans-49"/>
       <use x="63.623047" xlink:href="#DejaVuSans-53"/>
       <use x="127.246094" xlink:href="#DejaVuSans-48"/>
       <use x="190.869141" xlink:href="#DejaVuSans-48"/>
      </g>
     </g>
    </g>
    <g id="ytick_11">
     <g id="line2d_22">
      <g>
       <use style="stroke:#000000;stroke-width:0.8;" x="39.65" xlink:href="#m74ee21769d" y="341.433253"/>
      </g>
     </g>
     <g id="text_22">
      <!-- 2000 -->
      <g transform="translate(7.2 345.232472)scale(0.1 -0.1)">
       <use xlink:href="#DejaVuSans-50"/>
       <use x="63.623047" xlink:href="#DejaVuSans-48"/>
       <use x="127.246094" xlink:href="#DejaVuSans-48"/>
       <use x="190.869141" xlink:href="#DejaVuSans-48"/>
      </g>
     </g>
    </g>
    <g id="ytick_12">
     <g id="line2d_23">
      <g>
       <use style="stroke:#000000;stroke-width:0.8;" x="39.65" xlink:href="#m74ee21769d" y="316.271566"/>
      </g>
     </g>
     <g id="text_23">
      <!-- 2500 -->
      <g transform="translate(7.2 320.070785)scale(0.1 -0.1)">
       <use xlink:href="#DejaVuSans-50"/>
       <use x="63.623047" xlink:href="#DejaVuSans-53"/>
       <use x="127.246094" xlink:href="#DejaVuSans-48"/>
       <use x="190.869141" xlink:href="#DejaVuSans-48"/>
      </g>
     </g>
    </g>
    <g id="ytick_13">
     <g id="line2d_24">
      <g>
       <use style="stroke:#000000;stroke-width:0.8;" x="39.65" xlink:href="#m74ee21769d" y="291.10988"/>
      </g>
     </g>
     <g id="text_24">
      <!-- 3000 -->
      <g transform="translate(7.2 294.909098)scale(0.1 -0.1)">
       <defs>
        <path d="M 40.578125 39.3125 
Q 47.65625 37.796875 51.625 33 
Q 55.609375 28.21875 55.609375 21.1875 
Q 55.609375 10.40625 48.1875 4.484375 
Q 40.765625 -1.421875 27.09375 -1.421875 
Q 22.515625 -1.421875 17.65625 -0.515625 
Q 12.796875 0.390625 7.625 2.203125 
L 7.625 11.71875 
Q 11.71875 9.328125 16.59375 8.109375 
Q 21.484375 6.890625 26.8125 6.890625 
Q 36.078125 6.890625 40.9375 10.546875 
Q 45.796875 14.203125 45.796875 21.1875 
Q 45.796875 27.640625 41.28125 31.265625 
Q 36.765625 34.90625 28.71875 34.90625 
L 20.21875 34.90625 
L 20.21875 43.015625 
L 29.109375 43.015625 
Q 36.375 43.015625 40.234375 45.921875 
Q 44.09375 48.828125 44.09375 54.296875 
Q 44.09375 59.90625 40.109375 62.90625 
Q 36.140625 65.921875 28.71875 65.921875 
Q 24.65625 65.921875 20.015625 65.03125 
Q 15.375 64.15625 9.8125 62.3125 
L 9.8125 71.09375 
Q 15.4375 72.65625 20.34375 73.4375 
Q 25.25 74.21875 29.59375 74.21875 
Q 40.828125 74.21875 47.359375 69.109375 
Q 53.90625 64.015625 53.90625 55.328125 
Q 53.90625 49.265625 50.4375 45.09375 
Q 46.96875 40.921875 40.578125 39.3125 
z
" id="DejaVuSans-51"/>
       </defs>
       <use xlink:href="#DejaVuSans-51"/>
       <use x="63.623047" xlink:href="#DejaVuSans-48"/>
       <use x="127.246094" xlink:href="#DejaVuSans-48"/>
       <use x="190.869141" xlink:href="#DejaVuSans-48"/>
      </g>
     </g>
    </g>
    <g id="ytick_14">
     <g id="line2d_25">
      <g>
       <use style="stroke:#000000;stroke-width:0.8;" x="39.65" xlink:href="#m74ee21769d" y="265.948193"/>
      </g>
     </g>
     <g id="text_25">
      <!-- 3500 -->
      <g transform="translate(7.2 269.747412)scale(0.1 -0.1)">
       <use xlink:href="#DejaVuSans-51"/>
       <use x="63.623047" xlink:href="#DejaVuSans-53"/>
       <use x="127.246094" xlink:href="#DejaVuSans-48"/>
       <use x="190.869141" xlink:href="#DejaVuSans-48"/>
      </g>
     </g>
    </g>
   </g>
   <g id="patch_208">
    <path d="M 39.65 442.08 
L 39.65 244.407273 
" style="fill:none;stroke:#000000;stroke-linecap:square;stroke-linejoin:miter;stroke-width:0.8;"/>
   </g>
   <g id="patch_209">
    <path d="M 597.65 442.08 
L 597.65 244.407273 
" style="fill:none;stroke:#000000;stroke-linecap:square;stroke-linejoin:miter;stroke-width:0.8;"/>
   </g>
   <g id="patch_210">
    <path d="M 39.65 442.08 
L 597.65 442.08 
" style="fill:none;stroke:#000000;stroke-linecap:square;stroke-linejoin:miter;stroke-width:0.8;"/>
   </g>
   <g id="patch_211">
    <path d="M 39.65 244.407273 
L 597.65 244.407273 
" style="fill:none;stroke:#000000;stroke-linecap:square;stroke-linejoin:miter;stroke-width:0.8;"/>
   </g>
  </g>
 </g>
 <defs>
  <clipPath id="p25a9f78085">
   <rect height="197.672727" width="558" x="39.65" y="7.2"/>
  </clipPath>
  <clipPath id="p2a9720cb67">
   <rect height="197.672727" width="558" x="39.65" y="244.407273"/>
  </clipPath>
 </defs>
</svg>
