<?xml version="1.0" encoding="utf-8" standalone="no"?>
<!DOCTYPE svg PUBLIC "-//W3C//DTD SVG 1.1//EN"
  "http://www.w3.org/Graphics/SVG/1.1/DTD/svg11.dtd">
<!-- Created with matplotlib (https://matplotlib.org/) -->
<svg height="683.398125pt" version="1.1" viewBox="0 0 706.903125 683.398125" width="706.903125pt" xmlns="http://www.w3.org/2000/svg" xmlns:xlink="http://www.w3.org/1999/xlink">
 <defs>
  <style type="text/css">
*{stroke-linecap:butt;stroke-linejoin:round;}
  </style>
 </defs>
 <g id="figure_1">
  <g id="patch_1">
   <path d="M 0 683.398125 
L 706.903125 683.398125 
L 706.903125 0 
L 0 0 
z
" style="fill:none;"/>
  </g>
  <g id="axes_1">
   <g id="patch_2">
    <path d="M 30.103125 659.52 
L 699.703125 659.52 
L 699.703125 7.2 
L 30.103125 7.2 
z
" style="fill:#ffffff;"/>
   </g>
   <g id="matplotlib.axis_1">
    <g id="xtick_1">
     <g id="line2d_1">
      <defs>
       <path d="M 0 0 
L 0 3.5 
" id="m222d2d77f7" style="stroke:#000000;stroke-width:0.8;"/>
      </defs>
      <g>
       <use style="stroke:#000000;stroke-width:0.8;" x="60.539489" xlink:href="#m222d2d77f7" y="659.52"/>
      </g>
     </g>
     <g id="text_1">
      <!-- 0.0 -->
      <defs>
       <path d="M 31.78125 66.40625 
Q 24.171875 66.40625 20.328125 58.90625 
Q 16.5 51.421875 16.5 36.375 
Q 16.5 21.390625 20.328125 13.890625 
Q 24.171875 6.390625 31.78125 6.390625 
Q 39.453125 6.390625 43.28125 13.890625 
Q 47.125 21.390625 47.125 36.375 
Q 47.125 51.421875 43.28125 58.90625 
Q 39.453125 66.40625 31.78125 66.40625 
z
M 31.78125 74.21875 
Q 44.046875 74.21875 50.515625 64.515625 
Q 56.984375 54.828125 56.984375 36.375 
Q 56.984375 17.96875 50.515625 8.265625 
Q 44.046875 -1.421875 31.78125 -1.421875 
Q 19.53125 -1.421875 13.0625 8.265625 
Q 6.59375 17.96875 6.59375 36.375 
Q 6.59375 54.828125 13.0625 64.515625 
Q 19.53125 74.21875 31.78125 74.21875 
z
" id="DejaVuSans-48"/>
       <path d="M 10.6875 12.40625 
L 21 12.40625 
L 21 0 
L 10.6875 0 
z
" id="DejaVuSans-46"/>
      </defs>
      <g transform="translate(52.587926 674.118438)scale(0.1 -0.1)">
       <use xlink:href="#DejaVuSans-48"/>
       <use x="63.623047" xlink:href="#DejaVuSans-46"/>
       <use x="95.410156" xlink:href="#DejaVuSans-48"/>
      </g>
     </g>
    </g>
    <g id="xtick_2">
     <g id="line2d_2">
      <g>
       <use style="stroke:#000000;stroke-width:0.8;" x="182.762376" xlink:href="#m222d2d77f7" y="659.52"/>
      </g>
     </g>
     <g id="text_2">
      <!-- 0.2 -->
      <defs>
       <path d="M 19.1875 8.296875 
L 53.609375 8.296875 
L 53.609375 0 
L 7.328125 0 
L 7.328125 8.296875 
Q 12.9375 14.109375 22.625 23.890625 
Q 32.328125 33.6875 34.8125 36.53125 
Q 39.546875 41.84375 41.421875 45.53125 
Q 43.3125 49.21875 43.3125 52.78125 
Q 43.3125 58.59375 39.234375 62.25 
Q 35.15625 65.921875 28.609375 65.921875 
Q 23.96875 65.921875 18.8125 64.3125 
Q 13.671875 62.703125 7.8125 59.421875 
L 7.8125 69.390625 
Q 13.765625 71.78125 18.9375 73 
Q 24.125 74.21875 28.421875 74.21875 
Q 39.75 74.21875 46.484375 68.546875 
Q 53.21875 62.890625 53.21875 53.421875 
Q 53.21875 48.921875 51.53125 44.890625 
Q 49.859375 40.875 45.40625 35.40625 
Q 44.1875 33.984375 37.640625 27.21875 
Q 31.109375 20.453125 19.1875 8.296875 
z
" id="DejaVuSans-50"/>
      </defs>
      <g transform="translate(174.810814 674.118438)scale(0.1 -0.1)">
       <use xlink:href="#DejaVuSans-48"/>
       <use x="63.623047" xlink:href="#DejaVuSans-46"/>
       <use x="95.410156" xlink:href="#DejaVuSans-50"/>
      </g>
     </g>
    </g>
    <g id="xtick_3">
     <g id="line2d_3">
      <g>
       <use style="stroke:#000000;stroke-width:0.8;" x="304.985264" xlink:href="#m222d2d77f7" y="659.52"/>
      </g>
     </g>
     <g id="text_3">
      <!-- 0.4 -->
      <defs>
       <path d="M 37.796875 64.3125 
L 12.890625 25.390625 
L 37.796875 25.390625 
z
M 35.203125 72.90625 
L 47.609375 72.90625 
L 47.609375 25.390625 
L 58.015625 25.390625 
L 58.015625 17.1875 
L 47.609375 17.1875 
L 47.609375 0 
L 37.796875 0 
L 37.796875 17.1875 
L 4.890625 17.1875 
L 4.890625 26.703125 
z
" id="DejaVuSans-52"/>
      </defs>
      <g transform="translate(297.033702 674.118438)scale(0.1 -0.1)">
       <use xlink:href="#DejaVuSans-48"/>
       <use x="63.623047" xlink:href="#DejaVuSans-46"/>
       <use x="95.410156" xlink:href="#DejaVuSans-52"/>
      </g>
     </g>
    </g>
    <g id="xtick_4">
     <g id="line2d_4">
      <g>
       <use style="stroke:#000000;stroke-width:0.8;" x="427.208152" xlink:href="#m222d2d77f7" y="659.52"/>
      </g>
     </g>
     <g id="text_4">
      <!-- 0.6 -->
      <defs>
       <path d="M 33.015625 40.375 
Q 26.375 40.375 22.484375 35.828125 
Q 18.609375 31.296875 18.609375 23.390625 
Q 18.609375 15.53125 22.484375 10.953125 
Q 26.375 6.390625 33.015625 6.390625 
Q 39.65625 6.390625 43.53125 10.953125 
Q 47.40625 15.53125 47.40625 23.390625 
Q 47.40625 31.296875 43.53125 35.828125 
Q 39.65625 40.375 33.015625 40.375 
z
M 52.59375 71.296875 
L 52.59375 62.3125 
Q 48.875 64.0625 45.09375 64.984375 
Q 41.3125 65.921875 37.59375 65.921875 
Q 27.828125 65.921875 22.671875 59.328125 
Q 17.53125 52.734375 16.796875 39.40625 
Q 19.671875 43.65625 24.015625 45.921875 
Q 28.375 48.1875 33.59375 48.1875 
Q 44.578125 48.1875 50.953125 41.515625 
Q 57.328125 34.859375 57.328125 23.390625 
Q 57.328125 12.15625 50.6875 5.359375 
Q 44.046875 -1.421875 33.015625 -1.421875 
Q 20.359375 -1.421875 13.671875 8.265625 
Q 6.984375 17.96875 6.984375 36.375 
Q 6.984375 53.65625 15.1875 63.9375 
Q 23.390625 74.21875 37.203125 74.21875 
Q 40.921875 74.21875 44.703125 73.484375 
Q 48.484375 72.75 52.59375 71.296875 
z
" id="DejaVuSans-54"/>
      </defs>
      <g transform="translate(419.256589 674.118438)scale(0.1 -0.1)">
       <use xlink:href="#DejaVuSans-48"/>
       <use x="63.623047" xlink:href="#DejaVuSans-46"/>
       <use x="95.410156" xlink:href="#DejaVuSans-54"/>
      </g>
     </g>
    </g>
    <g id="xtick_5">
     <g id="line2d_5">
      <g>
       <use style="stroke:#000000;stroke-width:0.8;" x="549.431039" xlink:href="#m222d2d77f7" y="659.52"/>
      </g>
     </g>
     <g id="text_5">
      <!-- 0.8 -->
      <defs>
       <path d="M 31.78125 34.625 
Q 24.75 34.625 20.71875 30.859375 
Q 16.703125 27.09375 16.703125 20.515625 
Q 16.703125 13.921875 20.71875 10.15625 
Q 24.75 6.390625 31.78125 6.390625 
Q 38.8125 6.390625 42.859375 10.171875 
Q 46.921875 13.96875 46.921875 20.515625 
Q 46.921875 27.09375 42.890625 30.859375 
Q 38.875 34.625 31.78125 34.625 
z
M 21.921875 38.8125 
Q 15.578125 40.375 12.03125 44.71875 
Q 8.5 49.078125 8.5 55.328125 
Q 8.5 64.0625 14.71875 69.140625 
Q 20.953125 74.21875 31.78125 74.21875 
Q 42.671875 74.21875 48.875 69.140625 
Q 55.078125 64.0625 55.078125 55.328125 
Q 55.078125 49.078125 51.53125 44.71875 
Q 48 40.375 41.703125 38.8125 
Q 48.828125 37.15625 52.796875 32.3125 
Q 56.78125 27.484375 56.78125 20.515625 
Q 56.78125 9.90625 50.3125 4.234375 
Q 43.84375 -1.421875 31.78125 -1.421875 
Q 19.734375 -1.421875 13.25 4.234375 
Q 6.78125 9.90625 6.78125 20.515625 
Q 6.78125 27.484375 10.78125 32.3125 
Q 14.796875 37.15625 21.921875 38.8125 
z
M 18.3125 54.390625 
Q 18.3125 48.734375 21.84375 45.5625 
Q 25.390625 42.390625 31.78125 42.390625 
Q 38.140625 42.390625 41.71875 45.5625 
Q 45.3125 48.734375 45.3125 54.390625 
Q 45.3125 60.0625 41.71875 63.234375 
Q 38.140625 66.40625 31.78125 66.40625 
Q 25.390625 66.40625 21.84375 63.234375 
Q 18.3125 60.0625 18.3125 54.390625 
z
" id="DejaVuSans-56"/>
      </defs>
      <g transform="translate(541.479477 674.118438)scale(0.1 -0.1)">
       <use xlink:href="#DejaVuSans-48"/>
       <use x="63.623047" xlink:href="#DejaVuSans-46"/>
       <use x="95.410156" xlink:href="#DejaVuSans-56"/>
      </g>
     </g>
    </g>
    <g id="xtick_6">
     <g id="line2d_6">
      <g>
       <use style="stroke:#000000;stroke-width:0.8;" x="671.653927" xlink:href="#m222d2d77f7" y="659.52"/>
      </g>
     </g>
     <g id="text_6">
      <!-- 1.0 -->
      <defs>
       <path d="M 12.40625 8.296875 
L 28.515625 8.296875 
L 28.515625 63.921875 
L 10.984375 60.40625 
L 10.984375 69.390625 
L 28.421875 72.90625 
L 38.28125 72.90625 
L 38.28125 8.296875 
L 54.390625 8.296875 
L 54.390625 0 
L 12.40625 0 
z
" id="DejaVuSans-49"/>
      </defs>
      <g transform="translate(663.702365 674.118438)scale(0.1 -0.1)">
       <use xlink:href="#DejaVuSans-49"/>
       <use x="63.623047" xlink:href="#DejaVuSans-46"/>
       <use x="95.410156" xlink:href="#DejaVuSans-48"/>
      </g>
     </g>
    </g>
   </g>
   <g id="matplotlib.axis_2">
    <g id="ytick_1">
     <g id="line2d_7">
      <defs>
       <path d="M 0 0 
L -3.5 0 
" id="m5d871a57ff" style="stroke:#000000;stroke-width:0.8;"/>
      </defs>
      <g>
       <use style="stroke:#000000;stroke-width:0.8;" x="30.103125" xlink:href="#m5d871a57ff" y="629.869091"/>
      </g>
     </g>
     <g id="text_7">
      <!-- 0.0 -->
      <g transform="translate(7.2 633.66831)scale(0.1 -0.1)">
       <use xlink:href="#DejaVuSans-48"/>
       <use x="63.623047" xlink:href="#DejaVuSans-46"/>
       <use x="95.410156" xlink:href="#DejaVuSans-48"/>
      </g>
     </g>
    </g>
    <g id="ytick_2">
     <g id="line2d_8">
      <g>
       <use style="stroke:#000000;stroke-width:0.8;" x="30.103125" xlink:href="#m5d871a57ff" y="511.262888"/>
      </g>
     </g>
     <g id="text_8">
      <!-- 0.2 -->
      <g transform="translate(7.2 515.062107)scale(0.1 -0.1)">
       <use xlink:href="#DejaVuSans-48"/>
       <use x="63.623047" xlink:href="#DejaVuSans-46"/>
       <use x="95.410156" xlink:href="#DejaVuSans-50"/>
      </g>
     </g>
    </g>
    <g id="ytick_3">
     <g id="line2d_9">
      <g>
       <use style="stroke:#000000;stroke-width:0.8;" x="30.103125" xlink:href="#m5d871a57ff" y="392.656686"/>
      </g>
     </g>
     <g id="text_9">
      <!-- 0.4 -->
      <g transform="translate(7.2 396.455905)scale(0.1 -0.1)">
       <use xlink:href="#DejaVuSans-48"/>
       <use x="63.623047" xlink:href="#DejaVuSans-46"/>
       <use x="95.410156" xlink:href="#DejaVuSans-52"/>
      </g>
     </g>
    </g>
    <g id="ytick_4">
     <g id="line2d_10">
      <g>
       <use style="stroke:#000000;stroke-width:0.8;" x="30.103125" xlink:href="#m5d871a57ff" y="274.050484"/>
      </g>
     </g>
     <g id="text_10">
      <!-- 0.6 -->
      <g transform="translate(7.2 277.849702)scale(0.1 -0.1)">
       <use xlink:href="#DejaVuSans-48"/>
       <use x="63.623047" xlink:href="#DejaVuSans-46"/>
       <use x="95.410156" xlink:href="#DejaVuSans-54"/>
      </g>
     </g>
    </g>
    <g id="ytick_5">
     <g id="line2d_11">
      <g>
       <use style="stroke:#000000;stroke-width:0.8;" x="30.103125" xlink:href="#m5d871a57ff" y="155.444281"/>
      </g>
     </g>
     <g id="text_11">
      <!-- 0.8 -->
      <g transform="translate(7.2 159.2435)scale(0.1 -0.1)">
       <use xlink:href="#DejaVuSans-48"/>
       <use x="63.623047" xlink:href="#DejaVuSans-46"/>
       <use x="95.410156" xlink:href="#DejaVuSans-56"/>
      </g>
     </g>
    </g>
    <g id="ytick_6">
     <g id="line2d_12">
      <g>
       <use style="stroke:#000000;stroke-width:0.8;" x="30.103125" xlink:href="#m5d871a57ff" y="36.838079"/>
      </g>
     </g>
     <g id="text_12">
      <!-- 1.0 -->
      <g transform="translate(7.2 40.637298)scale(0.1 -0.1)">
       <use xlink:href="#DejaVuSans-49"/>
       <use x="63.623047" xlink:href="#DejaVuSans-46"/>
       <use x="95.410156" xlink:href="#DejaVuSans-48"/>
      </g>
     </g>
    </g>
   </g>
   <g id="line2d_13">
    <path clip-path="url(#p67ae2351c2)" d="M 60.539489 629.869091 
L 74.862483 617.914753 
L 91.572644 603.651092 
L 108.282804 589.055086 
L 124.992965 574.13756 
L 141.703125 558.9108 
L 158.413285 543.388551 
L 175.123446 527.585994 
L 194.220772 509.204036 
L 213.318098 490.504602 
L 234.80259 469.124597 
L 256.287082 447.424249 
L 280.15874 422.994898 
L 308.804729 393.332257 
L 344.612216 355.902154 
L 430.550184 265.929825 
L 459.196173 236.352131 
L 483.067831 212.016753 
L 504.552323 190.418047 
L 526.036815 169.154878 
L 545.134141 150.571199 
L 564.231467 132.315361 
L 580.941628 116.630985 
L 597.651788 101.233598 
L 614.361949 86.137769 
L 631.072109 71.356618 
L 647.782269 56.901806 
L 664.49243 42.783529 
L 669.266761 38.812809 
L 669.266761 38.812809 
" style="fill:none;stroke:#1f77b4;stroke-linecap:square;stroke-width:1.5;"/>
   </g>
   <g id="line2d_14">
    <path clip-path="url(#p67ae2351c2)" d="M 60.539489 629.869091 
L 70.088152 624.636547 
L 79.636815 619.153556 
L 89.185478 613.413189 
L 98.734141 607.4089 
L 108.282804 601.134606 
L 117.831467 594.584767 
L 127.38013 587.754468 
L 136.928793 580.639507 
L 146.477457 573.236481 
L 156.02612 565.542875 
L 165.574783 557.557154 
L 175.123446 549.278846 
L 184.672109 540.708627 
L 194.220772 531.848402 
L 203.769435 522.701375 
L 213.318098 513.272117 
L 222.866761 503.566621 
L 232.415424 493.592345 
L 244.351253 480.760311 
L 256.287082 467.54322 
L 268.222911 453.965563 
L 280.15874 440.055442 
L 294.481735 422.969119 
L 308.804729 405.510346 
L 325.51489 384.76028 
L 344.612216 360.683701 
L 413.840023 273.010219 
L 430.550184 252.424917 
L 444.873178 235.144391 
L 456.809007 221.049728 
L 468.744836 207.268995 
L 480.680665 193.832392 
L 492.616494 180.76659 
L 504.552323 168.094613 
L 514.100986 158.253702 
L 523.649649 148.685486 
L 533.198312 139.396684 
L 542.746975 130.392573 
L 552.295638 121.677033 
L 561.844301 113.25261 
L 571.392965 105.120585 
L 580.941628 97.28105 
L 590.490291 89.732989 
L 600.038954 82.474367 
L 609.587617 75.502214 
L 619.13628 68.812717 
L 628.684943 62.401306 
L 638.233606 56.262743 
L 647.782269 50.391206 
L 657.330932 44.780371 
L 666.879596 39.423492 
L 669.266761 38.123127 
L 669.266761 38.123127 
" style="fill:none;stroke:#ff7f0e;stroke-linecap:square;stroke-width:1.5;"/>
   </g>
   <g id="line2d_15">
    <path clip-path="url(#p67ae2351c2)" d="M 60.539489 629.869091 
L 72.475318 628.037126 
L 82.023981 626.360674 
L 91.572644 624.472249 
L 101.121307 622.346685 
L 110.66997 619.956273 
L 117.831467 617.971484 
L 124.992965 615.806842 
L 132.154462 613.447609 
L 139.315959 610.878143 
L 146.477457 608.081903 
L 153.638954 605.041469 
L 160.800451 601.738581 
L 167.961949 598.154199 
L 175.123446 594.268581 
L 182.284943 590.061404 
L 189.446441 585.511896 
L 196.607938 580.599027 
L 203.769435 575.30172 
L 210.930932 569.599112 
L 215.705264 565.562129 
L 220.479596 561.330126 
L 225.253927 556.897495 
L 230.028259 552.258905 
L 234.80259 547.409361 
L 239.576922 542.344264 
L 244.351253 537.059476 
L 249.125585 531.551386 
L 256.287082 522.86415 
L 263.44858 513.660583 
L 270.610077 503.937312 
L 277.771574 493.695388 
L 284.933072 482.940768 
L 292.094569 471.684739 
L 299.256066 459.944261 
L 306.417564 447.742214 
L 313.579061 435.107511 
L 320.740558 422.075072 
L 330.289221 404.151007 
L 339.837884 385.704394 
L 351.773713 362.105017 
L 375.645371 314.154833 
L 389.968366 285.681552 
L 399.517029 267.123531 
L 409.065692 249.057749 
L 416.227189 235.901507 
L 423.388686 223.130052 
L 430.550184 210.780275 
L 437.711681 198.883102 
L 444.873178 187.463417 
L 452.034676 176.540133 
L 459.196173 166.126393 
L 466.35767 156.229889 
L 473.519168 146.853253 
L 480.680665 137.994534 
L 487.842162 129.647694 
L 495.00366 121.803143 
L 499.777991 116.84637 
L 504.552323 112.102905 
L 511.71382 105.377044 
L 518.875318 99.102531 
L 526.036815 93.260267 
L 533.198312 87.830159 
L 540.359809 82.791481 
L 547.521307 78.123197 
L 554.682804 73.804234 
L 561.844301 69.813713 
L 569.005799 66.131144 
L 576.167296 62.736577 
L 583.328793 59.610728 
L 590.490291 56.735067 
L 597.651788 54.091892 
L 604.813285 51.664364 
L 611.974783 49.43654 
L 619.13628 47.393382 
L 628.684943 44.932118 
L 638.233606 42.743042 
L 647.782269 40.797789 
L 657.330932 39.070569 
L 666.879596 37.538024 
L 669.266761 37.182786 
L 669.266761 37.182786 
" style="fill:none;stroke:#2ca02c;stroke-linecap:square;stroke-width:1.5;"/>
   </g>
   <g id="line2d_16">
    <path clip-path="url(#p67ae2351c2)" d="M 60.539489 629.869091 
L 93.959809 629.590929 
L 117.831467 629.177252 
L 134.541628 628.689465 
L 148.864622 628.064318 
L 160.800451 627.332643 
L 170.349114 626.560298 
L 179.897777 625.571543 
L 187.059275 624.652679 
L 194.220772 623.548127 
L 201.382269 622.221291 
L 208.543767 620.628783 
L 215.705264 618.719339 
L 220.479596 617.240932 
L 225.253927 615.574727 
L 230.028259 613.69819 
L 234.80259 611.586444 
L 239.576922 609.212125 
L 244.351253 606.54526 
L 249.125585 603.553172 
L 253.899916 600.200439 
L 258.674248 596.448904 
L 263.44858 592.25777 
L 268.222911 587.583802 
L 272.997243 582.381643 
L 277.771574 576.6043 
L 282.545906 570.203795 
L 287.320237 563.132029 
L 292.094569 555.341874 
L 296.8689 546.788494 
L 301.643232 537.43092 
L 306.417564 527.233846 
L 311.191895 516.169611 
L 315.966227 504.220314 
L 320.740558 491.379962 
L 325.51489 477.656539 
L 330.289221 463.073842 
L 335.063553 447.672929 
L 339.837884 431.513011 
L 344.612216 414.671636 
L 351.773713 388.344635 
L 358.935211 361.089361 
L 380.419703 278.362535 
L 387.5812 252.035534 
L 392.355531 235.194158 
L 397.129863 219.034241 
L 401.904195 203.633328 
L 406.678526 189.050631 
L 411.452858 175.327208 
L 416.227189 162.486856 
L 421.001521 150.537559 
L 425.775852 139.473323 
L 430.550184 129.276249 
L 435.324515 119.918676 
L 440.098847 111.365296 
L 444.873178 103.57514 
L 449.64751 96.503375 
L 454.421842 90.10287 
L 459.196173 84.325527 
L 463.970505 79.123368 
L 468.744836 74.449399 
L 473.519168 70.258266 
L 478.293499 66.506731 
L 483.067831 63.153998 
L 487.842162 60.16191 
L 492.616494 57.495044 
L 497.390826 55.120725 
L 502.165157 53.008979 
L 506.939489 51.132443 
L 511.71382 49.466238 
L 516.488152 47.987831 
L 521.262483 46.676873 
L 528.423981 44.984837 
L 535.585478 43.57463 
L 542.746975 42.400364 
L 549.908473 41.423292 
L 559.457136 40.371683 
L 569.005799 39.550082 
L 580.941628 38.77162 
L 595.264622 38.106399 
L 611.974783 37.58728 
L 633.459275 37.179717 
L 662.105264 36.894577 
L 669.266761 36.850909 
L 669.266761 36.850909 
" style="fill:none;stroke:#d62728;stroke-linecap:square;stroke-width:1.5;"/>
   </g>
   <g id="patch_3">
    <path d="M 30.103125 659.52 
L 30.103125 7.2 
" style="fill:none;stroke:#000000;stroke-linecap:square;stroke-linejoin:miter;stroke-width:0.8;"/>
   </g>
   <g id="patch_4">
    <path d="M 699.703125 659.52 
L 699.703125 7.2 
" style="fill:none;stroke:#000000;stroke-linecap:square;stroke-linejoin:miter;stroke-width:0.8;"/>
   </g>
   <g id="patch_5">
    <path d="M 30.103125 659.52 
L 699.703125 659.52 
" style="fill:none;stroke:#000000;stroke-linecap:square;stroke-linejoin:miter;stroke-width:0.8;"/>
   </g>
   <g id="patch_6">
    <path d="M 30.103125 7.2 
L 699.703125 7.2 
" style="fill:none;stroke:#000000;stroke-linecap:square;stroke-linejoin:miter;stroke-width:0.8;"/>
   </g>
  </g>
 </g>
 <defs>
  <clipPath id="p67ae2351c2">
   <rect height="652.32" width="669.6" x="30.103125" y="7.2"/>
  </clipPath>
 </defs>
</svg>
