<?xml version="1.0" encoding="utf-8" standalone="no"?>
<!DOCTYPE svg PUBLIC "-//W3C//DTD SVG 1.1//EN"
  "http://www.w3.org/Graphics/SVG/1.1/DTD/svg11.dtd">
<!-- Created with matplotlib (https://matplotlib.org/) -->
<svg height="248.518125pt" version="1.1" viewBox="0 0 375.2875 248.518125" width="375.2875pt" xmlns="http://www.w3.org/2000/svg" xmlns:xlink="http://www.w3.org/1999/xlink">
 <defs>
  <style type="text/css">
*{stroke-linecap:butt;stroke-linejoin:round;}
  </style>
 </defs>
 <g id="figure_1">
  <g id="patch_1">
   <path d="M 0 248.518125 
L 375.2875 248.518125 
L 375.2875 0 
L 0 0 
z
" style="fill:none;"/>
  </g>
  <g id="axes_1">
   <g id="patch_2">
    <path d="M 33.2875 224.64 
L 368.0875 224.64 
L 368.0875 7.2 
L 33.2875 7.2 
z
" style="fill:#ffffff;"/>
   </g>
   <g id="matplotlib.axis_1">
    <g id="xtick_1">
     <g id="line2d_1">
      <defs>
       <path d="M 0 0 
L 0 3.5 
" id="mb28b0b05fb" style="stroke:#000000;stroke-width:0.8;"/>
      </defs>
      <g>
       <use style="stroke:#000000;stroke-width:0.8;" x="48.505682" xlink:href="#mb28b0b05fb" y="224.64"/>
      </g>
     </g>
     <g id="text_1">
      <!-- 0 -->
      <defs>
       <path d="M 31.78125 66.40625 
Q 24.171875 66.40625 20.328125 58.90625 
Q 16.5 51.421875 16.5 36.375 
Q 16.5 21.390625 20.328125 13.890625 
Q 24.171875 6.390625 31.78125 6.390625 
Q 39.453125 6.390625 43.28125 13.890625 
Q 47.125 21.390625 47.125 36.375 
Q 47.125 51.421875 43.28125 58.90625 
Q 39.453125 66.40625 31.78125 66.40625 
z
M 31.78125 74.21875 
Q 44.046875 74.21875 50.515625 64.515625 
Q 56.984375 54.828125 56.984375 36.375 
Q 56.984375 17.96875 50.515625 8.265625 
Q 44.046875 -1.421875 31.78125 -1.421875 
Q 19.53125 -1.421875 13.0625 8.265625 
Q 6.59375 17.96875 6.59375 36.375 
Q 6.59375 54.828125 13.0625 64.515625 
Q 19.53125 74.21875 31.78125 74.21875 
z
" id="DejaVuSans-48"/>
      </defs>
      <g transform="translate(45.324432 239.238437)scale(0.1 -0.1)">
       <use xlink:href="#DejaVuSans-48"/>
      </g>
     </g>
    </g>
    <g id="xtick_2">
     <g id="line2d_2">
      <g>
       <use style="stroke:#000000;stroke-width:0.8;" x="108.184826" xlink:href="#mb28b0b05fb" y="224.64"/>
      </g>
     </g>
     <g id="text_2">
      <!-- 50 -->
      <defs>
       <path d="M 10.796875 72.90625 
L 49.515625 72.90625 
L 49.515625 64.59375 
L 19.828125 64.59375 
L 19.828125 46.734375 
Q 21.96875 47.46875 24.109375 47.828125 
Q 26.265625 48.1875 28.421875 48.1875 
Q 40.625 48.1875 47.75 41.5 
Q 54.890625 34.8125 54.890625 23.390625 
Q 54.890625 11.625 47.5625 5.09375 
Q 40.234375 -1.421875 26.90625 -1.421875 
Q 22.3125 -1.421875 17.546875 -0.640625 
Q 12.796875 0.140625 7.71875 1.703125 
L 7.71875 11.625 
Q 12.109375 9.234375 16.796875 8.0625 
Q 21.484375 6.890625 26.703125 6.890625 
Q 35.15625 6.890625 40.078125 11.328125 
Q 45.015625 15.765625 45.015625 23.390625 
Q 45.015625 31 40.078125 35.4375 
Q 35.15625 39.890625 26.703125 39.890625 
Q 22.75 39.890625 18.8125 39.015625 
Q 14.890625 38.140625 10.796875 36.28125 
z
" id="DejaVuSans-53"/>
      </defs>
      <g transform="translate(101.822326 239.238437)scale(0.1 -0.1)">
       <use xlink:href="#DejaVuSans-53"/>
       <use x="63.623047" xlink:href="#DejaVuSans-48"/>
      </g>
     </g>
    </g>
    <g id="xtick_3">
     <g id="line2d_3">
      <g>
       <use style="stroke:#000000;stroke-width:0.8;" x="167.863971" xlink:href="#mb28b0b05fb" y="224.64"/>
      </g>
     </g>
     <g id="text_3">
      <!-- 100 -->
      <defs>
       <path d="M 12.40625 8.296875 
L 28.515625 8.296875 
L 28.515625 63.921875 
L 10.984375 60.40625 
L 10.984375 69.390625 
L 28.421875 72.90625 
L 38.28125 72.90625 
L 38.28125 8.296875 
L 54.390625 8.296875 
L 54.390625 0 
L 12.40625 0 
z
" id="DejaVuSans-49"/>
      </defs>
      <g transform="translate(158.320221 239.238437)scale(0.1 -0.1)">
       <use xlink:href="#DejaVuSans-49"/>
       <use x="63.623047" xlink:href="#DejaVuSans-48"/>
       <use x="127.246094" xlink:href="#DejaVuSans-48"/>
      </g>
     </g>
    </g>
    <g id="xtick_4">
     <g id="line2d_4">
      <g>
       <use style="stroke:#000000;stroke-width:0.8;" x="227.543115" xlink:href="#mb28b0b05fb" y="224.64"/>
      </g>
     </g>
     <g id="text_4">
      <!-- 150 -->
      <g transform="translate(217.999365 239.238437)scale(0.1 -0.1)">
       <use xlink:href="#DejaVuSans-49"/>
       <use x="63.623047" xlink:href="#DejaVuSans-53"/>
       <use x="127.246094" xlink:href="#DejaVuSans-48"/>
      </g>
     </g>
    </g>
    <g id="xtick_5">
     <g id="line2d_5">
      <g>
       <use style="stroke:#000000;stroke-width:0.8;" x="287.222259" xlink:href="#mb28b0b05fb" y="224.64"/>
      </g>
     </g>
     <g id="text_5">
      <!-- 200 -->
      <defs>
       <path d="M 19.1875 8.296875 
L 53.609375 8.296875 
L 53.609375 0 
L 7.328125 0 
L 7.328125 8.296875 
Q 12.9375 14.109375 22.625 23.890625 
Q 32.328125 33.6875 34.8125 36.53125 
Q 39.546875 41.84375 41.421875 45.53125 
Q 43.3125 49.21875 43.3125 52.78125 
Q 43.3125 58.59375 39.234375 62.25 
Q 35.15625 65.921875 28.609375 65.921875 
Q 23.96875 65.921875 18.8125 64.3125 
Q 13.671875 62.703125 7.8125 59.421875 
L 7.8125 69.390625 
Q 13.765625 71.78125 18.9375 73 
Q 24.125 74.21875 28.421875 74.21875 
Q 39.75 74.21875 46.484375 68.546875 
Q 53.21875 62.890625 53.21875 53.421875 
Q 53.21875 48.921875 51.53125 44.890625 
Q 49.859375 40.875 45.40625 35.40625 
Q 44.1875 33.984375 37.640625 27.21875 
Q 31.109375 20.453125 19.1875 8.296875 
z
" id="DejaVuSans-50"/>
      </defs>
      <g transform="translate(277.678509 239.238437)scale(0.1 -0.1)">
       <use xlink:href="#DejaVuSans-50"/>
       <use x="63.623047" xlink:href="#DejaVuSans-48"/>
       <use x="127.246094" xlink:href="#DejaVuSans-48"/>
      </g>
     </g>
    </g>
    <g id="xtick_6">
     <g id="line2d_6">
      <g>
       <use style="stroke:#000000;stroke-width:0.8;" x="346.901404" xlink:href="#mb28b0b05fb" y="224.64"/>
      </g>
     </g>
     <g id="text_6">
      <!-- 250 -->
      <g transform="translate(337.357654 239.238437)scale(0.1 -0.1)">
       <use xlink:href="#DejaVuSans-50"/>
       <use x="63.623047" xlink:href="#DejaVuSans-53"/>
       <use x="127.246094" xlink:href="#DejaVuSans-48"/>
      </g>
     </g>
    </g>
   </g>
   <g id="matplotlib.axis_2">
    <g id="ytick_1">
     <g id="line2d_7">
      <defs>
       <path d="M 0 0 
L -3.5 0 
" id="m93facb2178" style="stroke:#000000;stroke-width:0.8;"/>
      </defs>
      <g>
       <use style="stroke:#000000;stroke-width:0.8;" x="33.2875" xlink:href="#m93facb2178" y="214.756364"/>
      </g>
     </g>
     <g id="text_7">
      <!-- 0 -->
      <g transform="translate(19.925 218.555582)scale(0.1 -0.1)">
       <use xlink:href="#DejaVuSans-48"/>
      </g>
     </g>
    </g>
    <g id="ytick_2">
     <g id="line2d_8">
      <g>
       <use style="stroke:#000000;stroke-width:0.8;" x="33.2875" xlink:href="#m93facb2178" y="175.997005"/>
      </g>
     </g>
     <g id="text_8">
      <!-- 50 -->
      <g transform="translate(13.5625 179.796224)scale(0.1 -0.1)">
       <use xlink:href="#DejaVuSans-53"/>
       <use x="63.623047" xlink:href="#DejaVuSans-48"/>
      </g>
     </g>
    </g>
    <g id="ytick_3">
     <g id="line2d_9">
      <g>
       <use style="stroke:#000000;stroke-width:0.8;" x="33.2875" xlink:href="#m93facb2178" y="137.237647"/>
      </g>
     </g>
     <g id="text_9">
      <!-- 100 -->
      <g transform="translate(7.2 141.036866)scale(0.1 -0.1)">
       <use xlink:href="#DejaVuSans-49"/>
       <use x="63.623047" xlink:href="#DejaVuSans-48"/>
       <use x="127.246094" xlink:href="#DejaVuSans-48"/>
      </g>
     </g>
    </g>
    <g id="ytick_4">
     <g id="line2d_10">
      <g>
       <use style="stroke:#000000;stroke-width:0.8;" x="33.2875" xlink:href="#m93facb2178" y="98.478289"/>
      </g>
     </g>
     <g id="text_10">
      <!-- 150 -->
      <g transform="translate(7.2 102.277508)scale(0.1 -0.1)">
       <use xlink:href="#DejaVuSans-49"/>
       <use x="63.623047" xlink:href="#DejaVuSans-53"/>
       <use x="127.246094" xlink:href="#DejaVuSans-48"/>
      </g>
     </g>
    </g>
    <g id="ytick_5">
     <g id="line2d_11">
      <g>
       <use style="stroke:#000000;stroke-width:0.8;" x="33.2875" xlink:href="#m93facb2178" y="59.71893"/>
      </g>
     </g>
     <g id="text_11">
      <!-- 200 -->
      <g transform="translate(7.2 63.518149)scale(0.1 -0.1)">
       <use xlink:href="#DejaVuSans-50"/>
       <use x="63.623047" xlink:href="#DejaVuSans-48"/>
       <use x="127.246094" xlink:href="#DejaVuSans-48"/>
      </g>
     </g>
    </g>
    <g id="ytick_6">
     <g id="line2d_12">
      <g>
       <use style="stroke:#000000;stroke-width:0.8;" x="33.2875" xlink:href="#m93facb2178" y="20.959572"/>
      </g>
     </g>
     <g id="text_12">
      <!-- 250 -->
      <g transform="translate(7.2 24.758791)scale(0.1 -0.1)">
       <use xlink:href="#DejaVuSans-50"/>
       <use x="63.623047" xlink:href="#DejaVuSans-53"/>
       <use x="127.246094" xlink:href="#DejaVuSans-48"/>
      </g>
     </g>
    </g>
   </g>
   <g id="line2d_13">
    <path clip-path="url(#pfdfcff4564)" d="M 48.505682 214.756364 
L 352.869318 17.083636 
L 352.869318 17.083636 
" style="fill:none;stroke:#1f77b4;stroke-linecap:square;stroke-width:1.5;"/>
   </g>
   <g id="line2d_14">
    <path clip-path="url(#pfdfcff4564)" d="M 48.505682 214.756364 
L 86.700334 214.756364 
L 93.861832 210.105241 
L 95.055414 208.554866 
L 102.216912 203.903743 
L 103.410495 202.353369 
L 110.571992 197.702246 
L 111.765575 196.151872 
L 118.927072 191.500749 
L 120.120655 189.950374 
L 127.282152 185.299251 
L 128.475735 183.748877 
L 135.637233 179.097754 
L 136.830816 177.54738 
L 143.992313 172.896257 
L 145.185896 171.345882 
L 152.347393 166.694759 
L 153.540976 165.144385 
L 160.702473 160.493262 
L 161.896056 158.942888 
L 169.057553 154.291765 
L 170.251136 152.74139 
L 177.412634 148.090267 
L 178.606217 146.539893 
L 185.767714 141.88877 
L 186.961297 140.338396 
L 194.122794 135.687273 
L 195.316377 134.136898 
L 202.477874 129.485775 
L 203.671457 127.935401 
L 210.832955 123.284278 
L 212.026537 121.733904 
L 219.188035 117.082781 
L 220.381618 115.532406 
L 227.543115 110.881283 
L 228.736698 109.330909 
L 235.898195 104.679786 
L 237.091778 103.129412 
L 244.253275 98.478289 
L 245.446858 96.927914 
L 252.608356 92.276791 
L 253.801939 90.726417 
L 260.963436 86.075294 
L 262.157019 84.52492 
L 269.318516 79.873797 
L 270.512099 78.323422 
L 277.673596 73.672299 
L 278.867179 72.121925 
L 286.028676 67.470802 
L 287.222259 65.920428 
L 294.383757 61.269305 
L 295.57734 59.71893 
L 302.738837 55.067807 
L 303.93242 53.517433 
L 311.093917 48.86631 
L 312.2875 47.315936 
L 319.448997 42.664813 
L 320.64258 41.114439 
L 327.804078 36.463316 
L 328.99766 34.912941 
L 336.159158 30.261818 
L 337.352741 28.711444 
L 344.514238 24.060321 
L 345.707821 22.509947 
L 351.675735 18.634011 
L 352.869318 17.083636 
L 352.869318 17.083636 
" style="fill:none;stroke:#ff7f0e;stroke-linecap:square;stroke-width:1.5;"/>
   </g>
   <g id="line2d_15">
    <path clip-path="url(#pfdfcff4564)" d="M 48.505682 214.756364 
L 124.894987 214.756364 
L 127.282152 213.205989 
L 128.475735 211.655615 
L 130.862901 210.105241 
L 132.056484 208.554866 
L 134.44365 207.004492 
L 135.637233 205.454118 
L 138.024398 203.903743 
L 139.217981 202.353369 
L 141.605147 200.802995 
L 142.79873 199.25262 
L 145.185896 197.702246 
L 146.379479 196.151872 
L 148.766644 194.601497 
L 149.960227 193.051123 
L 152.347393 191.500749 
L 153.540976 189.950374 
L 155.928142 188.4 
L 157.121725 186.849626 
L 159.50889 185.299251 
L 160.702473 183.748877 
L 163.089639 182.198503 
L 164.283222 180.648128 
L 166.670388 179.097754 
L 167.863971 177.54738 
L 170.251136 175.997005 
L 171.444719 174.446631 
L 173.831885 172.896257 
L 175.025468 171.345882 
L 177.412634 169.795508 
L 178.606217 168.245134 
L 180.993382 166.694759 
L 182.186965 165.144385 
L 184.574131 163.594011 
L 185.767714 162.043636 
L 188.15488 160.493262 
L 189.348463 158.942888 
L 191.735628 157.392513 
L 192.929211 155.842139 
L 195.316377 154.291765 
L 196.50996 152.74139 
L 198.897126 151.191016 
L 200.090709 149.640642 
L 202.477874 148.090267 
L 203.671457 146.539893 
L 206.058623 144.989519 
L 207.252206 143.439144 
L 209.639372 141.88877 
L 210.832955 140.338396 
L 213.22012 138.788021 
L 214.413703 137.237647 
L 216.800869 135.687273 
L 217.994452 134.136898 
L 220.381618 132.586524 
L 221.575201 131.03615 
L 223.962366 129.485775 
L 225.155949 127.935401 
L 227.543115 126.385027 
L 228.736698 124.834652 
L 231.123864 123.284278 
L 232.317447 121.733904 
L 234.704612 120.183529 
L 235.898195 118.633155 
L 238.285361 117.082781 
L 239.478944 115.532406 
L 241.86611 113.982032 
L 243.059693 112.431658 
L 245.446858 110.881283 
L 246.640441 109.330909 
L 249.027607 107.780535 
L 250.22119 106.23016 
L 252.608356 104.679786 
L 253.801939 103.129412 
L 256.189104 101.579037 
L 257.382687 100.028663 
L 259.769853 98.478289 
L 260.963436 96.927914 
L 263.350602 95.37754 
L 264.544184 93.827166 
L 266.93135 92.276791 
L 268.124933 90.726417 
L 270.512099 89.176043 
L 271.705682 87.625668 
L 274.092848 86.075294 
L 275.28643 84.52492 
L 277.673596 82.974545 
L 278.867179 81.424171 
L 281.254345 79.873797 
L 282.447928 78.323422 
L 284.835094 76.773048 
L 286.028676 75.222674 
L 288.415842 73.672299 
L 289.609425 72.121925 
L 291.996591 70.571551 
L 293.190174 69.021176 
L 295.57734 67.470802 
L 296.770922 65.920428 
L 299.158088 64.370053 
L 300.351671 62.819679 
L 302.738837 61.269305 
L 303.93242 59.71893 
L 306.319586 58.168556 
L 307.513168 56.618182 
L 309.900334 55.067807 
L 311.093917 53.517433 
L 313.481083 51.967059 
L 314.674666 50.416684 
L 317.061832 48.86631 
L 318.255414 47.315936 
L 320.64258 45.765561 
L 321.836163 44.215187 
L 324.223329 42.664813 
L 325.416912 41.114439 
L 327.804078 39.564064 
L 328.99766 38.01369 
L 331.384826 36.463316 
L 332.578409 34.912941 
L 334.965575 33.362567 
L 336.159158 31.812193 
L 338.546324 30.261818 
L 339.739906 28.711444 
L 342.127072 27.16107 
L 343.320655 25.610695 
L 345.707821 24.060321 
L 346.901404 22.509947 
L 349.28857 20.959572 
L 350.482152 19.409198 
L 352.869318 17.858824 
L 352.869318 17.858824 
" style="fill:none;stroke:#2ca02c;stroke-linecap:square;stroke-width:1.5;"/>
   </g>
   <g id="line2d_16">
    <path clip-path="url(#pfdfcff4564)" d="M 48.505682 214.756364 
L 201.284291 214.756364 
L 351.675735 19.409198 
L 352.869318 17.083636 
L 352.869318 17.083636 
" style="fill:none;stroke:#d62728;stroke-linecap:square;stroke-width:1.5;"/>
   </g>
   <g id="patch_3">
    <path d="M 33.2875 224.64 
L 33.2875 7.2 
" style="fill:none;stroke:#000000;stroke-linecap:square;stroke-linejoin:miter;stroke-width:0.8;"/>
   </g>
   <g id="patch_4">
    <path d="M 368.0875 224.64 
L 368.0875 7.2 
" style="fill:none;stroke:#000000;stroke-linecap:square;stroke-linejoin:miter;stroke-width:0.8;"/>
   </g>
   <g id="patch_5">
    <path d="M 33.2875 224.64 
L 368.0875 224.64 
" style="fill:none;stroke:#000000;stroke-linecap:square;stroke-linejoin:miter;stroke-width:0.8;"/>
   </g>
   <g id="patch_6">
    <path d="M 33.2875 7.2 
L 368.0875 7.2 
" style="fill:none;stroke:#000000;stroke-linecap:square;stroke-linejoin:miter;stroke-width:0.8;"/>
   </g>
  </g>
 </g>
 <defs>
  <clipPath id="pfdfcff4564">
   <rect height="217.44" width="334.8" x="33.2875" y="7.2"/>
  </clipPath>
 </defs>
</svg>
