<?xml version="1.0" encoding="utf-8" standalone="no"?>
<!DOCTYPE svg PUBLIC "-//W3C//DTD SVG 1.1//EN"
  "http://www.w3.org/Graphics/SVG/1.1/DTD/svg11.dtd">
<!-- Created with matplotlib (https://matplotlib.org/) -->
<svg height="248.518125pt" version="1.1" viewBox="0 0 375.2875 248.518125" width="375.2875pt" xmlns="http://www.w3.org/2000/svg" xmlns:xlink="http://www.w3.org/1999/xlink">
 <defs>
  <style type="text/css">
*{stroke-linecap:butt;stroke-linejoin:round;}
  </style>
 </defs>
 <g id="figure_1">
  <g id="patch_1">
   <path d="M 0 248.518125 
L 375.2875 248.518125 
L 375.2875 0 
L 0 0 
z
" style="fill:none;"/>
  </g>
  <g id="axes_1">
   <g id="patch_2">
    <path d="M 33.2875 224.64 
L 368.0875 224.64 
L 368.0875 7.2 
L 33.2875 7.2 
z
" style="fill:#ffffff;"/>
   </g>
   <g id="matplotlib.axis_1">
    <g id="xtick_1">
     <g id="line2d_1">
      <defs>
       <path d="M 0 0 
L 0 3.5 
" id="mf1b0f909cb" style="stroke:#000000;stroke-width:0.8;"/>
      </defs>
      <g>
       <use style="stroke:#000000;stroke-width:0.8;" x="48.505682" xlink:href="#mf1b0f909cb" y="224.64"/>
      </g>
     </g>
     <g id="text_1">
      <!-- 0 -->
      <defs>
       <path d="M 31.78125 66.40625 
Q 24.171875 66.40625 20.328125 58.90625 
Q 16.5 51.421875 16.5 36.375 
Q 16.5 21.390625 20.328125 13.890625 
Q 24.171875 6.390625 31.78125 6.390625 
Q 39.453125 6.390625 43.28125 13.890625 
Q 47.125 21.390625 47.125 36.375 
Q 47.125 51.421875 43.28125 58.90625 
Q 39.453125 66.40625 31.78125 66.40625 
z
M 31.78125 74.21875 
Q 44.046875 74.21875 50.515625 64.515625 
Q 56.984375 54.828125 56.984375 36.375 
Q 56.984375 17.96875 50.515625 8.265625 
Q 44.046875 -1.421875 31.78125 -1.421875 
Q 19.53125 -1.421875 13.0625 8.265625 
Q 6.59375 17.96875 6.59375 36.375 
Q 6.59375 54.828125 13.0625 64.515625 
Q 19.53125 74.21875 31.78125 74.21875 
z
" id="DejaVuSans-48"/>
      </defs>
      <g transform="translate(45.324432 239.238437)scale(0.1 -0.1)">
       <use xlink:href="#DejaVuSans-48"/>
      </g>
     </g>
    </g>
    <g id="xtick_2">
     <g id="line2d_2">
      <g>
       <use style="stroke:#000000;stroke-width:0.8;" x="108.184826" xlink:href="#mf1b0f909cb" y="224.64"/>
      </g>
     </g>
     <g id="text_2">
      <!-- 50 -->
      <defs>
       <path d="M 10.796875 72.90625 
L 49.515625 72.90625 
L 49.515625 64.59375 
L 19.828125 64.59375 
L 19.828125 46.734375 
Q 21.96875 47.46875 24.109375 47.828125 
Q 26.265625 48.1875 28.421875 48.1875 
Q 40.625 48.1875 47.75 41.5 
Q 54.890625 34.8125 54.890625 23.390625 
Q 54.890625 11.625 47.5625 5.09375 
Q 40.234375 -1.421875 26.90625 -1.421875 
Q 22.3125 -1.421875 17.546875 -0.640625 
Q 12.796875 0.140625 7.71875 1.703125 
L 7.71875 11.625 
Q 12.109375 9.234375 16.796875 8.0625 
Q 21.484375 6.890625 26.703125 6.890625 
Q 35.15625 6.890625 40.078125 11.328125 
Q 45.015625 15.765625 45.015625 23.390625 
Q 45.015625 31 40.078125 35.4375 
Q 35.15625 39.890625 26.703125 39.890625 
Q 22.75 39.890625 18.8125 39.015625 
Q 14.890625 38.140625 10.796875 36.28125 
z
" id="DejaVuSans-53"/>
      </defs>
      <g transform="translate(101.822326 239.238437)scale(0.1 -0.1)">
       <use xlink:href="#DejaVuSans-53"/>
       <use x="63.623047" xlink:href="#DejaVuSans-48"/>
      </g>
     </g>
    </g>
    <g id="xtick_3">
     <g id="line2d_3">
      <g>
       <use style="stroke:#000000;stroke-width:0.8;" x="167.863971" xlink:href="#mf1b0f909cb" y="224.64"/>
      </g>
     </g>
     <g id="text_3">
      <!-- 100 -->
      <defs>
       <path d="M 12.40625 8.296875 
L 28.515625 8.296875 
L 28.515625 63.921875 
L 10.984375 60.40625 
L 10.984375 69.390625 
L 28.421875 72.90625 
L 38.28125 72.90625 
L 38.28125 8.296875 
L 54.390625 8.296875 
L 54.390625 0 
L 12.40625 0 
z
" id="DejaVuSans-49"/>
      </defs>
      <g transform="translate(158.320221 239.238437)scale(0.1 -0.1)">
       <use xlink:href="#DejaVuSans-49"/>
       <use x="63.623047" xlink:href="#DejaVuSans-48"/>
       <use x="127.246094" xlink:href="#DejaVuSans-48"/>
      </g>
     </g>
    </g>
    <g id="xtick_4">
     <g id="line2d_4">
      <g>
       <use style="stroke:#000000;stroke-width:0.8;" x="227.543115" xlink:href="#mf1b0f909cb" y="224.64"/>
      </g>
     </g>
     <g id="text_4">
      <!-- 150 -->
      <g transform="translate(217.999365 239.238437)scale(0.1 -0.1)">
       <use xlink:href="#DejaVuSans-49"/>
       <use x="63.623047" xlink:href="#DejaVuSans-53"/>
       <use x="127.246094" xlink:href="#DejaVuSans-48"/>
      </g>
     </g>
    </g>
    <g id="xtick_5">
     <g id="line2d_5">
      <g>
       <use style="stroke:#000000;stroke-width:0.8;" x="287.222259" xlink:href="#mf1b0f909cb" y="224.64"/>
      </g>
     </g>
     <g id="text_5">
      <!-- 200 -->
      <defs>
       <path d="M 19.1875 8.296875 
L 53.609375 8.296875 
L 53.609375 0 
L 7.328125 0 
L 7.328125 8.296875 
Q 12.9375 14.109375 22.625 23.890625 
Q 32.328125 33.6875 34.8125 36.53125 
Q 39.546875 41.84375 41.421875 45.53125 
Q 43.3125 49.21875 43.3125 52.78125 
Q 43.3125 58.59375 39.234375 62.25 
Q 35.15625 65.921875 28.609375 65.921875 
Q 23.96875 65.921875 18.8125 64.3125 
Q 13.671875 62.703125 7.8125 59.421875 
L 7.8125 69.390625 
Q 13.765625 71.78125 18.9375 73 
Q 24.125 74.21875 28.421875 74.21875 
Q 39.75 74.21875 46.484375 68.546875 
Q 53.21875 62.890625 53.21875 53.421875 
Q 53.21875 48.921875 51.53125 44.890625 
Q 49.859375 40.875 45.40625 35.40625 
Q 44.1875 33.984375 37.640625 27.21875 
Q 31.109375 20.453125 19.1875 8.296875 
z
" id="DejaVuSans-50"/>
      </defs>
      <g transform="translate(277.678509 239.238437)scale(0.1 -0.1)">
       <use xlink:href="#DejaVuSans-50"/>
       <use x="63.623047" xlink:href="#DejaVuSans-48"/>
       <use x="127.246094" xlink:href="#DejaVuSans-48"/>
      </g>
     </g>
    </g>
    <g id="xtick_6">
     <g id="line2d_6">
      <g>
       <use style="stroke:#000000;stroke-width:0.8;" x="346.901404" xlink:href="#mf1b0f909cb" y="224.64"/>
      </g>
     </g>
     <g id="text_6">
      <!-- 250 -->
      <g transform="translate(337.357654 239.238437)scale(0.1 -0.1)">
       <use xlink:href="#DejaVuSans-50"/>
       <use x="63.623047" xlink:href="#DejaVuSans-53"/>
       <use x="127.246094" xlink:href="#DejaVuSans-48"/>
      </g>
     </g>
    </g>
   </g>
   <g id="matplotlib.axis_2">
    <g id="ytick_1">
     <g id="line2d_7">
      <defs>
       <path d="M 0 0 
L -3.5 0 
" id="m79365b7eae" style="stroke:#000000;stroke-width:0.8;"/>
      </defs>
      <g>
       <use style="stroke:#000000;stroke-width:0.8;" x="33.2875" xlink:href="#m79365b7eae" y="214.756364"/>
      </g>
     </g>
     <g id="text_7">
      <!-- 0 -->
      <g transform="translate(19.925 218.555582)scale(0.1 -0.1)">
       <use xlink:href="#DejaVuSans-48"/>
      </g>
     </g>
    </g>
    <g id="ytick_2">
     <g id="line2d_8">
      <g>
       <use style="stroke:#000000;stroke-width:0.8;" x="33.2875" xlink:href="#m79365b7eae" y="175.997005"/>
      </g>
     </g>
     <g id="text_8">
      <!-- 50 -->
      <g transform="translate(13.5625 179.796224)scale(0.1 -0.1)">
       <use xlink:href="#DejaVuSans-53"/>
       <use x="63.623047" xlink:href="#DejaVuSans-48"/>
      </g>
     </g>
    </g>
    <g id="ytick_3">
     <g id="line2d_9">
      <g>
       <use style="stroke:#000000;stroke-width:0.8;" x="33.2875" xlink:href="#m79365b7eae" y="137.237647"/>
      </g>
     </g>
     <g id="text_9">
      <!-- 100 -->
      <g transform="translate(7.2 141.036866)scale(0.1 -0.1)">
       <use xlink:href="#DejaVuSans-49"/>
       <use x="63.623047" xlink:href="#DejaVuSans-48"/>
       <use x="127.246094" xlink:href="#DejaVuSans-48"/>
      </g>
     </g>
    </g>
    <g id="ytick_4">
     <g id="line2d_10">
      <g>
       <use style="stroke:#000000;stroke-width:0.8;" x="33.2875" xlink:href="#m79365b7eae" y="98.478289"/>
      </g>
     </g>
     <g id="text_10">
      <!-- 150 -->
      <g transform="translate(7.2 102.277508)scale(0.1 -0.1)">
       <use xlink:href="#DejaVuSans-49"/>
       <use x="63.623047" xlink:href="#DejaVuSans-53"/>
       <use x="127.246094" xlink:href="#DejaVuSans-48"/>
      </g>
     </g>
    </g>
    <g id="ytick_5">
     <g id="line2d_11">
      <g>
       <use style="stroke:#000000;stroke-width:0.8;" x="33.2875" xlink:href="#m79365b7eae" y="59.71893"/>
      </g>
     </g>
     <g id="text_11">
      <!-- 200 -->
      <g transform="translate(7.2 63.518149)scale(0.1 -0.1)">
       <use xlink:href="#DejaVuSans-50"/>
       <use x="63.623047" xlink:href="#DejaVuSans-48"/>
       <use x="127.246094" xlink:href="#DejaVuSans-48"/>
      </g>
     </g>
    </g>
    <g id="ytick_6">
     <g id="line2d_12">
      <g>
       <use style="stroke:#000000;stroke-width:0.8;" x="33.2875" xlink:href="#m79365b7eae" y="20.959572"/>
      </g>
     </g>
     <g id="text_12">
      <!-- 250 -->
      <g transform="translate(7.2 24.758791)scale(0.1 -0.1)">
       <use xlink:href="#DejaVuSans-50"/>
       <use x="63.623047" xlink:href="#DejaVuSans-53"/>
       <use x="127.246094" xlink:href="#DejaVuSans-48"/>
      </g>
     </g>
    </g>
   </g>
   <g id="line2d_13">
    <path clip-path="url(#p0b4cd2cdcd)" d="M 48.505682 214.756364 
L 55.667179 214.646925 
L 62.828676 214.318611 
L 69.990174 213.77142 
L 77.151671 213.005353 
L 84.313168 212.020409 
L 91.474666 210.816589 
L 98.636163 209.393892 
L 105.79766 207.75232 
L 112.959158 205.89187 
L 120.120655 203.812545 
L 127.282152 201.514343 
L 134.44365 198.997265 
L 141.605147 196.26131 
L 148.766644 193.306479 
L 155.928142 190.132771 
L 163.089639 186.740187 
L 170.251136 183.128727 
L 177.412634 179.298391 
L 184.574131 175.249178 
L 192.929211 170.248461 
L 201.284291 164.949828 
L 209.639372 159.353281 
L 217.994452 153.458818 
L 226.349532 147.266441 
L 234.704612 140.776148 
L 243.059693 133.987941 
L 251.414773 126.901818 
L 259.769853 119.51778 
L 268.124933 111.835828 
L 276.480013 103.85596 
L 284.835094 95.578177 
L 293.190174 87.002479 
L 301.545254 78.128866 
L 309.900334 68.957338 
L 318.255414 59.487894 
L 326.610495 49.720536 
L 336.159158 38.193047 
L 345.707821 26.276444 
L 352.869318 17.083636 
L 352.869318 17.083636 
" style="fill:none;stroke:#1f77b4;stroke-linecap:square;stroke-width:1.5;"/>
   </g>
   <g id="line2d_14">
    <path clip-path="url(#p0b4cd2cdcd)" d="M 48.505682 214.756364 
L 352.869318 17.083636 
L 352.869318 17.083636 
" style="fill:none;stroke:#ff7f0e;stroke-linecap:square;stroke-width:1.5;"/>
   </g>
   <g id="line2d_15">
    <path clip-path="url(#p0b4cd2cdcd)" d="M 48.505682 214.756364 
L 49.699265 209.840649 
L 50.892848 206.953154 
L 52.08643 204.531266 
L 54.473596 200.382728 
L 56.860762 196.768262 
L 59.247928 193.487303 
L 62.828676 188.990732 
L 66.409425 184.857996 
L 71.183757 179.754672 
L 75.958088 175.000134 
L 81.926003 169.429188 
L 87.893917 164.182136 
L 95.055414 158.2241 
L 102.216912 152.565253 
L 110.571992 146.272404 
L 118.927072 140.256643 
L 128.475735 133.66589 
L 138.024398 127.333007 
L 148.766644 120.47204 
L 160.702473 113.130277 
L 172.638302 106.044854 
L 185.767714 98.508443 
L 200.090709 90.55612 
L 214.413703 82.850784 
L 229.930281 74.749597 
L 246.640441 66.279532 
L 264.544184 57.464708 
L 283.641511 48.326681 
L 302.738837 39.433037 
L 323.029746 30.224292 
L 344.514238 20.717933 
L 352.869318 17.083636 
L 352.869318 17.083636 
" style="fill:none;stroke:#2ca02c;stroke-linecap:square;stroke-width:1.5;"/>
   </g>
   <g id="line2d_16">
    <path clip-path="url(#p0b4cd2cdcd)" d="M 48.505682 214.756364 
L 49.699265 202.377617 
L 50.892848 197.250173 
L 52.08643 193.315746 
L 53.280013 189.998871 
L 55.667179 184.434751 
L 58.054345 179.743982 
L 60.441511 175.611331 
L 62.828676 171.875128 
L 66.409425 166.813685 
L 69.990174 162.237791 
L 73.570922 158.029821 
L 77.151671 154.113139 
L 81.926003 149.254195 
L 86.700334 144.7316 
L 91.474666 140.483886 
L 97.44258 135.493713 
L 103.410495 130.799621 
L 110.571992 125.491954 
L 117.733489 120.48264 
L 124.894987 115.726393 
L 133.250067 110.451193 
L 141.605147 105.430236 
L 151.15381 99.960593 
L 160.702473 94.739965 
L 171.444719 89.125809 
L 182.186965 83.752026 
L 194.122794 78.028641 
L 207.252206 71.997697 
L 220.381618 66.211407 
L 234.704612 60.145871 
L 250.22119 53.832661 
L 265.737767 47.757945 
L 282.447928 41.453915 
L 300.351671 34.944687 
L 319.448997 28.251744 
L 338.546324 21.790805 
L 352.869318 17.083636 
L 352.869318 17.083636 
" style="fill:none;stroke:#d62728;stroke-linecap:square;stroke-width:1.5;"/>
   </g>
   <g id="patch_3">
    <path d="M 33.2875 224.64 
L 33.2875 7.2 
" style="fill:none;stroke:#000000;stroke-linecap:square;stroke-linejoin:miter;stroke-width:0.8;"/>
   </g>
   <g id="patch_4">
    <path d="M 368.0875 224.64 
L 368.0875 7.2 
" style="fill:none;stroke:#000000;stroke-linecap:square;stroke-linejoin:miter;stroke-width:0.8;"/>
   </g>
   <g id="patch_5">
    <path d="M 33.2875 224.64 
L 368.0875 224.64 
" style="fill:none;stroke:#000000;stroke-linecap:square;stroke-linejoin:miter;stroke-width:0.8;"/>
   </g>
   <g id="patch_6">
    <path d="M 33.2875 7.2 
L 368.0875 7.2 
" style="fill:none;stroke:#000000;stroke-linecap:square;stroke-linejoin:miter;stroke-width:0.8;"/>
   </g>
   <g id="legend_1">
    <g id="patch_7">
     <path d="M 40.2875 73.9125 
L 88.190625 73.9125 
Q 90.190625 73.9125 90.190625 71.9125 
L 90.190625 14.2 
Q 90.190625 12.2 88.190625 12.2 
L 40.2875 12.2 
Q 38.2875 12.2 38.2875 14.2 
L 38.2875 71.9125 
Q 38.2875 73.9125 40.2875 73.9125 
z
" style="fill:#ffffff;opacity:0.8;stroke:#cccccc;stroke-linejoin:miter;"/>
    </g>
    <g id="line2d_17">
     <path d="M 42.2875 20.298437 
L 62.2875 20.298437 
" style="fill:none;stroke:#1f77b4;stroke-linecap:square;stroke-width:1.5;"/>
    </g>
    <g id="line2d_18"/>
    <g id="text_13">
     <!-- 0.5 -->
     <defs>
      <path d="M 10.6875 12.40625 
L 21 12.40625 
L 21 0 
L 10.6875 0 
z
" id="DejaVuSans-46"/>
     </defs>
     <g transform="translate(70.2875 23.798437)scale(0.1 -0.1)">
      <use xlink:href="#DejaVuSans-48"/>
      <use x="63.623047" xlink:href="#DejaVuSans-46"/>
      <use x="95.410156" xlink:href="#DejaVuSans-53"/>
     </g>
    </g>
    <g id="line2d_19">
     <path d="M 42.2875 34.976562 
L 62.2875 34.976562 
" style="fill:none;stroke:#ff7f0e;stroke-linecap:square;stroke-width:1.5;"/>
    </g>
    <g id="line2d_20"/>
    <g id="text_14">
     <!-- 1 -->
     <g transform="translate(70.2875 38.476562)scale(0.1 -0.1)">
      <use xlink:href="#DejaVuSans-49"/>
     </g>
    </g>
    <g id="line2d_21">
     <path d="M 42.2875 49.654687 
L 62.2875 49.654687 
" style="fill:none;stroke:#2ca02c;stroke-linecap:square;stroke-width:1.5;"/>
    </g>
    <g id="line2d_22"/>
    <g id="text_15">
     <!-- 1.5 -->
     <g transform="translate(70.2875 53.154687)scale(0.1 -0.1)">
      <use xlink:href="#DejaVuSans-49"/>
      <use x="63.623047" xlink:href="#DejaVuSans-46"/>
      <use x="95.410156" xlink:href="#DejaVuSans-53"/>
     </g>
    </g>
    <g id="line2d_23">
     <path d="M 42.2875 64.332812 
L 62.2875 64.332812 
" style="fill:none;stroke:#d62728;stroke-linecap:square;stroke-width:1.5;"/>
    </g>
    <g id="line2d_24"/>
    <g id="text_16">
     <!-- 2 -->
     <g transform="translate(70.2875 67.832812)scale(0.1 -0.1)">
      <use xlink:href="#DejaVuSans-50"/>
     </g>
    </g>
   </g>
  </g>
 </g>
 <defs>
  <clipPath id="p0b4cd2cdcd">
   <rect height="217.44" width="334.8" x="33.2875" y="7.2"/>
  </clipPath>
 </defs>
</svg>
